<svg width="33" height="32" viewBox="0 0 33 32" fill="none" xmlns="http://www.w3.org/2000/svg">
    <rect x="4" width="4" height="4" fill="#737373"/>
    <rect x="8" width="4" height="4" fill="#737373"/>
    <rect x="12" width="4" height="4" fill="#737373"/>
    <rect x="16" width="4" height="4" fill="#737373"/>
    <rect x="20" width="4" height="4" fill="#737373"/>
    <rect x="24" width="4" height="4" fill="#737373"/>
    <rect x="32" y="4" width="4" height="4" transform="rotate(90 32 4)" fill="#737373"/>
    <rect x="32" y="8" width="4" height="4" transform="rotate(90 32 8)" fill="#737373"/>
    <rect x="32" y="16" width="4" height="4" transform="rotate(90 32 16)" fill="#737373"/>
    <rect x="32" y="20" width="4" height="4" transform="rotate(90 32 20)" fill="#737373"/>
    <rect x="32" y="24" width="4" height="4" transform="rotate(90 32 24)" fill="#737373"/>
    <rect x="4" y="4" width="4" height="4" transform="rotate(90 4 4)" fill="#737373"/>
    <rect x="4" y="8" width="4" height="4" transform="rotate(90 4 8)" fill="#737373"/>
    <rect x="4" y="12" width="4" height="4" transform="rotate(90 4 12)" fill="#737373"/>
    <rect x="4" y="16" width="4" height="4" transform="rotate(90 4 16)" fill="#737373"/>
    <rect x="4" y="20" width="4" height="4" transform="rotate(90 4 20)" fill="#737373"/>
    <rect x="4" y="24" width="4" height="4" transform="rotate(90 4 24)" fill="#737373"/>
    <rect x="28" y="32" width="4" height="4" transform="rotate(-180 28 32)" fill="#737373"/>
    <rect x="24" y="32" width="4" height="4" transform="rotate(-180 24 32)" fill="#737373"/>
    <rect x="20" y="32" width="4" height="4" transform="rotate(-180 20 32)" fill="#737373"/>
    <rect x="16" y="32" width="4" height="4" transform="rotate(-180 16 32)" fill="#737373"/>
    <rect x="12" y="32" width="4" height="4" transform="rotate(-180 12 32)" fill="#737373"/>
    <rect x="8" y="32" width="4" height="4" transform="rotate(-180 8 32)" fill="#737373"/>
    <rect x="33" y="11" width="6" height="6" transform="rotate(90 33 11)" fill="white"/>
</svg>
