<svg width="230" height="108" viewBox="0 0 230 108" fill="none" xmlns="http://www.w3.org/2000/svg">
    <g opacity="0.2">
        <path d="M199.333 99.6667H191.667V107.333H199.333V99.6667Z" fill="#1D1D1D"/>
        <path d="M191.667 99.6667H184V107.333H191.667V99.6667Z" fill="#1D1D1D"/>
        <path d="M214.667 99.6667H207V107.333H214.667V99.6667Z" fill="#1D1D1D"/>
        <path d="M207 99.6667H199.333V107.333H207V99.6667Z" fill="#1D1D1D"/>
        <path d="M184 99.6667H176.333V107.333H184V99.6667Z" fill="#1D1D1D"/>
        <path d="M176.333 99.6667H168.667V107.333H176.333V99.6667Z" fill="#1D1D1D"/>
        <path d="M168.667 99.6667H161V107.333H168.667V99.6667Z" fill="#1D1D1D"/>
        <path d="M161 99.6667H153.333V107.333H161V99.6667Z" fill="#1D1D1D"/>
        <path d="M153.333 99.6667H145.667V107.333H153.333V99.6667Z" fill="#1D1D1D"/>
        <path d="M145.667 99.6667H138V107.333H145.667V99.6667Z" fill="#1D1D1D"/>
        <path d="M138 99.6667H130.333V107.333H138V99.6667Z" fill="#1D1D1D"/>
        <path d="M130.333 99.6667H122.667V107.333H130.333V99.6667Z" fill="#1D1D1D"/>
        <path d="M122.667 99.6667H115V107.333H122.667V99.6667Z" fill="#1D1D1D"/>
        <path d="M115 99.6667H107.333V107.333H115V99.6667Z" fill="#1D1D1D"/>
        <path d="M107.333 99.6667H99.6667V107.333H107.333V99.6667Z" fill="#1D1D1D"/>
        <path d="M99.6667 99.6667H92V107.333H99.6667V99.6667Z" fill="#1D1D1D"/>
        <path d="M92 99.6667H84.3333V107.333H92V99.6667Z" fill="#1D1D1D"/>
        <path d="M84.3333 99.6667H76.6667V107.333H84.3333V99.6667Z" fill="#1D1D1D"/>
        <path d="M76.6667 99.6667H69V107.333H76.6667V99.6667Z" fill="#1D1D1D"/>
        <path d="M69 99.6667H61.3333V107.333H69V99.6667Z" fill="#1D1D1D"/>
        <path d="M61.3333 99.6667H53.6667V107.333H61.3333V99.6667Z" fill="#1D1D1D"/>
        <path d="M53.6667 99.6667H46V107.333H53.6667V99.6667Z" fill="#1D1D1D"/>
        <path d="M46 99.6667H38.3333V107.333H46V99.6667Z" fill="#1D1D1D"/>
        <path d="M38.3333 99.6667H30.6667V107.333H38.3333V99.6667Z" fill="#1D1D1D"/>
        <path d="M30.6667 99.6667H23V107.333H30.6667V99.6667Z" fill="#1D1D1D"/>
        <path d="M23 99.6667H15.3333V107.333H23V99.6667Z" fill="#1D1D1D"/>
        <path d="M199.333 92H191.667V99.6667H199.333V92Z" fill="#7B7B7B"/>
        <path d="M191.667 92H184V99.6667H191.667V92Z" fill="#7B7B7B"/>
        <path d="M214.667 92H207V99.6667H214.667V92Z" fill="#D6D6D6"/>
        <path d="M207 92H199.333V99.6667H207V92Z" fill="#7B7B7B"/>
        <path d="M222.333 92H214.667V99.6667H222.333V92Z" fill="#1D1D1D"/>
        <path d="M184 92H176.333V99.6667H184V92Z" fill="#7B7B7B"/>
        <path d="M176.333 92H168.667V99.6667H176.333V92Z" fill="#7B7B7B"/>
        <path d="M168.667 92H161V99.6667H168.667V92Z" fill="#7B7B7B"/>
        <path d="M161 92H153.333V99.6667H161V92Z" fill="#7B7B7B"/>
        <path d="M153.333 92H145.667V99.6667H153.333V92Z" fill="#7B7B7B"/>
        <path d="M145.667 92H138V99.6667H145.667V92Z" fill="#7B7B7B"/>
        <path d="M138 92H130.333V99.6667H138V92Z" fill="#7B7B7B"/>
        <path d="M130.333 92H122.667V99.6667H130.333V92Z" fill="#7B7B7B"/>
        <path d="M122.667 92H115V99.6667H122.667V92Z" fill="#7B7B7B"/>
        <path d="M115 92H107.333V99.6667H115V92Z" fill="#7B7B7B"/>
        <path d="M107.333 92H99.6667V99.6667H107.333V92Z" fill="#7B7B7B"/>
        <path d="M99.6667 92H92V99.6667H99.6667V92Z" fill="#7B7B7B"/>
        <path d="M92 92H84.3333V99.6667H92V92Z" fill="#7B7B7B"/>
        <path d="M84.3333 92H76.6667V99.6667H84.3333V92Z" fill="#7B7B7B"/>
        <path d="M76.6667 92H69V99.6667H76.6667V92Z" fill="#7B7B7B"/>
        <path d="M69 92H61.3333V99.6667H69V92Z" fill="#7B7B7B"/>
        <path d="M61.3333 92H53.6667V99.6667H61.3333V92Z" fill="#7B7B7B"/>
        <path d="M53.6667 92H46V99.6667H53.6667V92Z" fill="#7B7B7B"/>
        <path d="M46 92H38.3333V99.6667H46V92Z" fill="#7B7B7B"/>
        <path d="M38.3333 92H30.6667V99.6667H38.3333V92Z" fill="#7B7B7B"/>
        <path d="M30.6667 92H23V99.6667H30.6667V92Z" fill="#7B7B7B"/>
        <path d="M23 92H15.3333V99.6667H23V92Z" fill="#7B7B7B"/>
        <path d="M15.3333 92H7.66667V99.6667H15.3333V92Z" fill="#1D1D1D"/>
        <path d="M7.66667 92H0V99.6667H7.66667V92Z" fill="#1D1D1D"/>
        <path d="M199.333 84.3333H191.667V92H199.333V84.3333Z" fill="#7B7B7B"/>
        <path d="M191.667 84.3333H184V92H191.667V84.3333Z" fill="#7B7B7B"/>
        <path d="M214.667 84.3333H207V92H214.667V84.3333Z" fill="#D6D6D6"/>
        <path d="M207 84.3333H199.333V92H207V84.3333Z" fill="#7B7B7B"/>
        <path d="M214.667 92H207V99.6667H214.667V92Z" fill="#7B7B7B"/>
        <path d="M214.667 84.3333H207V92H214.667V84.3333Z" fill="#7B7B7B"/>
        <path d="M230 84.3333H222.333V92H230V84.3333Z" fill="#1D1D1D"/>
        <path d="M222.333 84.3333H214.667V92H222.333V84.3333Z" fill="#1D1D1D"/>
        <path d="M184 84.3333H176.333V92H184V84.3333Z" fill="#7B7B7B"/>
        <path d="M176.333 84.3333H168.667V92H176.333V84.3333Z" fill="#7B7B7B"/>
        <path d="M168.667 84.3333H161V92H168.667V84.3333Z" fill="#7B7B7B"/>
        <path d="M161 84.3333H153.333V92H161V84.3333Z" fill="#7B7B7B"/>
        <path d="M153.333 84.3333H145.667V92H153.333V84.3333Z" fill="#6F6F6F"/>
        <path d="M145.667 84.3333H138V92H145.667V84.3333Z" fill="#6F6F6F"/>
        <path d="M138 84.3333H130.333V92H138V84.3333Z" fill="#6F6F6F"/>
        <path d="M130.333 84.3333H122.667V92H130.333V84.3333Z" fill="#6F6F6F"/>
        <path d="M122.667 84.3333H115V92H122.667V84.3333Z" fill="#6F6F6F"/>
        <path d="M115 84.3333H107.333V92H115V84.3333Z" fill="#6F6F6F"/>
        <path d="M107.333 84.3333H99.6667V92H107.333V84.3333Z" fill="#6F6F6F"/>
        <path d="M99.6667 84.3333H92V92H99.6667V84.3333Z" fill="#6F6F6F"/>
        <path d="M92 84.3333H84.3333V92H92V84.3333Z" fill="#6F6F6F"/>
        <path d="M84.3333 84.3333H76.6667V92H84.3333V84.3333Z" fill="#6F6F6F"/>
        <path d="M76.6667 84.3333H69V92H76.6667V84.3333Z" fill="#7B7B7B"/>
        <path d="M69 84.3333H61.3333V92H69V84.3333Z" fill="#7B7B7B"/>
        <path d="M61.3333 84.3333H53.6667V92H61.3333V84.3333Z" fill="#7B7B7B"/>
        <path d="M53.6667 84.3333H46V92H53.6667V84.3333Z" fill="#7B7B7B"/>
        <path d="M46 84.3333H38.3333V92H46V84.3333Z" fill="#7B7B7B"/>
        <path d="M38.3333 84.3333H30.6667V92H38.3333V84.3333Z" fill="#7B7B7B"/>
        <path d="M30.6667 84.3333H23V92H30.6667V84.3333Z" fill="#7B7B7B"/>
        <path d="M23 84.3333H15.3333V92H23V84.3333Z" fill="#7B7B7B"/>
        <path d="M15.3333 84.3333H7.66667V92H15.3333V84.3333Z" fill="#1D1D1D"/>
        <path d="M7.66667 84.3333H0V92H7.66667V84.3333Z" fill="#1D1D1D"/>
        <path d="M15.3333 69H7.66667V76.6667H15.3333V69Z" fill="#1D1D1D"/>
        <path d="M199.333 76.6667H191.667V84.3333H199.333V76.6667Z" fill="#6F6F6F"/>
        <path d="M191.667 76.6667H184V84.3333H191.667V76.6667Z" fill="#6F6F6F"/>
        <path d="M214.667 76.6667H207V84.3333H214.667V76.6667Z" fill="#D6D6D6"/>
        <path d="M207 76.6667H199.333V84.3333H207V76.6667Z" fill="#D6D6D6"/>
        <path d="M230 76.6667H222.333V84.3333H230V76.6667Z" fill="#1D1D1D"/>
        <path d="M222.333 76.6667H214.667V84.3333H222.333V76.6667Z" fill="#1D1D1D"/>
        <path d="M184 76.6667H176.333V84.3333H184V76.6667Z" fill="#6F6F6F"/>
        <path d="M176.333 76.6667H168.667V84.3333H176.333V76.6667Z" fill="#6F6F6F"/>
        <path d="M168.667 76.6667H161V84.3333H168.667V76.6667Z" fill="#6F6F6F"/>
        <path d="M161 76.6667H153.333V84.3333H161V76.6667Z" fill="#6F6F6F"/>
        <path d="M153.333 76.6667H145.667V84.3333H153.333V76.6667Z" fill="#6F6F6F"/>
        <path d="M145.667 76.6667H138V84.3333H145.667V76.6667Z" fill="#6F6F6F"/>
        <path d="M138 76.6667H130.333V84.3333H138V76.6667Z" fill="#6F6F6F"/>
        <path d="M130.333 76.6667H122.667V84.3333H130.333V76.6667Z" fill="#6F6F6F"/>
        <path d="M122.667 76.6667H115V84.3333H122.667V76.6667Z" fill="#6F6F6F"/>
        <path d="M115 76.6667H107.333V84.3333H115V76.6667Z" fill="#6F6F6F"/>
        <path d="M107.333 76.6667H99.6667V84.3333H107.333V76.6667Z" fill="#6F6F6F"/>
        <path d="M99.6667 76.6667H92V84.3333H99.6667V76.6667Z" fill="#6F6F6F"/>
        <path d="M92 76.6667H84.3333V84.3333H92V76.6667Z" fill="#6F6F6F"/>
        <path d="M84.3333 76.6667H76.6667V84.3333H84.3333V76.6667Z" fill="#6F6F6F"/>
        <path d="M76.6667 76.6667H69V84.3333H76.6667V76.6667Z" fill="#6F6F6F"/>
        <path d="M69 76.6667H61.3333V84.3333H69V76.6667Z" fill="#6F6F6F"/>
        <path d="M61.3333 76.6667H53.6667V84.3333H61.3333V76.6667Z" fill="#6F6F6F"/>
        <path d="M53.6667 76.6667H46V84.3333H53.6667V76.6667Z" fill="#6F6F6F"/>
        <path d="M46 76.6667H38.3333V84.3333H46V76.6667Z" fill="#6F6F6F"/>
        <path d="M38.3333 76.6667H30.6667V84.3333H38.3333V76.6667Z" fill="#6F6F6F"/>
        <path d="M30.6667 76.6667H23V84.3333H30.6667V76.6667Z" fill="#7B7B7B"/>
        <path d="M23 76.6667H15.3333V84.3333H23V76.6667Z" fill="#7B7B7B"/>
        <path d="M15.3333 76.6667H7.66667V84.3333H15.3333V76.6667Z" fill="#1D1D1D"/>
        <path d="M199.333 69H191.667V76.6667H199.333V69Z" fill="#D6D6D6"/>
        <path d="M191.667 69H184V76.6667H191.667V69Z" fill="#D6D6D6"/>
        <path d="M214.667 69H207V76.6667H214.667V69Z" fill="#D6D6D6"/>
        <path d="M207 69H199.333V76.6667H207V69Z" fill="#D6D6D6"/>
        <path d="M230 69H222.333V76.6667H230V69Z" fill="#1D1D1D"/>
        <path d="M222.333 69H214.667V76.6667H222.333V69Z" fill="#1D1D1D"/>
        <path d="M184 69H176.333V76.6667H184V69Z" fill="#6F6F6F"/>
        <path d="M176.333 69H168.667V76.6667H176.333V69Z" fill="#6F6F6F"/>
        <path d="M168.667 69H161V76.6667H168.667V69Z" fill="#6F6F6F"/>
        <path d="M161 69H153.333V76.6667H161V69Z" fill="#6F6F6F"/>
        <path d="M153.333 69H145.667V76.6667H153.333V69Z" fill="#6F6F6F"/>
        <path d="M145.667 69H138V76.6667H145.667V69Z" fill="#6F6F6F"/>
        <path d="M138 69H130.333V76.6667H138V69Z" fill="#6F6F6F"/>
        <path d="M130.333 69H122.667V76.6667H130.333V69Z" fill="#6F6F6F"/>
        <path d="M122.667 69H115V76.6667H122.667V69Z" fill="#6F6F6F"/>
        <path d="M115 69H107.333V76.6667H115V69Z" fill="#6F6F6F"/>
        <path d="M107.333 69H99.6667V76.6667H107.333V69Z" fill="#6F6F6F"/>
        <path d="M99.6667 69H92V76.6667H99.6667V69Z" fill="#6F6F6F"/>
        <path d="M92 69H84.3333V76.6667H92V69Z" fill="#6F6F6F"/>
        <path d="M84.3333 69H76.6667V76.6667H84.3333V69Z" fill="#6F6F6F"/>
        <path d="M76.6667 69H69V76.6667H76.6667V69Z" fill="#6F6F6F"/>
        <path d="M69 69H61.3333V76.6667H69V69Z" fill="#6F6F6F"/>
        <path d="M61.3333 69H53.6667V76.6667H61.3333V69Z" fill="#6F6F6F"/>
        <path d="M53.6667 69H46V76.6667H53.6667V69Z" fill="#6F6F6F"/>
        <path d="M46 69H38.3333V76.6667H46V69Z" fill="#7B7B7B"/>
        <path d="M38.3333 69H30.6667V76.6667H38.3333V69Z" fill="#7B7B7B"/>
        <path d="M30.6667 69H23V76.6667H30.6667V69Z" fill="#7B7B7B"/>
        <path d="M23 69H15.3333V76.6667H23V69Z" fill="#1D1D1D"/>
        <path d="M199.333 61.3333H191.667V69H199.333V61.3333Z" fill="#D6D6D6"/>
        <path d="M191.667 61.3333H184V69H191.667V61.3333Z" fill="#D6D6D6"/>
        <path d="M214.667 61.3333H207V69H214.667V61.3333Z" fill="#1D1D1D"/>
        <path d="M207 61.3333H199.333V69H207V61.3333Z" fill="#D6D6D6"/>
        <path d="M222.333 61.3333H214.667V69H222.333V61.3333Z" fill="#1D1D1D"/>
        <path d="M184 61.3333H176.333V69H184V61.3333Z" fill="#D6D6D6"/>
        <path d="M176.333 61.3333H168.667V69H176.333V61.3333Z" fill="#6F6F6F"/>
        <path d="M168.667 61.3333H161V69H168.667V61.3333Z" fill="#6F6F6F"/>
        <path d="M161 61.3333H153.333V69H161V61.3333Z" fill="#6F6F6F"/>
        <path d="M153.333 61.3333H145.667V69H153.333V61.3333Z" fill="#6F6F6F"/>
        <path d="M145.667 61.3333H138V69H145.667V61.3333Z" fill="#6F6F6F"/>
        <path d="M138 61.3333H130.333V69H138V61.3333Z" fill="#6F6F6F"/>
        <path d="M130.333 61.3333H122.667V69H130.333V61.3333Z" fill="#6F6F6F"/>
        <path d="M122.667 61.3333H115V69H122.667V61.3333Z" fill="#6F6F6F"/>
        <path d="M115 61.3333H107.333V69H115V61.3333Z" fill="#6F6F6F"/>
        <path d="M107.333 61.3333H99.6667V69H107.333V61.3333Z" fill="#6F6F6F"/>
        <path d="M99.6667 61.3333H92V69H99.6667V61.3333Z" fill="#6F6F6F"/>
        <path d="M92 61.3333H84.3333V69H92V61.3333Z" fill="#6F6F6F"/>
        <path d="M84.3333 61.3333H76.6667V69H84.3333V61.3333Z" fill="#6F6F6F"/>
        <path d="M76.6667 61.3333H69V69H76.6667V61.3333Z" fill="#6F6F6F"/>
        <path d="M69 61.3333H61.3333V69H69V61.3333Z" fill="#6F6F6F"/>
        <path d="M61.3333 61.3333H53.6667V69H61.3333V61.3333Z" fill="#6F6F6F"/>
        <path d="M53.6667 61.3333H46V69H53.6667V61.3333Z" fill="#7B7B7B"/>
        <path d="M46 61.3333H38.3333V69H46V61.3333Z" fill="#7B7B7B"/>
        <path d="M38.3333 61.3333H30.6667V69H38.3333V61.3333Z" fill="#7B7B7B"/>
        <path d="M30.6667 61.3333H23V69H30.6667V61.3333Z" fill="#1D1D1D"/>
        <path d="M23 61.3333H15.3333V69H23V61.3333Z" fill="#1D1D1D"/>
        <path d="M199.333 53.6667H191.667V61.3333H199.333V53.6667Z" fill="#1D1D1D"/>
        <path d="M191.667 53.6667H184V61.3333H191.667V53.6667Z" fill="#1D1D1D"/>
        <path d="M191.667 46H184V53.6667H191.667V46Z" fill="#1D1D1D"/>
        <path d="M214.667 53.6667H207V61.3333H214.667V53.6667Z" fill="#1D1D1D"/>
        <path d="M207 53.6667H199.333V61.3333H207V53.6667Z" fill="#1D1D1D"/>
        <path d="M184 53.6667H176.333V61.3333H184V53.6667Z" fill="#D6D6D6"/>
        <path d="M176.333 53.6667H168.667V61.3333H176.333V53.6667Z" fill="#D6D6D6"/>
        <path d="M168.667 53.6667H161V61.3333H168.667V53.6667Z" fill="#6F6F6F"/>
        <path d="M161 53.6667H153.333V61.3333H161V53.6667Z" fill="#6F6F6F"/>
        <path d="M153.333 53.6667H145.667V61.3333H153.333V53.6667Z" fill="#6F6F6F"/>
        <path d="M145.667 53.6667H138V61.3333H145.667V53.6667Z" fill="#6F6F6F"/>
        <path d="M138 53.6667H130.333V61.3333H138V53.6667Z" fill="#6F6F6F"/>
        <path d="M130.333 53.6667H122.667V61.3333H130.333V53.6667Z" fill="#6F6F6F"/>
        <path d="M122.667 53.6667H115V61.3333H122.667V53.6667Z" fill="#6F6F6F"/>
        <path d="M115 53.6667H107.333V61.3333H115V53.6667Z" fill="#6F6F6F"/>
        <path d="M107.333 53.6667H99.6667V61.3333H107.333V53.6667Z" fill="#6F6F6F"/>
        <path d="M99.6667 53.6667H92V61.3333H99.6667V53.6667Z" fill="#6F6F6F"/>
        <path d="M92 53.6667H84.3333V61.3333H92V53.6667Z" fill="#6F6F6F"/>
        <path d="M84.3333 53.6667H76.6667V61.3333H84.3333V53.6667Z" fill="#6F6F6F"/>
        <path d="M76.6667 53.6667H69V61.3333H76.6667V53.6667Z" fill="#6F6F6F"/>
        <path d="M69 53.6667H61.3333V61.3333H69V53.6667Z" fill="#6F6F6F"/>
        <path d="M61.3333 53.6667H53.6667V61.3333H61.3333V53.6667Z" fill="#7B7B7B"/>
        <path d="M53.6667 53.6667H46V61.3333H53.6667V53.6667Z" fill="#7B7B7B"/>
        <path d="M46 53.6667H38.3333V61.3333H46V53.6667Z" fill="#1D1D1D"/>
        <path d="M38.3333 53.6667H30.6667V61.3333H38.3333V53.6667Z" fill="#1D1D1D"/>
        <path d="M30.6667 53.6667H23V61.3333H30.6667V53.6667Z" fill="#1D1D1D"/>
        <path d="M184 46H176.333V53.6667H184V46Z" fill="#1D1D1D"/>
        <path d="M176.333 46H168.667V53.6667H176.333V46Z" fill="#D6D6D6"/>
        <path d="M168.667 46H161V53.6667H168.667V46Z" fill="#D6D6D6"/>
        <path d="M161 46H153.333V53.6667H161V46Z" fill="#D6D6D6"/>
        <path d="M153.333 46H145.667V53.6667H153.333V46Z" fill="#D6D6D6"/>
        <path d="M145.667 46H138V53.6667H145.667V46Z" fill="#6F6F6F"/>
        <path d="M138 46H130.333V53.6667H138V46Z" fill="#6F6F6F"/>
        <path d="M130.333 46H122.667V53.6667H130.333V46Z" fill="#6F6F6F"/>
        <path d="M122.667 46H115V53.6667H122.667V46Z" fill="#6F6F6F"/>
        <path d="M115 46H107.333V53.6667H115V46Z" fill="#6F6F6F"/>
        <path d="M107.333 46H99.6667V53.6667H107.333V46Z" fill="#6F6F6F"/>
        <path d="M99.6667 46H92V53.6667H99.6667V46Z" fill="#6F6F6F"/>
        <path d="M92 46H84.3333V53.6667H92V46Z" fill="#6F6F6F"/>
        <path d="M84.3333 46H76.6667V53.6667H84.3333V46Z" fill="#6F6F6F"/>
        <path d="M76.6667 46H69V53.6667H76.6667V46Z" fill="#6F6F6F"/>
        <path d="M69 46H61.3333V53.6667H69V46Z" fill="#7B7B7B"/>
        <path d="M61.3333 46H53.6667V53.6667H61.3333V46Z" fill="#7B7B7B"/>
        <path d="M53.6667 46H46V53.6667H53.6667V46Z" fill="#1D1D1D"/>
        <path d="M184 38.3333H176.333V46H184V38.3333Z" fill="#1D1D1D"/>
        <path d="M176.333 38.3333H168.667V46H176.333V38.3333Z" fill="#1D1D1D"/>
        <path d="M168.667 38.3333H161V46H168.667V38.3333Z" fill="#D6D6D6"/>
        <path d="M161 38.3333H153.333V46H161V38.3333Z" fill="#D6D6D6"/>
        <path d="M153.333 38.3333H145.667V46H153.333V38.3333Z" fill="#D6D6D6"/>
        <path d="M145.667 38.3333H138V46H145.667V38.3333Z" fill="#D6D6D6"/>
        <path d="M138 38.3333H130.333V46H138V38.3333Z" fill="#6F6F6F"/>
        <path d="M130.333 38.3333H122.667V46H130.333V38.3333Z" fill="#6F6F6F"/>
        <path d="M122.667 38.3333H115V46H122.667V38.3333Z" fill="#6F6F6F"/>
        <path d="M115 38.3333H107.333V46H115V38.3333Z" fill="#6F6F6F"/>
        <path d="M107.333 38.3333H99.6667V46H107.333V38.3333Z" fill="#6F6F6F"/>
        <path d="M99.6667 38.3333H92V46H99.6667V38.3333Z" fill="#6F6F6F"/>
        <path d="M92 38.3333H84.3333V46H92V38.3333Z" fill="#6F6F6F"/>
        <path d="M84.3333 38.3333H76.6667V46H84.3333V38.3333Z" fill="#7B7B7B"/>
        <path d="M76.6667 38.3333H69V46H76.6667V38.3333Z" fill="#7B7B7B"/>
        <path d="M69 38.3333H61.3333V46H69V38.3333Z" fill="#7B7B7B"/>
        <path d="M61.3333 38.3333H53.6667V46H61.3333V38.3333Z" fill="#1D1D1D"/>
        <path d="M53.6667 38.3333H46V46H53.6667V38.3333Z" fill="#1D1D1D"/>
        <path d="M176.333 30.6667H168.667V38.3333H176.333V30.6667Z" fill="#1D1D1D"/>
        <path d="M168.667 30.6667H161V38.3333H168.667V30.6667Z" fill="#1D1D1D"/>
        <path d="M161 30.6667H153.333V38.3333H161V30.6667Z" fill="#1D1D1D"/>
        <path d="M153.333 30.6667H145.667V38.3333H153.333V30.6667Z" fill="#D6D6D6"/>
        <path d="M145.667 30.6667H138V38.3333H145.667V30.6667Z" fill="#D6D6D6"/>
        <path d="M138 30.6667H130.333V38.3333H138V30.6667Z" fill="#6F6F6F"/>
        <path d="M130.333 30.6667H122.667V38.3333H130.333V30.6667Z" fill="#6F6F6F"/>
        <path d="M122.667 30.6667H115V38.3333H122.667V30.6667Z" fill="#6F6F6F"/>
        <path d="M115 30.6667H107.333V38.3333H115V30.6667Z" fill="#6F6F6F"/>
        <path d="M107.333 30.6667H99.6667V38.3333H107.333V30.6667Z" fill="#6F6F6F"/>
        <path d="M99.6667 30.6667H92V38.3333H99.6667V30.6667Z" fill="#6F6F6F"/>
        <path d="M92 30.6667H84.3333V38.3333H92V30.6667Z" fill="#6F6F6F"/>
        <path d="M84.3333 30.6667H76.6667V38.3333H84.3333V30.6667Z" fill="#7B7B7B"/>
        <path d="M76.6667 30.6667H69V38.3333H76.6667V30.6667Z" fill="#7B7B7B"/>
        <path d="M76.6667 23H69V30.6667H76.6667V23Z" fill="#7B7B7B"/>
        <path d="M69 30.6667H61.3333V38.3333H69V30.6667Z" fill="#7B7B7B"/>
        <path d="M61.3333 30.6667H53.6667V38.3333H61.3333V30.6667Z" fill="#1D1D1D"/>
        <path d="M61.3333 23H53.6667V30.6667H61.3333V23Z" fill="#1D1D1D"/>
        <path d="M46 46H38.3333V53.6667H46V46Z" fill="#1D1D1D"/>
        <path d="M153.333 23H145.667V30.6667H153.333V23Z" fill="#1D1D1D"/>
        <path d="M145.667 23H138V30.6667H145.667V23Z" fill="#1D1D1D"/>
        <path d="M138 23H130.333V30.6667H138V23Z" fill="#D6D6D6"/>
        <path d="M130.333 23H122.667V30.6667H130.333V23Z" fill="#D6D6D6"/>
        <path d="M122.667 23H115V30.6667H122.667V23Z" fill="#6F6F6F"/>
        <path d="M115 23H107.333V30.6667H115V23Z" fill="#6F6F6F"/>
        <path d="M107.333 23H99.6667V30.6667H107.333V23Z" fill="#6F6F6F"/>
        <path d="M99.6667 23H92V30.6667H99.6667V23Z" fill="#6F6F6F"/>
        <path d="M92 23H84.3333V30.6667H92V23Z" fill="#7B7B7B"/>
        <path d="M84.3333 23H76.6667V30.6667H84.3333V23Z" fill="#7B7B7B"/>
        <path d="M69 23H61.3333V30.6667H69V23Z" fill="#1D1D1D"/>
        <path d="M145.667 15.3333H138V23H145.667V15.3333Z" fill="#1D1D1D"/>
        <path d="M138 15.3333H130.333V23H138V15.3333Z" fill="#1D1D1D"/>
        <path d="M130.333 15.3333H122.667V23H130.333V15.3333Z" fill="#D6D6D6"/>
        <path d="M122.667 15.3333H115V23H122.667V15.3333Z" fill="#D6D6D6"/>
        <path d="M115 15.3333H107.333V23H115V15.3333Z" fill="#D6D6D6"/>
        <path d="M107.333 15.3333H99.6667V23H107.333V15.3333Z" fill="#D6D6D6"/>
        <path d="M99.6667 15.3333H92V23H99.6667V15.3333Z" fill="#D6D6D6"/>
        <path d="M92 15.3333H84.3333V23H92V15.3333Z" fill="#7B7B7B"/>
        <path d="M84.3333 15.3333H76.6667V23H84.3333V15.3333Z" fill="#1D1D1D"/>
        <path d="M76.6667 15.3333H69V23H76.6667V15.3333Z" fill="#1D1D1D"/>
        <path d="M69 15.3333H61.3333V23H69V15.3333Z" fill="#1D1D1D"/>
        <path d="M138 7.66667H130.333V15.3333H138V7.66667Z" fill="#1D1D1D"/>
        <path d="M130.333 7.66667H122.667V15.3333H130.333V7.66667Z" fill="#1D1D1D"/>
        <path d="M122.667 7.66667H115V15.3333H122.667V7.66667Z" fill="#D6D6D6"/>
        <path d="M115 7.66667H107.333V15.3333H115V7.66667Z" fill="#D6D6D6"/>
        <path d="M107.333 7.66667H99.6667V15.3333H107.333V7.66667Z" fill="#D6D6D6"/>
        <path d="M99.6667 7.66667H92V15.3333H99.6667V7.66667Z" fill="#D6D6D6"/>
        <path d="M92 7.66667H84.3333V15.3333H92V7.66667Z" fill="#1D1D1D"/>
        <path d="M92 0H84.3333V7.66667H92V0Z" fill="#1D1D1D"/>
        <path d="M84.3333 7.66667H76.6667V15.3333H84.3333V7.66667Z" fill="#1D1D1D"/>
        <path d="M130.333 0H122.667V7.66667H130.333V0Z" fill="#1D1D1D"/>
        <path d="M122.667 0H115V7.66667H122.667V0Z" fill="#1D1D1D"/>
        <path d="M115 0H107.333V7.66667H115V0Z" fill="#1D1D1D"/>
        <path d="M107.333 0H99.6667V7.66667H107.333V0Z" fill="#1D1D1D"/>
        <path d="M99.6667 0H92V7.66667H99.6667V0Z" fill="#1D1D1D"/>
    </g>
</svg>
