<svg width="430" height="151" viewBox="0 0 430 151" fill="none" xmlns="http://www.w3.org/2000/svg">
    <g opacity="0.2">
        <path d="M57.3333 136.333H71.6667V150.667H57.3333V136.333Z" fill="#1D1D1D"/>
        <path d="M71.6667 136.333H86V150.667H71.6667V136.333Z" fill="#1D1D1D"/>
        <path d="M28.6667 136.333H43V150.667H28.6667V136.333Z" fill="#1D1D1D"/>
        <path d="M43 136.333H57.3333V150.667H43V136.333Z" fill="#1D1D1D"/>
        <path d="M86 136.333H100.333V150.667H86V136.333Z" fill="#1D1D1D"/>
        <path d="M100.333 136.333H114.667V150.667H100.333V136.333Z" fill="#1D1D1D"/>
        <path d="M114.667 136.333H129V150.667H114.667V136.333Z" fill="#1D1D1D"/>
        <path d="M129 136.333H143.333V150.667H129V136.333Z" fill="#1D1D1D"/>
        <path d="M143.333 136.333H157.667V150.667H143.333V136.333Z" fill="#1D1D1D"/>
        <path d="M157.667 136.333H172V150.667H157.667V136.333Z" fill="#1D1D1D"/>
        <path d="M172 136.333H186.333V150.667H172V136.333Z" fill="#1D1D1D"/>
        <path d="M186.333 136.333H200.667V150.667H186.333V136.333Z" fill="#1D1D1D"/>
        <path d="M200.667 136.333H215V150.667H200.667V136.333Z" fill="#1D1D1D"/>
        <path d="M215 136.333H229.333V150.667H215V136.333Z" fill="#1D1D1D"/>
        <path d="M229.333 136.333H243.667V150.667H229.333V136.333Z" fill="#1D1D1D"/>
        <path d="M243.667 136.333H258V150.667H243.667V136.333Z" fill="#1D1D1D"/>
        <path d="M258 136.333H272.333V150.667H258V136.333Z" fill="#1D1D1D"/>
        <path d="M272.333 136.333H286.667V150.667H272.333V136.333Z" fill="#1D1D1D"/>
        <path d="M286.667 136.333H301V150.667H286.667V136.333Z" fill="#1D1D1D"/>
        <path d="M301 136.333H315.333V150.667H301V136.333Z" fill="#1D1D1D"/>
        <path d="M315.333 136.333H329.667V150.667H315.333V136.333Z" fill="#1D1D1D"/>
        <path d="M329.667 136.333H344V150.667H329.667V136.333Z" fill="#1D1D1D"/>
        <path d="M344 136.333H358.333V150.667H344V136.333Z" fill="#1D1D1D"/>
        <path d="M358.333 136.333H372.667V150.667H358.333V136.333Z" fill="#1D1D1D"/>
        <path d="M372.667 136.333H387V150.667H372.667V136.333Z" fill="#1D1D1D"/>
        <path d="M387 136.333H401.333V150.667H387V136.333Z" fill="#1D1D1D"/>
        <path d="M57.3333 122H71.6667V136.333H57.3333V122Z" fill="#7B7B7B"/>
        <path d="M71.6667 122H86V136.333H71.6667V122Z" fill="#7B7B7B"/>
        <path d="M28.6667 122H43V136.333H28.6667V122Z" fill="#D6D6D6"/>
        <path d="M43 122H57.3333V136.333H43V122Z" fill="#7B7B7B"/>
        <path d="M14.3333 122H28.6667V136.333H14.3333V122Z" fill="#1D1D1D"/>
        <path d="M86 122H100.333V136.333H86V122Z" fill="#7B7B7B"/>
        <path d="M100.333 122H114.667V136.333H100.333V122Z" fill="#7B7B7B"/>
        <path d="M114.667 122H129V136.333H114.667V122Z" fill="#7B7B7B"/>
        <path d="M129 122H143.333V136.333H129V122Z" fill="#7B7B7B"/>
        <path d="M143.333 122H157.667V136.333H143.333V122Z" fill="#7B7B7B"/>
        <path d="M157.667 122H172V136.333H157.667V122Z" fill="#7B7B7B"/>
        <path d="M172 122H186.333V136.333H172V122Z" fill="#7B7B7B"/>
        <path d="M186.333 122H200.667V136.333H186.333V122Z" fill="#7B7B7B"/>
        <path d="M200.667 122H215V136.333H200.667V122Z" fill="#7B7B7B"/>
        <path d="M215 122H229.333V136.333H215V122Z" fill="#7B7B7B"/>
        <path d="M229.333 122H243.667V136.333H229.333V122Z" fill="#7B7B7B"/>
        <path d="M243.667 122H258V136.333H243.667V122Z" fill="#7B7B7B"/>
        <path d="M258 122H272.333V136.333H258V122Z" fill="#7B7B7B"/>
        <path d="M272.333 122H286.667V136.333H272.333V122Z" fill="#7B7B7B"/>
        <path d="M286.667 122H301V136.333H286.667V122Z" fill="#7B7B7B"/>
        <path d="M301 122H315.333V136.333H301V122Z" fill="#7B7B7B"/>
        <path d="M315.333 122H329.667V136.333H315.333V122Z" fill="#7B7B7B"/>
        <path d="M329.667 122H344V136.333H329.667V122Z" fill="#7B7B7B"/>
        <path d="M344 122H358.333V136.333H344V122Z" fill="#7B7B7B"/>
        <path d="M358.333 122H372.667V136.333H358.333V122Z" fill="#7B7B7B"/>
        <path d="M372.667 122H387V136.333H372.667V122Z" fill="#7B7B7B"/>
        <path d="M387 122H401.333V136.333H387V122Z" fill="#7B7B7B"/>
        <path d="M401.333 122H415.667V136.333H401.333V122Z" fill="#1D1D1D"/>
        <path d="M415.667 122H430V136.333H415.667V122Z" fill="#1D1D1D"/>
        <path d="M57.3333 107.667H71.6667V122H57.3333V107.667Z" fill="#7B7B7B"/>
        <path d="M71.6667 107.667H86V122H71.6667V107.667Z" fill="#7B7B7B"/>
        <path d="M28.6667 107.667H43V122H28.6667V107.667Z" fill="#D6D6D6"/>
        <path d="M43 107.667H57.3333V122H43V107.667Z" fill="#7B7B7B"/>
        <path d="M28.6667 122H43V136.333H28.6667V122Z" fill="#7B7B7B"/>
        <path d="M28.6667 107.667H43V122H28.6667V107.667Z" fill="#7B7B7B"/>
        <path d="M0 107.667H14.3333V122H0V107.667Z" fill="#1D1D1D"/>
        <path d="M14.3333 107.667H28.6667V122H14.3333V107.667Z" fill="#1D1D1D"/>
        <path d="M86 107.667H100.333V122H86V107.667Z" fill="#7B7B7B"/>
        <path d="M100.333 107.667H114.667V122H100.333V107.667Z" fill="#7B7B7B"/>
        <path d="M114.667 107.667H129V122H114.667V107.667Z" fill="#7B7B7B"/>
        <path d="M129 107.667H143.333V122H129V107.667Z" fill="#7B7B7B"/>
        <path d="M143.333 107.667H157.667V122H143.333V107.667Z" fill="#6F6F6F"/>
        <path d="M157.667 107.667H172V122H157.667V107.667Z" fill="#6F6F6F"/>
        <path d="M172 107.667H186.333V122H172V107.667Z" fill="#6F6F6F"/>
        <path d="M186.333 107.667H200.667V122H186.333V107.667Z" fill="#6F6F6F"/>
        <path d="M200.667 107.667H215V122H200.667V107.667Z" fill="#6F6F6F"/>
        <path d="M215 107.667H229.333V122H215V107.667Z" fill="#6F6F6F"/>
        <path d="M229.333 107.667H243.667V122H229.333V107.667Z" fill="#6F6F6F"/>
        <path d="M243.667 107.667H258V122H243.667V107.667Z" fill="#6F6F6F"/>
        <path d="M258 107.667H272.333V122H258V107.667Z" fill="#6F6F6F"/>
        <path d="M272.333 107.667H286.667V122H272.333V107.667Z" fill="#6F6F6F"/>
        <path d="M286.667 107.667H301V122H286.667V107.667Z" fill="#7B7B7B"/>
        <path d="M301 107.667H315.333V122H301V107.667Z" fill="#7B7B7B"/>
        <path d="M315.333 107.667H329.667V122H315.333V107.667Z" fill="#7B7B7B"/>
        <path d="M329.667 107.667H344V122H329.667V107.667Z" fill="#7B7B7B"/>
        <path d="M344 107.667H358.333V122H344V107.667Z" fill="#7B7B7B"/>
        <path d="M358.333 107.667H372.667V122H358.333V107.667Z" fill="#7B7B7B"/>
        <path d="M372.667 107.667H387V122H372.667V107.667Z" fill="#7B7B7B"/>
        <path d="M387 107.667H401.333V122H387V107.667Z" fill="#7B7B7B"/>
        <path d="M401.333 107.667H415.667V122H401.333V107.667Z" fill="#1D1D1D"/>
        <path d="M415.667 107.667H430V122H415.667V107.667Z" fill="#1D1D1D"/>
        <path d="M401.333 79H415.667V93.3333H401.333V79Z" fill="#1D1D1D"/>
        <path d="M57.3333 93.3333H71.6667V107.667H57.3333V93.3333Z" fill="#6F6F6F"/>
        <path d="M71.6667 93.3333H86V107.667H71.6667V93.3333Z" fill="#6F6F6F"/>
        <path d="M28.6667 93.3333H43V107.667H28.6667V93.3333Z" fill="#D6D6D6"/>
        <path d="M43 93.3333H57.3333V107.667H43V93.3333Z" fill="#D6D6D6"/>
        <path d="M0 93.3333H14.3333V107.667H0V93.3333Z" fill="#1D1D1D"/>
        <path d="M14.3333 93.3333H28.6667V107.667H14.3333V93.3333Z" fill="#1D1D1D"/>
        <path d="M86 93.3333H100.333V107.667H86V93.3333Z" fill="#6F6F6F"/>
        <path d="M100.333 93.3333H114.667V107.667H100.333V93.3333Z" fill="#6F6F6F"/>
        <path d="M114.667 93.3333H129V107.667H114.667V93.3333Z" fill="#6F6F6F"/>
        <path d="M129 93.3333H143.333V107.667H129V93.3333Z" fill="#6F6F6F"/>
        <path d="M143.333 93.3333H157.667V107.667H143.333V93.3333Z" fill="#6F6F6F"/>
        <path d="M157.667 93.3333H172V107.667H157.667V93.3333Z" fill="#6F6F6F"/>
        <path d="M172 93.3333H186.333V107.667H172V93.3333Z" fill="#6F6F6F"/>
        <path d="M186.333 93.3333H200.667V107.667H186.333V93.3333Z" fill="#6F6F6F"/>
        <path d="M200.667 93.3333H215V107.667H200.667V93.3333Z" fill="#6F6F6F"/>
        <path d="M215 93.3333H229.333V107.667H215V93.3333Z" fill="#6F6F6F"/>
        <path d="M229.333 93.3333H243.667V107.667H229.333V93.3333Z" fill="#6F6F6F"/>
        <path d="M243.667 93.3333H258V107.667H243.667V93.3333Z" fill="#6F6F6F"/>
        <path d="M258 93.3333H272.333V107.667H258V93.3333Z" fill="#6F6F6F"/>
        <path d="M272.333 93.3333H286.667V107.667H272.333V93.3333Z" fill="#6F6F6F"/>
        <path d="M286.667 93.3333H301V107.667H286.667V93.3333Z" fill="#6F6F6F"/>
        <path d="M301 93.3333H315.333V107.667H301V93.3333Z" fill="#6F6F6F"/>
        <path d="M315.333 93.3333H329.667V107.667H315.333V93.3333Z" fill="#6F6F6F"/>
        <path d="M329.667 93.3333H344V107.667H329.667V93.3333Z" fill="#6F6F6F"/>
        <path d="M344 93.3333H358.333V107.667H344V93.3333Z" fill="#6F6F6F"/>
        <path d="M358.333 93.3333H372.667V107.667H358.333V93.3333Z" fill="#6F6F6F"/>
        <path d="M372.667 93.3333H387V107.667H372.667V93.3333Z" fill="#7B7B7B"/>
        <path d="M387 93.3333H401.333V107.667H387V93.3333Z" fill="#7B7B7B"/>
        <path d="M401.333 93.3333H415.667V107.667H401.333V93.3333Z" fill="#1D1D1D"/>
        <path d="M57.3333 79H71.6667V93.3333H57.3333V79Z" fill="#D6D6D6"/>
        <path d="M71.6667 79H86V93.3333H71.6667V79Z" fill="#D6D6D6"/>
        <path d="M28.6667 79H43V93.3333H28.6667V79Z" fill="#D6D6D6"/>
        <path d="M43 79H57.3333V93.3333H43V79Z" fill="#D6D6D6"/>
        <path d="M0 79H14.3333V93.3333H0V79Z" fill="#1D1D1D"/>
        <path d="M14.3333 79H28.6667V93.3333H14.3333V79Z" fill="#1D1D1D"/>
        <path d="M86 79H100.333V93.3333H86V79Z" fill="#6F6F6F"/>
        <path d="M100.333 79H114.667V93.3333H100.333V79Z" fill="#6F6F6F"/>
        <path d="M114.667 79H129V93.3333H114.667V79Z" fill="#6F6F6F"/>
        <path d="M129 79H143.333V93.3333H129V79Z" fill="#6F6F6F"/>
        <path d="M143.333 79H157.667V93.3333H143.333V79Z" fill="#6F6F6F"/>
        <path d="M157.667 79H172V93.3333H157.667V79Z" fill="#6F6F6F"/>
        <path d="M172 79H186.333V93.3333H172V79Z" fill="#6F6F6F"/>
        <path d="M186.333 79H200.667V93.3333H186.333V79Z" fill="#6F6F6F"/>
        <path d="M200.667 79H215V93.3333H200.667V79Z" fill="#6F6F6F"/>
        <path d="M215 79H229.333V93.3333H215V79Z" fill="#6F6F6F"/>
        <path d="M229.333 79H243.667V93.3333H229.333V79Z" fill="#6F6F6F"/>
        <path d="M243.667 79H258V93.3333H243.667V79Z" fill="#6F6F6F"/>
        <path d="M258 79H272.333V93.3333H258V79Z" fill="#6F6F6F"/>
        <path d="M272.333 79H286.667V93.3333H272.333V79Z" fill="#6F6F6F"/>
        <path d="M286.667 79H301V93.3333H286.667V79Z" fill="#6F6F6F"/>
        <path d="M301 79H315.333V93.3333H301V79Z" fill="#6F6F6F"/>
        <path d="M315.333 79H329.667V93.3333H315.333V79Z" fill="#6F6F6F"/>
        <path d="M329.667 79H344V93.3333H329.667V79Z" fill="#6F6F6F"/>
        <path d="M344 79H358.333V93.3333H344V79Z" fill="#7B7B7B"/>
        <path d="M358.333 79H372.667V93.3333H358.333V79Z" fill="#7B7B7B"/>
        <path d="M372.667 79H387V93.3333H372.667V79Z" fill="#7B7B7B"/>
        <path d="M387 79H401.333V93.3333H387V79Z" fill="#1D1D1D"/>
        <path d="M57.3333 64.6667H71.6667V79H57.3333V64.6667Z" fill="#D6D6D6"/>
        <path d="M71.6667 64.6667H86V79H71.6667V64.6667Z" fill="#D6D6D6"/>
        <path d="M28.6667 64.6667H43V79H28.6667V64.6667Z" fill="#1D1D1D"/>
        <path d="M43 64.6667H57.3333V79H43V64.6667Z" fill="#D6D6D6"/>
        <path d="M14.3333 64.6667H28.6667V79H14.3333V64.6667Z" fill="#1D1D1D"/>
        <path d="M86 64.6667H100.333V79H86V64.6667Z" fill="#D6D6D6"/>
        <path d="M100.333 64.6667H114.667V79H100.333V64.6667Z" fill="#6F6F6F"/>
        <path d="M114.667 64.6667H129V79H114.667V64.6667Z" fill="#6F6F6F"/>
        <path d="M129 64.6667H143.333V79H129V64.6667Z" fill="#6F6F6F"/>
        <path d="M143.333 64.6667H157.667V79H143.333V64.6667Z" fill="#6F6F6F"/>
        <path d="M157.667 64.6667H172V79H157.667V64.6667Z" fill="#6F6F6F"/>
        <path d="M172 64.6667H186.333V79H172V64.6667Z" fill="#6F6F6F"/>
        <path d="M186.333 64.6667H200.667V79H186.333V64.6667Z" fill="#6F6F6F"/>
        <path d="M200.667 64.6667H215V79H200.667V64.6667Z" fill="#6F6F6F"/>
        <path d="M215 64.6667H229.333V79H215V64.6667Z" fill="#6F6F6F"/>
        <path d="M229.333 64.6667H243.667V79H229.333V64.6667Z" fill="#6F6F6F"/>
        <path d="M243.667 64.6667H258V79H243.667V64.6667Z" fill="#6F6F6F"/>
        <path d="M258 64.6667H272.333V79H258V64.6667Z" fill="#6F6F6F"/>
        <path d="M272.333 64.6667H286.667V79H272.333V64.6667Z" fill="#6F6F6F"/>
        <path d="M286.667 64.6667H301V79H286.667V64.6667Z" fill="#6F6F6F"/>
        <path d="M301 64.6667H315.333V79H301V64.6667Z" fill="#6F6F6F"/>
        <path d="M315.333 64.6667H329.667V79H315.333V64.6667Z" fill="#6F6F6F"/>
        <path d="M329.667 64.6667H344V79H329.667V64.6667Z" fill="#7B7B7B"/>
        <path d="M344 64.6667H358.333V79H344V64.6667Z" fill="#7B7B7B"/>
        <path d="M358.333 64.6667H372.667V79H358.333V64.6667Z" fill="#7B7B7B"/>
        <path d="M372.667 64.6667H387V79H372.667V64.6667Z" fill="#1D1D1D"/>
        <path d="M387 64.6667H401.333V79H387V64.6667Z" fill="#1D1D1D"/>
        <path d="M57.3333 50.3333H71.6667V64.6667H57.3333V50.3333Z" fill="#1D1D1D"/>
        <path d="M71.6667 50.3333H86V64.6667H71.6667V50.3333Z" fill="#1D1D1D"/>
        <path d="M71.6667 36H86V50.3333H71.6667V36Z" fill="#1D1D1D"/>
        <path d="M28.6667 50.3333H43V64.6667H28.6667V50.3333Z" fill="#1D1D1D"/>
        <path d="M43 50.3333H57.3333V64.6667H43V50.3333Z" fill="#1D1D1D"/>
        <path d="M86 50.3333H100.333V64.6667H86V50.3333Z" fill="#D6D6D6"/>
        <path d="M100.333 50.3333H114.667V64.6667H100.333V50.3333Z" fill="#D6D6D6"/>
        <path d="M114.667 50.3333H129V64.6667H114.667V50.3333Z" fill="#6F6F6F"/>
        <path d="M129 50.3333H143.333V64.6667H129V50.3333Z" fill="#6F6F6F"/>
        <path d="M143.333 50.3333H157.667V64.6667H143.333V50.3333Z" fill="#6F6F6F"/>
        <path d="M157.667 50.3333H172V64.6667H157.667V50.3333Z" fill="#6F6F6F"/>
        <path d="M172 50.3333H186.333V64.6667H172V50.3333Z" fill="#6F6F6F"/>
        <path d="M186.333 50.3333H200.667V64.6667H186.333V50.3333Z" fill="#6F6F6F"/>
        <path d="M200.667 50.3333H215V64.6667H200.667V50.3333Z" fill="#6F6F6F"/>
        <path d="M215 50.3333H229.333V64.6667H215V50.3333Z" fill="#6F6F6F"/>
        <path d="M229.333 50.3333H243.667V64.6667H229.333V50.3333Z" fill="#6F6F6F"/>
        <path d="M243.667 50.3333H258V64.6667H243.667V50.3333Z" fill="#6F6F6F"/>
        <path d="M258 50.3333H272.333V64.6667H258V50.3333Z" fill="#6F6F6F"/>
        <path d="M272.333 50.3333H286.667V64.6667H272.333V50.3333Z" fill="#6F6F6F"/>
        <path d="M286.667 50.3333H301V64.6667H286.667V50.3333Z" fill="#6F6F6F"/>
        <path d="M301 50.3333H315.333V64.6667H301V50.3333Z" fill="#6F6F6F"/>
        <path d="M315.333 50.3333H329.667V64.6667H315.333V50.3333Z" fill="#7B7B7B"/>
        <path d="M329.667 50.3333H344V64.6667H329.667V50.3333Z" fill="#7B7B7B"/>
        <path d="M344 50.3333H358.333V64.6667H344V50.3333Z" fill="#1D1D1D"/>
        <path d="M358.333 50.3333H372.667V64.6667H358.333V50.3333Z" fill="#1D1D1D"/>
        <path d="M372.667 50.3333H387V64.6667H372.667V50.3333Z" fill="#1D1D1D"/>
        <path d="M86 36H100.333V50.3333H86V36Z" fill="#1D1D1D"/>
        <path d="M100.333 36H114.667V50.3333H100.333V36Z" fill="#D6D6D6"/>
        <path d="M114.667 36H129V50.3333H114.667V36Z" fill="#D6D6D6"/>
        <path d="M129 36H143.333V50.3333H129V36Z" fill="#D6D6D6"/>
        <path d="M143.333 36H157.667V50.3333H143.333V36Z" fill="#D6D6D6"/>
        <path d="M157.667 36H172V50.3333H157.667V36Z" fill="#6F6F6F"/>
        <path d="M172 36H186.333V50.3333H172V36Z" fill="#6F6F6F"/>
        <path d="M186.333 36H200.667V50.3333H186.333V36Z" fill="#6F6F6F"/>
        <path d="M200.667 36H215V50.3333H200.667V36Z" fill="#6F6F6F"/>
        <path d="M215 36H229.333V50.3333H215V36Z" fill="#6F6F6F"/>
        <path d="M229.333 36H243.667V50.3333H229.333V36Z" fill="#6F6F6F"/>
        <path d="M243.667 36H258V50.3333H243.667V36Z" fill="#6F6F6F"/>
        <path d="M258 36H272.333V50.3333H258V36Z" fill="#6F6F6F"/>
        <path d="M272.333 36H286.667V50.3333H272.333V36Z" fill="#6F6F6F"/>
        <path d="M286.667 36H301V50.3333H286.667V36Z" fill="#6F6F6F"/>
        <path d="M301 36H315.333V50.3333H301V36Z" fill="#7B7B7B"/>
        <path d="M315.333 36H329.667V50.3333H315.333V36Z" fill="#7B7B7B"/>
        <path d="M329.667 36H344V50.3333H329.667V36Z" fill="#1D1D1D"/>
        <path d="M86 21.6667H100.333V36H86V21.6667Z" fill="#1D1D1D"/>
        <path d="M100.333 21.6667H114.667V36H100.333V21.6667Z" fill="#1D1D1D"/>
        <path d="M114.667 21.6667H129V36H114.667V21.6667Z" fill="#D6D6D6"/>
        <path d="M129 21.6667H143.333V36H129V21.6667Z" fill="#D6D6D6"/>
        <path d="M143.333 21.6667H157.667V36H143.333V21.6667Z" fill="#D6D6D6"/>
        <path d="M157.667 21.6667H172V36H157.667V21.6667Z" fill="#D6D6D6"/>
        <path d="M172 21.6667H186.333V36H172V21.6667Z" fill="#6F6F6F"/>
        <path d="M186.333 21.6667H200.667V36H186.333V21.6667Z" fill="#6F6F6F"/>
        <path d="M200.667 21.6667H215V36H200.667V21.6667Z" fill="#6F6F6F"/>
        <path d="M215 21.6667H229.333V36H215V21.6667Z" fill="#6F6F6F"/>
        <path d="M229.333 21.6667H243.667V36H229.333V21.6667Z" fill="#6F6F6F"/>
        <path d="M243.667 21.6667H258V36H243.667V21.6667Z" fill="#6F6F6F"/>
        <path d="M258 21.6667H272.333V36H258V21.6667Z" fill="#6F6F6F"/>
        <path d="M272.333 21.6667H286.667V36H272.333V21.6667Z" fill="#7B7B7B"/>
        <path d="M286.667 21.6667H301V36H286.667V21.6667Z" fill="#7B7B7B"/>
        <path d="M301 21.6667H315.333V36H301V21.6667Z" fill="#7B7B7B"/>
        <path d="M315.333 21.6667H329.667V36H315.333V21.6667Z" fill="#1D1D1D"/>
        <path d="M329.667 21.6667H344V36H329.667V21.6667Z" fill="#1D1D1D"/>
        <path d="M100.333 7.33334H114.667V21.6667H100.333V7.33334Z" fill="#1D1D1D"/>
        <path d="M114.667 7.33334H129V21.6667H114.667V7.33334Z" fill="#1D1D1D"/>
        <path d="M129 7.33334H143.333V21.6667H129V7.33334Z" fill="#1D1D1D"/>
        <path d="M143.333 7.33334H157.667V21.6667H143.333V7.33334Z" fill="#D6D6D6"/>
        <path d="M157.667 7.33334H172V21.6667H157.667V7.33334Z" fill="#D6D6D6"/>
        <path d="M172 7.33334H186.333V21.6667H172V7.33334Z" fill="#6F6F6F"/>
        <path d="M186.333 7.33334H200.667V21.6667H186.333V7.33334Z" fill="#6F6F6F"/>
        <path d="M200.667 7.33334H215V21.6667H200.667V7.33334Z" fill="#6F6F6F"/>
        <path d="M215 7.33334H229.333V21.6667H215V7.33334Z" fill="#6F6F6F"/>
        <path d="M229.333 7.33334H243.667V21.6667H229.333V7.33334Z" fill="#6F6F6F"/>
        <path d="M243.667 7.33334H258V21.6667H243.667V7.33334Z" fill="#6F6F6F"/>
        <path d="M258 7.33334H272.333V21.6667H258V7.33334Z" fill="#6F6F6F"/>
        <path d="M272.333 7.33334H286.667V21.6667H272.333V7.33334Z" fill="#7B7B7B"/>
        <path d="M286.667 7.33334H301V21.6667H286.667V7.33334Z" fill="#7B7B7B"/>
        <path d="M286.667 -7H301V7.33334H286.667V-7Z" fill="#7B7B7B"/>
        <path d="M301 7.33334H315.333V21.6667H301V7.33334Z" fill="#7B7B7B"/>
        <path d="M315.333 7.33334H329.667V21.6667H315.333V7.33334Z" fill="#1D1D1D"/>
        <path d="M315.333 -7H329.667V7.33334H315.333V-7Z" fill="#1D1D1D"/>
        <path d="M344 36H358.333V50.3333H344V36Z" fill="#1D1D1D"/>
        <path d="M143.333 -7H157.667V7.33334H143.333V-7Z" fill="#1D1D1D"/>
        <path d="M157.667 -7H172V7.33334H157.667V-7Z" fill="#1D1D1D"/>
        <path d="M172 -7H186.333V7.33334H172V-7Z" fill="#D6D6D6"/>
        <path d="M186.333 -7H200.667V7.33334H186.333V-7Z" fill="#D6D6D6"/>
        <path d="M200.667 -7H215V7.33334H200.667V-7Z" fill="#6F6F6F"/>
        <path d="M215 -7H229.333V7.33334H215V-7Z" fill="#6F6F6F"/>
        <path d="M229.333 -7H243.667V7.33334H229.333V-7Z" fill="#6F6F6F"/>
        <path d="M243.667 -7H258V7.33334H243.667V-7Z" fill="#6F6F6F"/>
        <path d="M258 -7H272.333V7.33334H258V-7Z" fill="#7B7B7B"/>
        <path d="M272.333 -7H286.667V7.33334H272.333V-7Z" fill="#7B7B7B"/>
        <path d="M301 -7H315.333V7.33334H301V-7Z" fill="#1D1D1D"/>
        <path d="M157.667 -21.3333H172V-7H157.667V-21.3333Z" fill="#1D1D1D"/>
        <path d="M172 -21.3333H186.333V-7H172V-21.3333Z" fill="#1D1D1D"/>
        <path d="M186.333 -21.3333H200.667V-7H186.333V-21.3333Z" fill="#D6D6D6"/>
        <path d="M200.667 -21.3333H215V-7H200.667V-21.3333Z" fill="#D6D6D6"/>
        <path d="M215 -21.3333H229.333V-7H215V-21.3333Z" fill="#D6D6D6"/>
        <path d="M229.333 -21.3333H243.667V-7H229.333V-21.3333Z" fill="#D6D6D6"/>
        <path d="M243.667 -21.3333H258V-7H243.667V-21.3333Z" fill="#D6D6D6"/>
        <path d="M258 -21.3333H272.333V-7H258V-21.3333Z" fill="#7B7B7B"/>
        <path d="M272.333 -21.3333H286.667V-7H272.333V-21.3333Z" fill="#1D1D1D"/>
        <path d="M286.667 -21.3333H301V-7H286.667V-21.3333Z" fill="#1D1D1D"/>
        <path d="M301 -21.3333H315.333V-7H301V-21.3333Z" fill="#1D1D1D"/>
        <path d="M172 -35.6667H186.333V-21.3333H172V-35.6667Z" fill="#1D1D1D"/>
        <path d="M186.333 -35.6667H200.667V-21.3333H186.333V-35.6667Z" fill="#1D1D1D"/>
        <path d="M200.667 -35.6667H215V-21.3333H200.667V-35.6667Z" fill="#D6D6D6"/>
        <path d="M215 -35.6667H229.333V-21.3333H215V-35.6667Z" fill="#D6D6D6"/>
        <path d="M229.333 -35.6667H243.667V-21.3333H229.333V-35.6667Z" fill="#D6D6D6"/>
        <path d="M243.667 -35.6667H258V-21.3333H243.667V-35.6667Z" fill="#D6D6D6"/>
        <path d="M258 -35.6667H272.333V-21.3333H258V-35.6667Z" fill="#1D1D1D"/>
        <path d="M258 -50H272.333V-35.6667H258V-50Z" fill="#1D1D1D"/>
        <path d="M272.333 -35.6667H286.667V-21.3333H272.333V-35.6667Z" fill="#1D1D1D"/>
        <path d="M186.333 -50H200.667V-35.6667H186.333V-50Z" fill="#1D1D1D"/>
        <path d="M200.667 -50H215V-35.6667H200.667V-50Z" fill="#1D1D1D"/>
        <path d="M215 -50H229.333V-35.6667H215V-50Z" fill="#1D1D1D"/>
        <path d="M229.333 -50H243.667V-35.6667H229.333V-50Z" fill="#1D1D1D"/>
        <path d="M243.667 -50H258V-35.6667H243.667V-50Z" fill="#1D1D1D"/>
    </g>
</svg>
