<svg width="100" height="100" viewBox="0 0 100 100" fill="none" xmlns="http://www.w3.org/2000/svg">
    <path d="M12.5 0H15.625V3.125H12.5V0Z" fill="#A6A6A6"/>
    <path d="M15.625 0H18.75V3.125H15.625V0Z" fill="#A6A6A6"/>
    <path d="M18.75 0H21.875V3.125H18.75V0Z" fill="#A6A6A6"/>
    <path d="M21.875 0H25V3.125H21.875V0Z" fill="#A6A6A6"/>
    <path d="M25 0H28.125V3.125H25V0Z" fill="#A6A6A6"/>
    <path d="M28.125 0H31.25V3.125H28.125V0Z" fill="#A6A6A6"/>
    <path d="M31.25 0H34.375V3.125H31.25V0Z" fill="#A6A6A6"/>
    <path d="M34.375 0H37.5V3.125H34.375V0Z" fill="#A6A6A6"/>
    <path d="M37.5 0H40.625V3.125H37.5V0Z" fill="#A6A6A6"/>
    <path d="M40.625 0H43.75V3.125H40.625V0Z" fill="#A6A6A6"/>
    <path d="M43.75 0H46.875V3.125H43.75V0Z" fill="#A6A6A6"/>
    <path d="M46.875 0H50V3.125H46.875V0Z" fill="#A6A6A6"/>
    <path d="M50 0H53.125V3.125H50V0Z" fill="#A6A6A6"/>
    <path d="M53.125 0H56.25V3.125H53.125V0Z" fill="#A6A6A6"/>
    <path d="M56.25 0H59.375V3.125H56.25V0Z" fill="#A6A6A6"/>
    <path d="M59.375 0H62.5V3.125H59.375V0Z" fill="#A6A6A6"/>
    <path d="M62.5 0H65.625V3.125H62.5V0Z" fill="#A6A6A6"/>
    <path d="M65.625 0H68.75V3.125H65.625V0Z" fill="#A6A6A6"/>
    <path d="M68.75 0H71.875V3.125H68.75V0Z" fill="#A6A6A6"/>
    <path d="M71.875 0H75V3.125H71.875V0Z" fill="#A6A6A6"/>
    <path d="M75 0H78.125V3.125H75V0Z" fill="#A6A6A6"/>
    <path d="M78.125 0H81.25V3.125H78.125V0Z" fill="#A6A6A6"/>
    <path d="M81.25 0H84.375V3.125H81.25V0Z" fill="#A6A6A6"/>
    <path d="M84.375 0H87.5V3.125H84.375V0Z" fill="#A6A6A6"/>
    <path d="M12.5 3.125H15.625V6.25H12.5V3.125Z" fill="#A6A6A6"/>
    <path d="M15.625 3.125H18.75V6.25H15.625V3.125Z" fill="#A6A6A6"/>
    <path d="M18.75 3.125H21.875V6.25H18.75V3.125Z" fill="#A6A6A6"/>
    <path d="M21.875 3.125H25V6.25H21.875V3.125Z" fill="#A6A6A6"/>
    <path d="M25 3.125H28.125V6.25H25V3.125Z" fill="#A6A6A6"/>
    <path d="M28.125 3.125H31.25V6.25H28.125V3.125Z" fill="#A6A6A6"/>
    <path d="M31.25 3.125H34.375V6.25H31.25V3.125Z" fill="#A6A6A6"/>
    <path d="M34.375 3.125H37.5V6.25H34.375V3.125Z" fill="#A6A6A6"/>
    <path d="M37.5 3.125H40.625V6.25H37.5V3.125Z" fill="#A6A6A6"/>
    <path d="M40.625 3.125H43.75V6.25H40.625V3.125Z" fill="#A6A6A6"/>
    <path d="M43.75 3.125H46.875V6.25H43.75V3.125Z" fill="#A6A6A6"/>
    <path d="M46.875 3.125H50V6.25H46.875V3.125Z" fill="#A6A6A6"/>
    <path d="M50 3.125H53.125V6.25H50V3.125Z" fill="#A6A6A6"/>
    <path d="M53.125 3.125H56.25V6.25H53.125V3.125Z" fill="#A6A6A6"/>
    <path d="M56.25 3.125H59.375V6.25H56.25V3.125Z" fill="#A6A6A6"/>
    <path d="M59.375 3.125H62.5V6.25H59.375V3.125Z" fill="#A6A6A6"/>
    <path d="M62.5 3.125H65.625V6.25H62.5V3.125Z" fill="#A6A6A6"/>
    <path d="M65.625 3.125H68.75V6.25H65.625V3.125Z" fill="#A6A6A6"/>
    <path d="M68.75 3.125H71.875V6.25H68.75V3.125Z" fill="#A6A6A6"/>
    <path d="M71.875 3.125H75V6.25H71.875V3.125Z" fill="#A6A6A6"/>
    <path d="M75 3.125H78.125V6.25H75V3.125Z" fill="#A6A6A6"/>
    <path d="M78.125 3.125H81.25V6.25H78.125V3.125Z" fill="#A6A6A6"/>
    <path d="M81.25 3.125H84.375V6.25H81.25V3.125Z" fill="#A6A6A6"/>
    <path d="M84.375 3.125H87.5V6.25H84.375V3.125Z" fill="#A6A6A6"/>
    <path d="M6.25 6.25H9.375V9.375H6.25V6.25Z" fill="#A6A6A6"/>
    <path d="M9.375 6.25H12.5V9.375H9.375V6.25Z" fill="#A6A6A6"/>
    <path d="M12.5 6.25H15.625V9.375H12.5V6.25Z" fill="#D9D9D9"/>
    <path d="M15.625 6.25H18.75V9.375H15.625V6.25Z" fill="#D9D9D9"/>
    <path d="M18.75 6.25H21.875V9.375H18.75V6.25Z" fill="#D9D9D9"/>
    <path d="M21.875 6.25H25V9.375H21.875V6.25Z" fill="#D9D9D9"/>
    <path d="M25 6.25H28.125V9.375H25V6.25Z" fill="#D9D9D9"/>
    <path d="M28.125 6.25H31.25V9.375H28.125V6.25Z" fill="#D9D9D9"/>
    <path d="M31.25 6.25H34.375V9.375H31.25V6.25Z" fill="#D9D9D9"/>
    <path d="M34.375 6.25H37.5V9.375H34.375V6.25Z" fill="#D9D9D9"/>
    <path d="M37.5 6.25H40.625V9.375H37.5V6.25Z" fill="#D9D9D9"/>
    <path d="M40.625 6.25H43.75V9.375H40.625V6.25Z" fill="#D9D9D9"/>
    <path d="M43.75 6.25H46.875V9.375H43.75V6.25Z" fill="#D9D9D9"/>
    <path d="M46.875 6.25H50V9.375H46.875V6.25Z" fill="#D9D9D9"/>
    <path d="M50 6.25H53.125V9.375H50V6.25Z" fill="#D9D9D9"/>
    <path d="M53.125 6.25H56.25V9.375H53.125V6.25Z" fill="#D9D9D9"/>
    <path d="M56.25 6.25H59.375V9.375H56.25V6.25Z" fill="#D9D9D9"/>
    <path d="M59.375 6.25H62.5V9.375H59.375V6.25Z" fill="#D9D9D9"/>
    <path d="M62.5 6.25H65.625V9.375H62.5V6.25Z" fill="#D9D9D9"/>
    <path d="M65.625 6.25H68.75V9.375H65.625V6.25Z" fill="#D9D9D9"/>
    <path d="M68.75 6.25H71.875V9.375H68.75V6.25Z" fill="#D9D9D9"/>
    <path d="M71.875 6.25H75V9.375H71.875V6.25Z" fill="#D9D9D9"/>
    <path d="M75 6.25H78.125V9.375H75V6.25Z" fill="#D9D9D9"/>
    <path d="M78.125 6.25H81.25V9.375H78.125V6.25Z" fill="#D9D9D9"/>
    <path d="M81.25 6.25H84.375V9.375H81.25V6.25Z" fill="#D9D9D9"/>
    <path d="M84.375 6.25H87.5V9.375H84.375V6.25Z" fill="#D9D9D9"/>
    <path d="M87.5 6.25H90.625V9.375H87.5V6.25Z" fill="#A6A6A6"/>
    <path d="M90.625 6.25H93.75V9.375H90.625V6.25Z" fill="#A6A6A6"/>
    <path d="M6.25 9.375H9.375V12.5H6.25V9.375Z" fill="#A6A6A6"/>
    <path d="M9.375 9.375H12.5V12.5H9.375V9.375Z" fill="#A6A6A6"/>
    <path d="M12.5 9.375H15.625V12.5H12.5V9.375Z" fill="#D9D9D9"/>
    <path d="M15.625 9.375H18.75V12.5H15.625V9.375Z" fill="#D9D9D9"/>
    <path d="M18.75 9.375H21.875V12.5H18.75V9.375Z" fill="#D9D9D9"/>
    <path d="M21.875 9.375H25V12.5H21.875V9.375Z" fill="#D9D9D9"/>
    <path d="M25 9.375H28.125V12.5H25V9.375Z" fill="#D9D9D9"/>
    <path d="M28.125 9.375H31.25V12.5H28.125V9.375Z" fill="#D9D9D9"/>
    <path d="M31.25 9.375H34.375V12.5H31.25V9.375Z" fill="#D9D9D9"/>
    <path d="M34.375 9.375H37.5V12.5H34.375V9.375Z" fill="#D9D9D9"/>
    <path d="M37.5 9.375H40.625V12.5H37.5V9.375Z" fill="#D9D9D9"/>
    <path d="M40.625 9.375H43.75V12.5H40.625V9.375Z" fill="#D9D9D9"/>
    <path d="M43.75 9.375H46.875V12.5H43.75V9.375Z" fill="#D9D9D9"/>
    <path d="M46.875 9.375H50V12.5H46.875V9.375Z" fill="#D9D9D9"/>
    <path d="M50 9.375H53.125V12.5H50V9.375Z" fill="#D9D9D9"/>
    <path d="M53.125 9.375H56.25V12.5H53.125V9.375Z" fill="#D9D9D9"/>
    <path d="M56.25 9.375H59.375V12.5H56.25V9.375Z" fill="#D9D9D9"/>
    <path d="M59.375 9.375H62.5V12.5H59.375V9.375Z" fill="#D9D9D9"/>
    <path d="M62.5 9.375H65.625V12.5H62.5V9.375Z" fill="#D9D9D9"/>
    <path d="M65.625 9.375H68.75V12.5H65.625V9.375Z" fill="#D9D9D9"/>
    <path d="M68.75 9.375H71.875V12.5H68.75V9.375Z" fill="#D9D9D9"/>
    <path d="M71.875 9.375H75V12.5H71.875V9.375Z" fill="#D9D9D9"/>
    <path d="M75 9.375H78.125V12.5H75V9.375Z" fill="#D9D9D9"/>
    <path d="M78.125 9.375H81.25V12.5H78.125V9.375Z" fill="#D9D9D9"/>
    <path d="M81.25 9.375H84.375V12.5H81.25V9.375Z" fill="#D9D9D9"/>
    <path d="M84.375 9.375H87.5V12.5H84.375V9.375Z" fill="#D9D9D9"/>
    <path d="M87.5 9.375H90.625V12.5H87.5V9.375Z" fill="#A6A6A6"/>
    <path d="M90.625 9.375H93.75V12.5H90.625V9.375Z" fill="#A6A6A6"/>
    <path d="M0 12.5H3.125V15.625H0V12.5Z" fill="#A6A6A6"/>
    <path d="M3.125 12.5H6.25V15.625H3.125V12.5Z" fill="#A6A6A6"/>
    <path d="M6.25 12.5H9.375V15.625H6.25V12.5Z" fill="#D9D9D9"/>
    <path d="M9.375 12.5H12.5V15.625H9.375V12.5Z" fill="#D9D9D9"/>
    <path d="M12.5 12.5H15.625V15.625H12.5V12.5Z" fill="#D9D9D9"/>
    <path d="M15.625 12.5H18.75V15.625H15.625V12.5Z" fill="#D9D9D9"/>
    <path d="M18.75 12.5H21.875V15.625H18.75V12.5Z" fill="#D9D9D9"/>
    <path d="M21.875 12.5H25V15.625H21.875V12.5Z" fill="#D9D9D9"/>
    <path d="M25 12.5H28.125V15.625H25V12.5Z" fill="#D9D9D9"/>
    <path d="M28.125 12.5H31.25V15.625H28.125V12.5Z" fill="#D9D9D9"/>
    <path d="M31.25 12.5H34.375V15.625H31.25V12.5Z" fill="#D9D9D9"/>
    <path d="M34.375 12.5H37.5V15.625H34.375V12.5Z" fill="#D9D9D9"/>
    <path d="M37.5 12.5H40.625V15.625H37.5V12.5Z" fill="#D9D9D9"/>
    <path d="M40.625 12.5H43.75V15.625H40.625V12.5Z" fill="#D9D9D9"/>
    <path d="M43.75 12.5H46.875V15.625H43.75V12.5Z" fill="#D9D9D9"/>
    <path d="M46.875 12.5H50V15.625H46.875V12.5Z" fill="#D9D9D9"/>
    <path d="M50 12.5H53.125V15.625H50V12.5Z" fill="#D9D9D9"/>
    <path d="M53.125 12.5H56.25V15.625H53.125V12.5Z" fill="#D9D9D9"/>
    <path d="M56.25 12.5H59.375V15.625H56.25V12.5Z" fill="#D9D9D9"/>
    <path d="M59.375 12.5H62.5V15.625H59.375V12.5Z" fill="#D9D9D9"/>
    <path d="M62.5 12.5H65.625V15.625H62.5V12.5Z" fill="#D9D9D9"/>
    <path d="M65.625 12.5H68.75V15.625H65.625V12.5Z" fill="#D9D9D9"/>
    <path d="M68.75 12.5H71.875V15.625H68.75V12.5Z" fill="#D9D9D9"/>
    <path d="M71.875 12.5H75V15.625H71.875V12.5Z" fill="#D9D9D9"/>
    <path d="M75 12.5H78.125V15.625H75V12.5Z" fill="#D9D9D9"/>
    <path d="M78.125 12.5H81.25V15.625H78.125V12.5Z" fill="#D9D9D9"/>
    <path d="M81.25 12.5H84.375V15.625H81.25V12.5Z" fill="#D9D9D9"/>
    <path d="M84.375 12.5H87.5V15.625H84.375V12.5Z" fill="#D9D9D9"/>
    <path d="M87.5 12.5H90.625V15.625H87.5V12.5Z" fill="#D9D9D9"/>
    <path d="M90.625 12.5H93.75V15.625H90.625V12.5Z" fill="#D9D9D9"/>
    <path d="M93.75 12.5H96.875V15.625H93.75V12.5Z" fill="#A6A6A6"/>
    <path d="M96.875 12.5H100V15.625H96.875V12.5Z" fill="#A6A6A6"/>
    <path d="M0 15.625H3.125V18.75H0V15.625Z" fill="#A6A6A6"/>
    <path d="M3.125 15.625H6.25V18.75H3.125V15.625Z" fill="#A6A6A6"/>
    <path d="M6.25 15.625H9.375V18.75H6.25V15.625Z" fill="#D9D9D9"/>
    <path d="M9.375 15.625H12.5V18.75H9.375V15.625Z" fill="#D9D9D9"/>
    <path d="M12.5 15.625H15.625V18.75H12.5V15.625Z" fill="#D9D9D9"/>
    <path d="M15.625 15.625H18.75V18.75H15.625V15.625Z" fill="#D9D9D9"/>
    <path d="M18.75 15.625H21.875V18.75H18.75V15.625Z" fill="#D9D9D9"/>
    <path d="M21.875 15.625H25V18.75H21.875V15.625Z" fill="#D9D9D9"/>
    <path d="M25 15.625H28.125V18.75H25V15.625Z" fill="#D9D9D9"/>
    <path d="M28.125 15.625H31.25V18.75H28.125V15.625Z" fill="#D9D9D9"/>
    <path d="M31.25 15.625H34.375V18.75H31.25V15.625Z" fill="#D9D9D9"/>
    <path d="M34.375 15.625H37.5V18.75H34.375V15.625Z" fill="#D9D9D9"/>
    <path d="M37.5 15.625H40.625V18.75H37.5V15.625Z" fill="#D9D9D9"/>
    <path d="M40.625 15.625H43.75V18.75H40.625V15.625Z" fill="#D9D9D9"/>
    <path d="M43.75 15.625H46.875V18.75H43.75V15.625Z" fill="#D9D9D9"/>
    <path d="M46.875 15.625H50V18.75H46.875V15.625Z" fill="#D9D9D9"/>
    <path d="M50 15.625H53.125V18.75H50V15.625Z" fill="#D9D9D9"/>
    <path d="M53.125 15.625H56.25V18.75H53.125V15.625Z" fill="#D9D9D9"/>
    <path d="M56.25 15.625H59.375V18.75H56.25V15.625Z" fill="#D9D9D9"/>
    <path d="M59.375 15.625H62.5V18.75H59.375V15.625Z" fill="#D9D9D9"/>
    <path d="M62.5 15.625H65.625V18.75H62.5V15.625Z" fill="#D9D9D9"/>
    <path d="M65.625 15.625H68.75V18.75H65.625V15.625Z" fill="#D9D9D9"/>
    <path d="M68.75 15.625H71.875V18.75H68.75V15.625Z" fill="#D9D9D9"/>
    <path d="M71.875 15.625H75V18.75H71.875V15.625Z" fill="#D9D9D9"/>
    <path d="M75 15.625H78.125V18.75H75V15.625Z" fill="#D9D9D9"/>
    <path d="M78.125 15.625H81.25V18.75H78.125V15.625Z" fill="#D9D9D9"/>
    <path d="M81.25 15.625H84.375V18.75H81.25V15.625Z" fill="#D9D9D9"/>
    <path d="M84.375 15.625H87.5V18.75H84.375V15.625Z" fill="#D9D9D9"/>
    <path d="M87.5 15.625H90.625V18.75H87.5V15.625Z" fill="#D9D9D9"/>
    <path d="M90.625 15.625H93.75V18.75H90.625V15.625Z" fill="#D9D9D9"/>
    <path d="M93.75 15.625H96.875V18.75H93.75V15.625Z" fill="#A6A6A6"/>
    <path d="M96.875 15.625H100V18.75H96.875V15.625Z" fill="#A6A6A6"/>
    <path d="M0 18.75H3.125V21.875H0V18.75Z" fill="#A6A6A6"/>
    <path d="M3.125 18.75H6.25V21.875H3.125V18.75Z" fill="#A6A6A6"/>
    <path d="M6.25 18.75H9.375V21.875H6.25V18.75Z" fill="#D9D9D9"/>
    <path d="M9.375 18.75H12.5V21.875H9.375V18.75Z" fill="#D9D9D9"/>
    <path d="M12.5 18.75H15.625V21.875H12.5V18.75Z" fill="#D9D9D9"/>
    <path d="M15.625 18.75H18.75V21.875H15.625V18.75Z" fill="#D9D9D9"/>
    <path d="M18.75 18.75H21.875V21.875H18.75V18.75Z" fill="#D9D9D9"/>
    <path d="M21.875 18.75H25V21.875H21.875V18.75Z" fill="#D9D9D9"/>
    <path d="M25 18.75H28.125V21.875H25V18.75Z" fill="#D9D9D9"/>
    <path d="M28.125 18.75H31.25V21.875H28.125V18.75Z" fill="#D9D9D9"/>
    <path d="M31.25 18.75H34.375V21.875H31.25V18.75Z" fill="#D9D9D9"/>
    <path d="M34.375 18.75H37.5V21.875H34.375V18.75Z" fill="#D9D9D9"/>
    <path d="M37.5 18.75H40.625V21.875H37.5V18.75Z" fill="#D9D9D9"/>
    <path d="M40.625 18.75H43.75V21.875H40.625V18.75Z" fill="#D9D9D9"/>
    <path d="M43.75 18.75H46.875V21.875H43.75V18.75Z" fill="#D9D9D9"/>
    <path d="M46.875 18.75H50V21.875H46.875V18.75Z" fill="#D9D9D9"/>
    <path d="M50 18.75H53.125V21.875H50V18.75Z" fill="#D9D9D9"/>
    <path d="M53.125 18.75H56.25V21.875H53.125V18.75Z" fill="#D9D9D9"/>
    <path d="M56.25 18.75H59.375V21.875H56.25V18.75Z" fill="#D9D9D9"/>
    <path d="M59.375 18.75H62.5V21.875H59.375V18.75Z" fill="#D9D9D9"/>
    <path d="M62.5 18.75H65.625V21.875H62.5V18.75Z" fill="#D9D9D9"/>
    <path d="M65.625 18.75H68.75V21.875H65.625V18.75Z" fill="#D9D9D9"/>
    <path d="M68.75 18.75H71.875V21.875H68.75V18.75Z" fill="#D9D9D9"/>
    <path d="M71.875 18.75H75V21.875H71.875V18.75Z" fill="#D9D9D9"/>
    <path d="M75 18.75H78.125V21.875H75V18.75Z" fill="#D9D9D9"/>
    <path d="M78.125 18.75H81.25V21.875H78.125V18.75Z" fill="#D9D9D9"/>
    <path d="M81.25 18.75H84.375V21.875H81.25V18.75Z" fill="#D9D9D9"/>
    <path d="M84.375 18.75H87.5V21.875H84.375V18.75Z" fill="#D9D9D9"/>
    <path d="M87.5 18.75H90.625V21.875H87.5V18.75Z" fill="#D9D9D9"/>
    <path d="M90.625 18.75H93.75V21.875H90.625V18.75Z" fill="#D9D9D9"/>
    <path d="M93.75 18.75H96.875V21.875H93.75V18.75Z" fill="#A6A6A6"/>
    <path d="M96.875 18.75H100V21.875H96.875V18.75Z" fill="#A6A6A6"/>
    <path d="M0 21.875H3.125V25H0V21.875Z" fill="#A6A6A6"/>
    <path d="M3.125 21.875H6.25V25H3.125V21.875Z" fill="#A6A6A6"/>
    <path d="M6.25 21.875H9.375V25H6.25V21.875Z" fill="#D9D9D9"/>
    <path d="M9.375 21.875H12.5V25H9.375V21.875Z" fill="#D9D9D9"/>
    <path d="M12.5 21.875H15.625V25H12.5V21.875Z" fill="#D9D9D9"/>
    <path d="M15.625 21.875H18.75V25H15.625V21.875Z" fill="#D9D9D9"/>
    <path d="M18.75 21.875H21.875V25H18.75V21.875Z" fill="#D9D9D9"/>
    <path d="M21.875 21.875H25V25H21.875V21.875Z" fill="#D9D9D9"/>
    <path d="M25 21.875H28.125V25H25V21.875Z" fill="#D9D9D9"/>
    <path d="M28.125 21.875H31.25V25H28.125V21.875Z" fill="#D9D9D9"/>
    <path d="M31.25 21.875H34.375V25H31.25V21.875Z" fill="#D9D9D9"/>
    <path d="M34.375 21.875H37.5V25H34.375V21.875Z" fill="#D9D9D9"/>
    <path d="M37.5 21.875H40.625V25H37.5V21.875Z" fill="#D9D9D9"/>
    <path d="M40.625 21.875H43.75V25H40.625V21.875Z" fill="#D9D9D9"/>
    <path d="M43.75 21.875H46.875V25H43.75V21.875Z" fill="#D9D9D9"/>
    <path d="M46.875 21.875H50V25H46.875V21.875Z" fill="white"/>
    <path d="M50 21.875H53.125V25H50V21.875Z" fill="white"/>
    <path d="M53.125 21.875H56.25V25H53.125V21.875Z" fill="#D9D9D9"/>
    <path d="M56.25 21.875H59.375V25H56.25V21.875Z" fill="#D9D9D9"/>
    <path d="M59.375 21.875H62.5V25H59.375V21.875Z" fill="#D9D9D9"/>
    <path d="M62.5 21.875H65.625V25H62.5V21.875Z" fill="#D9D9D9"/>
    <path d="M65.625 21.875H68.75V25H65.625V21.875Z" fill="#D9D9D9"/>
    <path d="M68.75 21.875H71.875V25H68.75V21.875Z" fill="#D9D9D9"/>
    <path d="M71.875 21.875H75V25H71.875V21.875Z" fill="#D9D9D9"/>
    <path d="M75 21.875H78.125V25H75V21.875Z" fill="#D9D9D9"/>
    <path d="M78.125 21.875H81.25V25H78.125V21.875Z" fill="#D9D9D9"/>
    <path d="M81.25 21.875H84.375V25H81.25V21.875Z" fill="#D9D9D9"/>
    <path d="M84.375 21.875H87.5V25H84.375V21.875Z" fill="#D9D9D9"/>
    <path d="M87.5 21.875H90.625V25H87.5V21.875Z" fill="#D9D9D9"/>
    <path d="M90.625 21.875H93.75V25H90.625V21.875Z" fill="#D9D9D9"/>
    <path d="M93.75 21.875H96.875V25H93.75V21.875Z" fill="#A6A6A6"/>
    <path d="M96.875 21.875H100V25H96.875V21.875Z" fill="#A6A6A6"/>
    <path d="M0 25H3.125V28.125H0V25Z" fill="#A6A6A6"/>
    <path d="M3.125 25H6.25V28.125H3.125V25Z" fill="#A6A6A6"/>
    <path d="M6.25 25H9.375V28.125H6.25V25Z" fill="#D9D9D9"/>
    <path d="M9.375 25H12.5V28.125H9.375V25Z" fill="#D9D9D9"/>
    <path d="M12.5 25H15.625V28.125H12.5V25Z" fill="#D9D9D9"/>
    <path d="M15.625 25H18.75V28.125H15.625V25Z" fill="#D9D9D9"/>
    <path d="M18.75 25H21.875V28.125H18.75V25Z" fill="#D9D9D9"/>
    <path d="M21.875 25H25V28.125H21.875V25Z" fill="#D9D9D9"/>
    <path d="M25 25H28.125V28.125H25V25Z" fill="#D9D9D9"/>
    <path d="M28.125 25H31.25V28.125H28.125V25Z" fill="#D9D9D9"/>
    <path d="M31.25 25H34.375V28.125H31.25V25Z" fill="#D9D9D9"/>
    <path d="M34.375 25H37.5V28.125H34.375V25Z" fill="#D9D9D9"/>
    <path d="M37.5 25H40.625V28.125H37.5V25Z" fill="#D9D9D9"/>
    <path d="M40.625 25H43.75V28.125H40.625V25Z" fill="#D9D9D9"/>
    <path d="M43.75 25H46.875V28.125H43.75V25Z" fill="white"/>
    <path d="M46.875 25H50V28.125H46.875V25Z" fill="white"/>
    <path d="M50 25H53.125V28.125H50V25Z" fill="white"/>
    <path d="M53.125 25H56.25V28.125H53.125V25Z" fill="white"/>
    <path d="M56.25 25H59.375V28.125H56.25V25Z" fill="#D9D9D9"/>
    <path d="M59.375 25H62.5V28.125H59.375V25Z" fill="#D9D9D9"/>
    <path d="M62.5 25H65.625V28.125H62.5V25Z" fill="#D9D9D9"/>
    <path d="M65.625 25H68.75V28.125H65.625V25Z" fill="#D9D9D9"/>
    <path d="M68.75 25H71.875V28.125H68.75V25Z" fill="#D9D9D9"/>
    <path d="M71.875 25H75V28.125H71.875V25Z" fill="#D9D9D9"/>
    <path d="M75 25H78.125V28.125H75V25Z" fill="#D9D9D9"/>
    <path d="M78.125 25H81.25V28.125H78.125V25Z" fill="#D9D9D9"/>
    <path d="M81.25 25H84.375V28.125H81.25V25Z" fill="#D9D9D9"/>
    <path d="M84.375 25H87.5V28.125H84.375V25Z" fill="#D9D9D9"/>
    <path d="M87.5 25H90.625V28.125H87.5V25Z" fill="#D9D9D9"/>
    <path d="M90.625 25H93.75V28.125H90.625V25Z" fill="#D9D9D9"/>
    <path d="M93.75 25H96.875V28.125H93.75V25Z" fill="#A6A6A6"/>
    <path d="M96.875 25H100V28.125H96.875V25Z" fill="#A6A6A6"/>
    <path d="M0 28.125H3.125V31.25H0V28.125Z" fill="#A6A6A6"/>
    <path d="M3.125 28.125H6.25V31.25H3.125V28.125Z" fill="#A6A6A6"/>
    <path d="M6.25 28.125H9.375V31.25H6.25V28.125Z" fill="#D9D9D9"/>
    <path d="M9.375 28.125H12.5V31.25H9.375V28.125Z" fill="#D9D9D9"/>
    <path d="M12.5 28.125H15.625V31.25H12.5V28.125Z" fill="#D9D9D9"/>
    <path d="M15.625 28.125H18.75V31.25H15.625V28.125Z" fill="#D9D9D9"/>
    <path d="M18.75 28.125H21.875V31.25H18.75V28.125Z" fill="#D9D9D9"/>
    <path d="M21.875 28.125H25V31.25H21.875V28.125Z" fill="#D9D9D9"/>
    <path d="M25 28.125H28.125V31.25H25V28.125Z" fill="#D9D9D9"/>
    <path d="M28.125 28.125H31.25V31.25H28.125V28.125Z" fill="#D9D9D9"/>
    <path d="M31.25 28.125H34.375V31.25H31.25V28.125Z" fill="#D9D9D9"/>
    <path d="M34.375 28.125H37.5V31.25H34.375V28.125Z" fill="#D9D9D9"/>
    <path d="M37.5 28.125H40.625V31.25H37.5V28.125Z" fill="#D9D9D9"/>
    <path d="M40.625 28.125H43.75V31.25H40.625V28.125Z" fill="#D9D9D9"/>
    <path d="M43.75 28.125H46.875V31.25H43.75V28.125Z" fill="white"/>
    <path d="M46.875 28.125H50V31.25H46.875V28.125Z" fill="white"/>
    <path d="M50 28.125H53.125V31.25H50V28.125Z" fill="white"/>
    <path d="M53.125 28.125H56.25V31.25H53.125V28.125Z" fill="white"/>
    <path d="M56.25 28.125H59.375V31.25H56.25V28.125Z" fill="#D9D9D9"/>
    <path d="M59.375 28.125H62.5V31.25H59.375V28.125Z" fill="#D9D9D9"/>
    <path d="M62.5 28.125H65.625V31.25H62.5V28.125Z" fill="#D9D9D9"/>
    <path d="M65.625 28.125H68.75V31.25H65.625V28.125Z" fill="#D9D9D9"/>
    <path d="M68.75 28.125H71.875V31.25H68.75V28.125Z" fill="#D9D9D9"/>
    <path d="M71.875 28.125H75V31.25H71.875V28.125Z" fill="#D9D9D9"/>
    <path d="M75 28.125H78.125V31.25H75V28.125Z" fill="#D9D9D9"/>
    <path d="M78.125 28.125H81.25V31.25H78.125V28.125Z" fill="#D9D9D9"/>
    <path d="M81.25 28.125H84.375V31.25H81.25V28.125Z" fill="#D9D9D9"/>
    <path d="M84.375 28.125H87.5V31.25H84.375V28.125Z" fill="#D9D9D9"/>
    <path d="M87.5 28.125H90.625V31.25H87.5V28.125Z" fill="#D9D9D9"/>
    <path d="M90.625 28.125H93.75V31.25H90.625V28.125Z" fill="#D9D9D9"/>
    <path d="M93.75 28.125H96.875V31.25H93.75V28.125Z" fill="#A6A6A6"/>
    <path d="M96.875 28.125H100V31.25H96.875V28.125Z" fill="#A6A6A6"/>
    <path d="M0 31.25H3.125V34.375H0V31.25Z" fill="#A6A6A6"/>
    <path d="M3.125 31.25H6.25V34.375H3.125V31.25Z" fill="#A6A6A6"/>
    <path d="M6.25 31.25H9.375V34.375H6.25V31.25Z" fill="#D9D9D9"/>
    <path d="M9.375 31.25H12.5V34.375H9.375V31.25Z" fill="#D9D9D9"/>
    <path d="M12.5 31.25H15.625V34.375H12.5V31.25Z" fill="#D9D9D9"/>
    <path d="M15.625 31.25H18.75V34.375H15.625V31.25Z" fill="#D9D9D9"/>
    <path d="M18.75 31.25H21.875V34.375H18.75V31.25Z" fill="#D9D9D9"/>
    <path d="M21.875 31.25H25V34.375H21.875V31.25Z" fill="#D9D9D9"/>
    <path d="M25 31.25H28.125V34.375H25V31.25Z" fill="#D9D9D9"/>
    <path d="M28.125 31.25H31.25V34.375H28.125V31.25Z" fill="#D9D9D9"/>
    <path d="M31.25 31.25H34.375V34.375H31.25V31.25Z" fill="#D9D9D9"/>
    <path d="M34.375 31.25H37.5V34.375H34.375V31.25Z" fill="#D9D9D9"/>
    <path d="M37.5 31.25H40.625V34.375H37.5V31.25Z" fill="#D9D9D9"/>
    <path d="M40.625 31.25H43.75V34.375H40.625V31.25Z" fill="#D9D9D9"/>
    <path d="M43.75 31.25H46.875V34.375H43.75V31.25Z" fill="white"/>
    <path d="M46.875 31.25H50V34.375H46.875V31.25Z" fill="white"/>
    <path d="M50 31.25H53.125V34.375H50V31.25Z" fill="white"/>
    <path d="M53.125 31.25H56.25V34.375H53.125V31.25Z" fill="white"/>
    <path d="M56.25 31.25H59.375V34.375H56.25V31.25Z" fill="#D9D9D9"/>
    <path d="M59.375 31.25H62.5V34.375H59.375V31.25Z" fill="#D9D9D9"/>
    <path d="M62.5 31.25H65.625V34.375H62.5V31.25Z" fill="#D9D9D9"/>
    <path d="M65.625 31.25H68.75V34.375H65.625V31.25Z" fill="#D9D9D9"/>
    <path d="M68.75 31.25H71.875V34.375H68.75V31.25Z" fill="#D9D9D9"/>
    <path d="M71.875 31.25H75V34.375H71.875V31.25Z" fill="#D9D9D9"/>
    <path d="M75 31.25H78.125V34.375H75V31.25Z" fill="#D9D9D9"/>
    <path d="M78.125 31.25H81.25V34.375H78.125V31.25Z" fill="#D9D9D9"/>
    <path d="M81.25 31.25H84.375V34.375H81.25V31.25Z" fill="#D9D9D9"/>
    <path d="M84.375 31.25H87.5V34.375H84.375V31.25Z" fill="#D9D9D9"/>
    <path d="M87.5 31.25H90.625V34.375H87.5V31.25Z" fill="#D9D9D9"/>
    <path d="M90.625 31.25H93.75V34.375H90.625V31.25Z" fill="#D9D9D9"/>
    <path d="M93.75 31.25H96.875V34.375H93.75V31.25Z" fill="#A6A6A6"/>
    <path d="M96.875 31.25H100V34.375H96.875V31.25Z" fill="#A6A6A6"/>
    <path d="M0 34.375H3.125V37.5H0V34.375Z" fill="#A6A6A6"/>
    <path d="M3.125 34.375H6.25V37.5H3.125V34.375Z" fill="#A6A6A6"/>
    <path d="M6.25 34.375H9.375V37.5H6.25V34.375Z" fill="#D9D9D9"/>
    <path d="M9.375 34.375H12.5V37.5H9.375V34.375Z" fill="#D9D9D9"/>
    <path d="M12.5 34.375H15.625V37.5H12.5V34.375Z" fill="#D9D9D9"/>
    <path d="M15.625 34.375H18.75V37.5H15.625V34.375Z" fill="#D9D9D9"/>
    <path d="M18.75 34.375H21.875V37.5H18.75V34.375Z" fill="#D9D9D9"/>
    <path d="M21.875 34.375H25V37.5H21.875V34.375Z" fill="#D9D9D9"/>
    <path d="M25 34.375H28.125V37.5H25V34.375Z" fill="#D9D9D9"/>
    <path d="M28.125 34.375H31.25V37.5H28.125V34.375Z" fill="#D9D9D9"/>
    <path d="M31.25 34.375H34.375V37.5H31.25V34.375Z" fill="#D9D9D9"/>
    <path d="M34.375 34.375H37.5V37.5H34.375V34.375Z" fill="#D9D9D9"/>
    <path d="M37.5 34.375H40.625V37.5H37.5V34.375Z" fill="#D9D9D9"/>
    <path d="M40.625 34.375H43.75V37.5H40.625V34.375Z" fill="#D9D9D9"/>
    <path d="M43.75 34.375H46.875V37.5H43.75V34.375Z" fill="white"/>
    <path d="M46.875 34.375H50V37.5H46.875V34.375Z" fill="white"/>
    <path d="M50 34.375H53.125V37.5H50V34.375Z" fill="white"/>
    <path d="M53.125 34.375H56.25V37.5H53.125V34.375Z" fill="white"/>
    <path d="M56.25 34.375H59.375V37.5H56.25V34.375Z" fill="#D9D9D9"/>
    <path d="M59.375 34.375H62.5V37.5H59.375V34.375Z" fill="#D9D9D9"/>
    <path d="M62.5 34.375H65.625V37.5H62.5V34.375Z" fill="#D9D9D9"/>
    <path d="M65.625 34.375H68.75V37.5H65.625V34.375Z" fill="#D9D9D9"/>
    <path d="M68.75 34.375H71.875V37.5H68.75V34.375Z" fill="#D9D9D9"/>
    <path d="M71.875 34.375H75V37.5H71.875V34.375Z" fill="#D9D9D9"/>
    <path d="M75 34.375H78.125V37.5H75V34.375Z" fill="#D9D9D9"/>
    <path d="M78.125 34.375H81.25V37.5H78.125V34.375Z" fill="#D9D9D9"/>
    <path d="M81.25 34.375H84.375V37.5H81.25V34.375Z" fill="#D9D9D9"/>
    <path d="M84.375 34.375H87.5V37.5H84.375V34.375Z" fill="#D9D9D9"/>
    <path d="M87.5 34.375H90.625V37.5H87.5V34.375Z" fill="#D9D9D9"/>
    <path d="M90.625 34.375H93.75V37.5H90.625V34.375Z" fill="#D9D9D9"/>
    <path d="M93.75 34.375H96.875V37.5H93.75V34.375Z" fill="#A6A6A6"/>
    <path d="M96.875 34.375H100V37.5H96.875V34.375Z" fill="#A6A6A6"/>
    <path d="M0 75H3.125V78.125H0V75Z" fill="#A6A6A6"/>
    <path d="M3.125 75H6.25V78.125H3.125V75Z" fill="#A6A6A6"/>
    <path d="M6.25 75H9.375V78.125H6.25V75Z" fill="#D9D9D9"/>
    <path d="M9.375 75H12.5V78.125H9.375V75Z" fill="#D9D9D9"/>
    <path d="M12.5 75H15.625V78.125H12.5V75Z" fill="#D9D9D9"/>
    <path d="M15.625 75H18.75V78.125H15.625V75Z" fill="#D9D9D9"/>
    <path d="M18.75 75H21.875V78.125H18.75V75Z" fill="#D9D9D9"/>
    <path d="M21.875 75H25V78.125H21.875V75Z" fill="#D9D9D9"/>
    <path d="M25 75H28.125V78.125H25V75Z" fill="#D9D9D9"/>
    <path d="M28.125 75H31.25V78.125H28.125V75Z" fill="#D9D9D9"/>
    <path d="M31.25 75H34.375V78.125H31.25V75Z" fill="#D9D9D9"/>
    <path d="M34.375 75H37.5V78.125H34.375V75Z" fill="#D9D9D9"/>
    <path d="M37.5 75H40.625V78.125H37.5V75Z" fill="#D9D9D9"/>
    <path d="M40.625 75H43.75V78.125H40.625V75Z" fill="#D9D9D9"/>
    <path d="M43.75 75H46.875V78.125H43.75V75Z" fill="#D9D9D9"/>
    <path d="M46.875 75H50V78.125H46.875V75Z" fill="white"/>
    <path d="M50 75H53.125V78.125H50V75Z" fill="white"/>
    <path d="M53.125 75H56.25V78.125H53.125V75Z" fill="#D9D9D9"/>
    <path d="M56.25 75H59.375V78.125H56.25V75Z" fill="#D9D9D9"/>
    <path d="M59.375 75H62.5V78.125H59.375V75Z" fill="#D9D9D9"/>
    <path d="M62.5 75H65.625V78.125H62.5V75Z" fill="#D9D9D9"/>
    <path d="M65.625 75H68.75V78.125H65.625V75Z" fill="#D9D9D9"/>
    <path d="M68.75 75H71.875V78.125H68.75V75Z" fill="#D9D9D9"/>
    <path d="M71.875 75H75V78.125H71.875V75Z" fill="#D9D9D9"/>
    <path d="M75 75H78.125V78.125H75V75Z" fill="#D9D9D9"/>
    <path d="M78.125 75H81.25V78.125H78.125V75Z" fill="#D9D9D9"/>
    <path d="M81.25 75H84.375V78.125H81.25V75Z" fill="#D9D9D9"/>
    <path d="M84.375 75H87.5V78.125H84.375V75Z" fill="#D9D9D9"/>
    <path d="M87.5 75H90.625V78.125H87.5V75Z" fill="#D9D9D9"/>
    <path d="M90.625 75H93.75V78.125H90.625V75Z" fill="#D9D9D9"/>
    <path d="M93.75 75H96.875V78.125H93.75V75Z" fill="#A6A6A6"/>
    <path d="M96.875 75H100V78.125H96.875V75Z" fill="#A6A6A6"/>
    <path d="M0 78.125H3.125V81.25H0V78.125Z" fill="#A6A6A6"/>
    <path d="M3.125 78.125H6.25V81.25H3.125V78.125Z" fill="#A6A6A6"/>
    <path d="M6.25 78.125H9.375V81.25H6.25V78.125Z" fill="#D9D9D9"/>
    <path d="M9.375 78.125H12.5V81.25H9.375V78.125Z" fill="#D9D9D9"/>
    <path d="M12.5 78.125H15.625V81.25H12.5V78.125Z" fill="#D9D9D9"/>
    <path d="M15.625 78.125H18.75V81.25H15.625V78.125Z" fill="#D9D9D9"/>
    <path d="M18.75 78.125H21.875V81.25H18.75V78.125Z" fill="#D9D9D9"/>
    <path d="M21.875 78.125H25V81.25H21.875V78.125Z" fill="#D9D9D9"/>
    <path d="M25 78.125H28.125V81.25H25V78.125Z" fill="#D9D9D9"/>
    <path d="M28.125 78.125H31.25V81.25H28.125V78.125Z" fill="#D9D9D9"/>
    <path d="M31.25 78.125H34.375V81.25H31.25V78.125Z" fill="#D9D9D9"/>
    <path d="M34.375 78.125H37.5V81.25H34.375V78.125Z" fill="#D9D9D9"/>
    <path d="M37.5 78.125H40.625V81.25H37.5V78.125Z" fill="#D9D9D9"/>
    <path d="M40.625 78.125H43.75V81.25H40.625V78.125Z" fill="#D9D9D9"/>
    <path d="M43.75 78.125H46.875V81.25H43.75V78.125Z" fill="#D9D9D9"/>
    <path d="M46.875 78.125H50V81.25H46.875V78.125Z" fill="#D9D9D9"/>
    <path d="M50 78.125H53.125V81.25H50V78.125Z" fill="#D9D9D9"/>
    <path d="M53.125 78.125H56.25V81.25H53.125V78.125Z" fill="#D9D9D9"/>
    <path d="M56.25 78.125H59.375V81.25H56.25V78.125Z" fill="#D9D9D9"/>
    <path d="M59.375 78.125H62.5V81.25H59.375V78.125Z" fill="#D9D9D9"/>
    <path d="M62.5 78.125H65.625V81.25H62.5V78.125Z" fill="#D9D9D9"/>
    <path d="M65.625 78.125H68.75V81.25H65.625V78.125Z" fill="#D9D9D9"/>
    <path d="M68.75 78.125H71.875V81.25H68.75V78.125Z" fill="#D9D9D9"/>
    <path d="M71.875 78.125H75V81.25H71.875V78.125Z" fill="#D9D9D9"/>
    <path d="M75 78.125H78.125V81.25H75V78.125Z" fill="#D9D9D9"/>
    <path d="M78.125 78.125H81.25V81.25H78.125V78.125Z" fill="#D9D9D9"/>
    <path d="M81.25 78.125H84.375V81.25H81.25V78.125Z" fill="#D9D9D9"/>
    <path d="M84.375 78.125H87.5V81.25H84.375V78.125Z" fill="#D9D9D9"/>
    <path d="M87.5 78.125H90.625V81.25H87.5V78.125Z" fill="#D9D9D9"/>
    <path d="M90.625 78.125H93.75V81.25H90.625V78.125Z" fill="#D9D9D9"/>
    <path d="M93.75 78.125H96.875V81.25H93.75V78.125Z" fill="#A6A6A6"/>
    <path d="M96.875 78.125H100V81.25H96.875V78.125Z" fill="#A6A6A6"/>
    <path d="M0 81.25H3.125V84.375H0V81.25Z" fill="#A6A6A6"/>
    <path d="M3.125 81.25H6.25V84.375H3.125V81.25Z" fill="#A6A6A6"/>
    <path d="M6.25 81.25H9.375V84.375H6.25V81.25Z" fill="#D9D9D9"/>
    <path d="M9.375 81.25H12.5V84.375H9.375V81.25Z" fill="#D9D9D9"/>
    <path d="M12.5 81.25H15.625V84.375H12.5V81.25Z" fill="#D9D9D9"/>
    <path d="M15.625 81.25H18.75V84.375H15.625V81.25Z" fill="#D9D9D9"/>
    <path d="M18.75 81.25H21.875V84.375H18.75V81.25Z" fill="#D9D9D9"/>
    <path d="M21.875 81.25H25V84.375H21.875V81.25Z" fill="#D9D9D9"/>
    <path d="M25 81.25H28.125V84.375H25V81.25Z" fill="#D9D9D9"/>
    <path d="M28.125 81.25H31.25V84.375H28.125V81.25Z" fill="#D9D9D9"/>
    <path d="M31.25 81.25H34.375V84.375H31.25V81.25Z" fill="#D9D9D9"/>
    <path d="M34.375 81.25H37.5V84.375H34.375V81.25Z" fill="#D9D9D9"/>
    <path d="M37.5 81.25H40.625V84.375H37.5V81.25Z" fill="#D9D9D9"/>
    <path d="M40.625 81.25H43.75V84.375H40.625V81.25Z" fill="#D9D9D9"/>
    <path d="M43.75 81.25H46.875V84.375H43.75V81.25Z" fill="#D9D9D9"/>
    <path d="M46.875 81.25H50V84.375H46.875V81.25Z" fill="#D9D9D9"/>
    <path d="M50 81.25H53.125V84.375H50V81.25Z" fill="#D9D9D9"/>
    <path d="M53.125 81.25H56.25V84.375H53.125V81.25Z" fill="#D9D9D9"/>
    <path d="M56.25 81.25H59.375V84.375H56.25V81.25Z" fill="#D9D9D9"/>
    <path d="M59.375 81.25H62.5V84.375H59.375V81.25Z" fill="#D9D9D9"/>
    <path d="M62.5 81.25H65.625V84.375H62.5V81.25Z" fill="#D9D9D9"/>
    <path d="M65.625 81.25H68.75V84.375H65.625V81.25Z" fill="#D9D9D9"/>
    <path d="M68.75 81.25H71.875V84.375H68.75V81.25Z" fill="#D9D9D9"/>
    <path d="M71.875 81.25H75V84.375H71.875V81.25Z" fill="#D9D9D9"/>
    <path d="M75 81.25H78.125V84.375H75V81.25Z" fill="#D9D9D9"/>
    <path d="M78.125 81.25H81.25V84.375H78.125V81.25Z" fill="#D9D9D9"/>
    <path d="M81.25 81.25H84.375V84.375H81.25V81.25Z" fill="#D9D9D9"/>
    <path d="M84.375 81.25H87.5V84.375H84.375V81.25Z" fill="#D9D9D9"/>
    <path d="M87.5 81.25H90.625V84.375H87.5V81.25Z" fill="#D9D9D9"/>
    <path d="M90.625 81.25H93.75V84.375H90.625V81.25Z" fill="#D9D9D9"/>
    <path d="M93.75 81.25H96.875V84.375H93.75V81.25Z" fill="#A6A6A6"/>
    <path d="M96.875 81.25H100V84.375H96.875V81.25Z" fill="#A6A6A6"/>
    <path d="M0 84.375H3.125V87.5H0V84.375Z" fill="#A6A6A6"/>
    <path d="M3.125 84.375H6.25V87.5H3.125V84.375Z" fill="#A6A6A6"/>
    <path d="M6.25 84.375H9.375V87.5H6.25V84.375Z" fill="#D9D9D9"/>
    <path d="M9.375 84.375H12.5V87.5H9.375V84.375Z" fill="#D9D9D9"/>
    <path d="M12.5 84.375H15.625V87.5H12.5V84.375Z" fill="#D9D9D9"/>
    <path d="M15.625 84.375H18.75V87.5H15.625V84.375Z" fill="#D9D9D9"/>
    <path d="M18.75 84.375H21.875V87.5H18.75V84.375Z" fill="#D9D9D9"/>
    <path d="M21.875 84.375H25V87.5H21.875V84.375Z" fill="#D9D9D9"/>
    <path d="M25 84.375H28.125V87.5H25V84.375Z" fill="#D9D9D9"/>
    <path d="M28.125 84.375H31.25V87.5H28.125V84.375Z" fill="#D9D9D9"/>
    <path d="M31.25 84.375H34.375V87.5H31.25V84.375Z" fill="#D9D9D9"/>
    <path d="M34.375 84.375H37.5V87.5H34.375V84.375Z" fill="#D9D9D9"/>
    <path d="M37.5 84.375H40.625V87.5H37.5V84.375Z" fill="#D9D9D9"/>
    <path d="M40.625 84.375H43.75V87.5H40.625V84.375Z" fill="#D9D9D9"/>
    <path d="M43.75 84.375H46.875V87.5H43.75V84.375Z" fill="#D9D9D9"/>
    <path d="M46.875 84.375H50V87.5H46.875V84.375Z" fill="#D9D9D9"/>
    <path d="M50 84.375H53.125V87.5H50V84.375Z" fill="#D9D9D9"/>
    <path d="M53.125 84.375H56.25V87.5H53.125V84.375Z" fill="#D9D9D9"/>
    <path d="M56.25 84.375H59.375V87.5H56.25V84.375Z" fill="#D9D9D9"/>
    <path d="M59.375 84.375H62.5V87.5H59.375V84.375Z" fill="#D9D9D9"/>
    <path d="M62.5 84.375H65.625V87.5H62.5V84.375Z" fill="#D9D9D9"/>
    <path d="M65.625 84.375H68.75V87.5H65.625V84.375Z" fill="#D9D9D9"/>
    <path d="M68.75 84.375H71.875V87.5H68.75V84.375Z" fill="#D9D9D9"/>
    <path d="M71.875 84.375H75V87.5H71.875V84.375Z" fill="#D9D9D9"/>
    <path d="M75 84.375H78.125V87.5H75V84.375Z" fill="#D9D9D9"/>
    <path d="M78.125 84.375H81.25V87.5H78.125V84.375Z" fill="#D9D9D9"/>
    <path d="M81.25 84.375H84.375V87.5H81.25V84.375Z" fill="#D9D9D9"/>
    <path d="M84.375 84.375H87.5V87.5H84.375V84.375Z" fill="#D9D9D9"/>
    <path d="M87.5 84.375H90.625V87.5H87.5V84.375Z" fill="#D9D9D9"/>
    <path d="M90.625 84.375H93.75V87.5H90.625V84.375Z" fill="#D9D9D9"/>
    <path d="M93.75 84.375H96.875V87.5H93.75V84.375Z" fill="#A6A6A6"/>
    <path d="M96.875 84.375H100V87.5H96.875V84.375Z" fill="#A6A6A6"/>
    <path d="M6.25 87.5H9.375V90.625H6.25V87.5Z" fill="#A6A6A6"/>
    <path d="M9.375 87.5H12.5V90.625H9.375V87.5Z" fill="#A6A6A6"/>
    <path d="M12.5 87.5H15.625V90.625H12.5V87.5Z" fill="#D9D9D9"/>
    <path d="M15.625 87.5H18.75V90.625H15.625V87.5Z" fill="#D9D9D9"/>
    <path d="M18.75 87.5H21.875V90.625H18.75V87.5Z" fill="#D9D9D9"/>
    <path d="M21.875 87.5H25V90.625H21.875V87.5Z" fill="#D9D9D9"/>
    <path d="M25 87.5H28.125V90.625H25V87.5Z" fill="#D9D9D9"/>
    <path d="M28.125 87.5H31.25V90.625H28.125V87.5Z" fill="#D9D9D9"/>
    <path d="M31.25 87.5H34.375V90.625H31.25V87.5Z" fill="#D9D9D9"/>
    <path d="M34.375 87.5H37.5V90.625H34.375V87.5Z" fill="#D9D9D9"/>
    <path d="M37.5 87.5H40.625V90.625H37.5V87.5Z" fill="#D9D9D9"/>
    <path d="M40.625 87.5H43.75V90.625H40.625V87.5Z" fill="#D9D9D9"/>
    <path d="M43.75 87.5H46.875V90.625H43.75V87.5Z" fill="#D9D9D9"/>
    <path d="M46.875 87.5H50V90.625H46.875V87.5Z" fill="#D9D9D9"/>
    <path d="M50 87.5H53.125V90.625H50V87.5Z" fill="#D9D9D9"/>
    <path d="M53.125 87.5H56.25V90.625H53.125V87.5Z" fill="#D9D9D9"/>
    <path d="M56.25 87.5H59.375V90.625H56.25V87.5Z" fill="#D9D9D9"/>
    <path d="M59.375 87.5H62.5V90.625H59.375V87.5Z" fill="#D9D9D9"/>
    <path d="M62.5 87.5H65.625V90.625H62.5V87.5Z" fill="#D9D9D9"/>
    <path d="M65.625 87.5H68.75V90.625H65.625V87.5Z" fill="#D9D9D9"/>
    <path d="M68.75 87.5H71.875V90.625H68.75V87.5Z" fill="#D9D9D9"/>
    <path d="M71.875 87.5H75V90.625H71.875V87.5Z" fill="#D9D9D9"/>
    <path d="M75 87.5H78.125V90.625H75V87.5Z" fill="#D9D9D9"/>
    <path d="M78.125 87.5H81.25V90.625H78.125V87.5Z" fill="#D9D9D9"/>
    <path d="M81.25 87.5H84.375V90.625H81.25V87.5Z" fill="#D9D9D9"/>
    <path d="M84.375 87.5H87.5V90.625H84.375V87.5Z" fill="#D9D9D9"/>
    <path d="M87.5 87.5H90.625V90.625H87.5V87.5Z" fill="#A6A6A6"/>
    <path d="M90.625 87.5H93.75V90.625H90.625V87.5Z" fill="#A6A6A6"/>
    <path d="M6.25 90.625H9.375V93.75H6.25V90.625Z" fill="#A6A6A6"/>
    <path d="M9.375 90.625H12.5V93.75H9.375V90.625Z" fill="#A6A6A6"/>
    <path d="M12.5 90.625H15.625V93.75H12.5V90.625Z" fill="#D9D9D9"/>
    <path d="M15.625 90.625H18.75V93.75H15.625V90.625Z" fill="#D9D9D9"/>
    <path d="M18.75 90.625H21.875V93.75H18.75V90.625Z" fill="#D9D9D9"/>
    <path d="M21.875 90.625H25V93.75H21.875V90.625Z" fill="#D9D9D9"/>
    <path d="M25 90.625H28.125V93.75H25V90.625Z" fill="#D9D9D9"/>
    <path d="M28.125 90.625H31.25V93.75H28.125V90.625Z" fill="#D9D9D9"/>
    <path d="M31.25 90.625H34.375V93.75H31.25V90.625Z" fill="#D9D9D9"/>
    <path d="M34.375 90.625H37.5V93.75H34.375V90.625Z" fill="#D9D9D9"/>
    <path d="M37.5 90.625H40.625V93.75H37.5V90.625Z" fill="#D9D9D9"/>
    <path d="M40.625 90.625H43.75V93.75H40.625V90.625Z" fill="#D9D9D9"/>
    <path d="M43.75 90.625H46.875V93.75H43.75V90.625Z" fill="#D9D9D9"/>
    <path d="M46.875 90.625H50V93.75H46.875V90.625Z" fill="#D9D9D9"/>
    <path d="M50 90.625H53.125V93.75H50V90.625Z" fill="#D9D9D9"/>
    <path d="M53.125 90.625H56.25V93.75H53.125V90.625Z" fill="#D9D9D9"/>
    <path d="M56.25 90.625H59.375V93.75H56.25V90.625Z" fill="#D9D9D9"/>
    <path d="M59.375 90.625H62.5V93.75H59.375V90.625Z" fill="#D9D9D9"/>
    <path d="M62.5 90.625H65.625V93.75H62.5V90.625Z" fill="#D9D9D9"/>
    <path d="M65.625 90.625H68.75V93.75H65.625V90.625Z" fill="#D9D9D9"/>
    <path d="M68.75 90.625H71.875V93.75H68.75V90.625Z" fill="#D9D9D9"/>
    <path d="M71.875 90.625H75V93.75H71.875V90.625Z" fill="#D9D9D9"/>
    <path d="M75 90.625H78.125V93.75H75V90.625Z" fill="#D9D9D9"/>
    <path d="M78.125 90.625H81.25V93.75H78.125V90.625Z" fill="#D9D9D9"/>
    <path d="M81.25 90.625H84.375V93.75H81.25V90.625Z" fill="#D9D9D9"/>
    <path d="M84.375 90.625H87.5V93.75H84.375V90.625Z" fill="#D9D9D9"/>
    <path d="M87.5 90.625H90.625V93.75H87.5V90.625Z" fill="#A6A6A6"/>
    <path d="M90.625 90.625H93.75V93.75H90.625V90.625Z" fill="#A6A6A6"/>
    <path d="M12.5 93.75H15.625V96.875H12.5V93.75Z" fill="#A6A6A6"/>
    <path d="M15.625 93.75H18.75V96.875H15.625V93.75Z" fill="#A6A6A6"/>
    <path d="M18.75 93.75H21.875V96.875H18.75V93.75Z" fill="#A6A6A6"/>
    <path d="M21.875 93.75H25V96.875H21.875V93.75Z" fill="#A6A6A6"/>
    <path d="M25 93.75H28.125V96.875H25V93.75Z" fill="#A6A6A6"/>
    <path d="M28.125 93.75H31.25V96.875H28.125V93.75Z" fill="#A6A6A6"/>
    <path d="M31.25 93.75H34.375V96.875H31.25V93.75Z" fill="#A6A6A6"/>
    <path d="M34.375 93.75H37.5V96.875H34.375V93.75Z" fill="#A6A6A6"/>
    <path d="M37.5 93.75H40.625V96.875H37.5V93.75Z" fill="#A6A6A6"/>
    <path d="M40.625 93.75H43.75V96.875H40.625V93.75Z" fill="#A6A6A6"/>
    <path d="M43.75 93.75H46.875V96.875H43.75V93.75Z" fill="#A6A6A6"/>
    <path d="M46.875 93.75H50V96.875H46.875V93.75Z" fill="#A6A6A6"/>
    <path d="M50 93.75H53.125V96.875H50V93.75Z" fill="#A6A6A6"/>
    <path d="M53.125 93.75H56.25V96.875H53.125V93.75Z" fill="#A6A6A6"/>
    <path d="M56.25 93.75H59.375V96.875H56.25V93.75Z" fill="#A6A6A6"/>
    <path d="M59.375 93.75H62.5V96.875H59.375V93.75Z" fill="#A6A6A6"/>
    <path d="M62.5 93.75H65.625V96.875H62.5V93.75Z" fill="#A6A6A6"/>
    <path d="M65.625 93.75H68.75V96.875H65.625V93.75Z" fill="#A6A6A6"/>
    <path d="M68.75 93.75H71.875V96.875H68.75V93.75Z" fill="#A6A6A6"/>
    <path d="M71.875 93.75H75V96.875H71.875V93.75Z" fill="#A6A6A6"/>
    <path d="M75 93.75H78.125V96.875H75V93.75Z" fill="#A6A6A6"/>
    <path d="M78.125 93.75H81.25V96.875H78.125V93.75Z" fill="#A6A6A6"/>
    <path d="M81.25 93.75H84.375V96.875H81.25V93.75Z" fill="#A6A6A6"/>
    <path d="M84.375 93.75H87.5V96.875H84.375V93.75Z" fill="#A6A6A6"/>
    <path d="M12.5 96.875H15.625V100H12.5V96.875Z" fill="#A6A6A6"/>
    <path d="M15.625 96.875H18.75V100H15.625V96.875Z" fill="#A6A6A6"/>
    <path d="M18.75 96.875H21.875V100H18.75V96.875Z" fill="#A6A6A6"/>
    <path d="M21.875 96.875H25V100H21.875V96.875Z" fill="#A6A6A6"/>
    <path d="M25 96.875H28.125V100H25V96.875Z" fill="#A6A6A6"/>
    <path d="M28.125 96.875H31.25V100H28.125V96.875Z" fill="#A6A6A6"/>
    <path d="M31.25 96.875H34.375V100H31.25V96.875Z" fill="#A6A6A6"/>
    <path d="M34.375 96.875H37.5V100H34.375V96.875Z" fill="#A6A6A6"/>
    <path d="M37.5 96.875H40.625V100H37.5V96.875Z" fill="#A6A6A6"/>
    <path d="M40.625 96.875H43.75V100H40.625V96.875Z" fill="#A6A6A6"/>
    <path d="M43.75 96.875H46.875V100H43.75V96.875Z" fill="#A6A6A6"/>
    <path d="M46.875 96.875H50V100H46.875V96.875Z" fill="#A6A6A6"/>
    <path d="M50 96.875H53.125V100H50V96.875Z" fill="#A6A6A6"/>
    <path d="M53.125 96.875H56.25V100H53.125V96.875Z" fill="#A6A6A6"/>
    <path d="M56.25 96.875H59.375V100H56.25V96.875Z" fill="#A6A6A6"/>
    <path d="M59.375 96.875H62.5V100H59.375V96.875Z" fill="#A6A6A6"/>
    <path d="M62.5 96.875H65.625V100H62.5V96.875Z" fill="#A6A6A6"/>
    <path d="M65.625 96.875H68.75V100H65.625V96.875Z" fill="#A6A6A6"/>
    <path d="M68.75 96.875H71.875V100H68.75V96.875Z" fill="#A6A6A6"/>
    <path d="M71.875 96.875H75V100H71.875V96.875Z" fill="#A6A6A6"/>
    <path d="M75 96.875H78.125V100H75V96.875Z" fill="#A6A6A6"/>
    <path d="M78.125 96.875H81.25V100H78.125V96.875Z" fill="#A6A6A6"/>
    <path d="M81.25 96.875H84.375V100H81.25V96.875Z" fill="#A6A6A6"/>
    <path d="M84.375 96.875H87.5V100H84.375V96.875Z" fill="#A6A6A6"/>
    <path d="M0 37.5H3.125V40.625H0V37.5Z" fill="#A6A6A6"/>
    <path d="M3.125 37.5H6.25V40.625H3.125V37.5Z" fill="#A6A6A6"/>
    <path d="M6.25 37.5H9.375V40.625H6.25V37.5Z" fill="#D9D9D9"/>
    <path d="M9.375 37.5H12.5V40.625H9.375V37.5Z" fill="#D9D9D9"/>
    <path d="M12.5 37.5H15.625V40.625H12.5V37.5Z" fill="#D9D9D9"/>
    <path d="M15.625 37.5H18.75V40.625H15.625V37.5Z" fill="#D9D9D9"/>
    <path d="M18.75 37.5H21.875V40.625H18.75V37.5Z" fill="#D9D9D9"/>
    <path d="M21.875 37.5H25V40.625H21.875V37.5Z" fill="#D9D9D9"/>
    <path d="M25 37.5H28.125V40.625H25V37.5Z" fill="#D9D9D9"/>
    <path d="M28.125 37.5H31.25V40.625H28.125V37.5Z" fill="#D9D9D9"/>
    <path d="M31.25 37.5H34.375V40.625H31.25V37.5Z" fill="#D9D9D9"/>
    <path d="M34.375 37.5H37.5V40.625H34.375V37.5Z" fill="#D9D9D9"/>
    <path d="M37.5 37.5H40.625V40.625H37.5V37.5Z" fill="#D9D9D9"/>
    <path d="M40.625 37.5H43.75V40.625H40.625V37.5Z" fill="#D9D9D9"/>
    <path d="M43.75 37.5H46.875V40.625H43.75V37.5Z" fill="white"/>
    <path d="M46.875 37.5H50V40.625H46.875V37.5Z" fill="white"/>
    <path d="M50 37.5H53.125V40.625H50V37.5Z" fill="white"/>
    <path d="M53.125 37.5H56.25V40.625H53.125V37.5Z" fill="white"/>
    <path d="M56.25 37.5H59.375V40.625H56.25V37.5Z" fill="#D9D9D9"/>
    <path d="M59.375 37.5H62.5V40.625H59.375V37.5Z" fill="#D9D9D9"/>
    <path d="M62.5 37.5H65.625V40.625H62.5V37.5Z" fill="#D9D9D9"/>
    <path d="M65.625 37.5H68.75V40.625H65.625V37.5Z" fill="#D9D9D9"/>
    <path d="M68.75 37.5H71.875V40.625H68.75V37.5Z" fill="#D9D9D9"/>
    <path d="M71.875 37.5H75V40.625H71.875V37.5Z" fill="#D9D9D9"/>
    <path d="M75 37.5H78.125V40.625H75V37.5Z" fill="#D9D9D9"/>
    <path d="M78.125 37.5H81.25V40.625H78.125V37.5Z" fill="#D9D9D9"/>
    <path d="M81.25 37.5H84.375V40.625H81.25V37.5Z" fill="#D9D9D9"/>
    <path d="M84.375 37.5H87.5V40.625H84.375V37.5Z" fill="#D9D9D9"/>
    <path d="M87.5 37.5H90.625V40.625H87.5V37.5Z" fill="#D9D9D9"/>
    <path d="M90.625 37.5H93.75V40.625H90.625V37.5Z" fill="#D9D9D9"/>
    <path d="M93.75 37.5H96.875V40.625H93.75V37.5Z" fill="#A6A6A6"/>
    <path d="M96.875 37.5H100V40.625H96.875V37.5Z" fill="#A6A6A6"/>
    <path d="M0 40.625H3.125V43.75H0V40.625Z" fill="#A6A6A6"/>
    <path d="M3.125 40.625H6.25V43.75H3.125V40.625Z" fill="#A6A6A6"/>
    <path d="M6.25 40.625H9.375V43.75H6.25V40.625Z" fill="#D9D9D9"/>
    <path d="M9.375 40.625H12.5V43.75H9.375V40.625Z" fill="#D9D9D9"/>
    <path d="M12.5 40.625H15.625V43.75H12.5V40.625Z" fill="#D9D9D9"/>
    <path d="M15.625 40.625H18.75V43.75H15.625V40.625Z" fill="#D9D9D9"/>
    <path d="M18.75 40.625H21.875V43.75H18.75V40.625Z" fill="#D9D9D9"/>
    <path d="M21.875 40.625H25V43.75H21.875V40.625Z" fill="#D9D9D9"/>
    <path d="M25 40.625H28.125V43.75H25V40.625Z" fill="#D9D9D9"/>
    <path d="M28.125 40.625H31.25V43.75H28.125V40.625Z" fill="#D9D9D9"/>
    <path d="M31.25 40.625H34.375V43.75H31.25V40.625Z" fill="#D9D9D9"/>
    <path d="M34.375 40.625H37.5V43.75H34.375V40.625Z" fill="#D9D9D9"/>
    <path d="M37.5 40.625H40.625V43.75H37.5V40.625Z" fill="#D9D9D9"/>
    <path d="M40.625 40.625H43.75V43.75H40.625V40.625Z" fill="#D9D9D9"/>
    <path d="M43.75 40.625H46.875V43.75H43.75V40.625Z" fill="white"/>
    <path d="M46.875 40.625H50V43.75H46.875V40.625Z" fill="white"/>
    <path d="M50 40.625H53.125V43.75H50V40.625Z" fill="white"/>
    <path d="M53.125 40.625H56.25V43.75H53.125V40.625Z" fill="white"/>
    <path d="M56.25 40.625H59.375V43.75H56.25V40.625Z" fill="#D9D9D9"/>
    <path d="M59.375 40.625H62.5V43.75H59.375V40.625Z" fill="#D9D9D9"/>
    <path d="M62.5 40.625H65.625V43.75H62.5V40.625Z" fill="#D9D9D9"/>
    <path d="M65.625 40.625H68.75V43.75H65.625V40.625Z" fill="#D9D9D9"/>
    <path d="M68.75 40.625H71.875V43.75H68.75V40.625Z" fill="#D9D9D9"/>
    <path d="M71.875 40.625H75V43.75H71.875V40.625Z" fill="#D9D9D9"/>
    <path d="M75 40.625H78.125V43.75H75V40.625Z" fill="#D9D9D9"/>
    <path d="M78.125 40.625H81.25V43.75H78.125V40.625Z" fill="#D9D9D9"/>
    <path d="M81.25 40.625H84.375V43.75H81.25V40.625Z" fill="#D9D9D9"/>
    <path d="M84.375 40.625H87.5V43.75H84.375V40.625Z" fill="#D9D9D9"/>
    <path d="M87.5 40.625H90.625V43.75H87.5V40.625Z" fill="#D9D9D9"/>
    <path d="M90.625 40.625H93.75V43.75H90.625V40.625Z" fill="#D9D9D9"/>
    <path d="M93.75 40.625H96.875V43.75H93.75V40.625Z" fill="#A6A6A6"/>
    <path d="M96.875 40.625H100V43.75H96.875V40.625Z" fill="#A6A6A6"/>
    <path d="M0 43.75H3.125V46.875H0V43.75Z" fill="#A6A6A6"/>
    <path d="M3.125 43.75H6.25V46.875H3.125V43.75Z" fill="#A6A6A6"/>
    <path d="M6.25 43.75H9.375V46.875H6.25V43.75Z" fill="#D9D9D9"/>
    <path d="M9.375 43.75H12.5V46.875H9.375V43.75Z" fill="#D9D9D9"/>
    <path d="M12.5 43.75H15.625V46.875H12.5V43.75Z" fill="#D9D9D9"/>
    <path d="M15.625 43.75H18.75V46.875H15.625V43.75Z" fill="#D9D9D9"/>
    <path d="M18.75 43.75H21.875V46.875H18.75V43.75Z" fill="#D9D9D9"/>
    <path d="M21.875 43.75H25V46.875H21.875V43.75Z" fill="#D9D9D9"/>
    <path d="M25 43.75H28.125V46.875H25V43.75Z" fill="white"/>
    <path d="M28.125 43.75H31.25V46.875H28.125V43.75Z" fill="white"/>
    <path d="M31.25 43.75H34.375V46.875H31.25V43.75Z" fill="white"/>
    <path d="M34.375 43.75H37.5V46.875H34.375V43.75Z" fill="white"/>
    <path d="M37.5 43.75H40.625V46.875H37.5V43.75Z" fill="white"/>
    <path d="M40.625 43.75H43.75V46.875H40.625V43.75Z" fill="white"/>
    <path d="M43.75 43.75H46.875V46.875H43.75V43.75Z" fill="white"/>
    <path d="M46.875 43.75H50V46.875H46.875V43.75Z" fill="white"/>
    <path d="M50 43.75H53.125V46.875H50V43.75Z" fill="white"/>
    <path d="M53.125 43.75H56.25V46.875H53.125V43.75Z" fill="white"/>
    <path d="M56.25 43.75H59.375V46.875H56.25V43.75Z" fill="white"/>
    <path d="M59.375 43.75H62.5V46.875H59.375V43.75Z" fill="white"/>
    <path d="M62.5 43.75H65.625V46.875H62.5V43.75Z" fill="white"/>
    <path d="M65.625 43.75H68.75V46.875H65.625V43.75Z" fill="white"/>
    <path d="M68.75 43.75H71.875V46.875H68.75V43.75Z" fill="white"/>
    <path d="M71.875 43.75H75V46.875H71.875V43.75Z" fill="white"/>
    <path d="M75 43.75H78.125V46.875H75V43.75Z" fill="#D9D9D9"/>
    <path d="M78.125 43.75H81.25V46.875H78.125V43.75Z" fill="#D9D9D9"/>
    <path d="M81.25 43.75H84.375V46.875H81.25V43.75Z" fill="#D9D9D9"/>
    <path d="M84.375 43.75H87.5V46.875H84.375V43.75Z" fill="#D9D9D9"/>
    <path d="M87.5 43.75H90.625V46.875H87.5V43.75Z" fill="#D9D9D9"/>
    <path d="M90.625 43.75H93.75V46.875H90.625V43.75Z" fill="#D9D9D9"/>
    <path d="M93.75 43.75H96.875V46.875H93.75V43.75Z" fill="#A6A6A6"/>
    <path d="M96.875 43.75H100V46.875H96.875V43.75Z" fill="#A6A6A6"/>
    <path d="M0 46.875H3.125V50H0V46.875Z" fill="#A6A6A6"/>
    <path d="M3.125 46.875H6.25V50H3.125V46.875Z" fill="#A6A6A6"/>
    <path d="M6.25 46.875H9.375V50H6.25V46.875Z" fill="#D9D9D9"/>
    <path d="M9.375 46.875H12.5V50H9.375V46.875Z" fill="#D9D9D9"/>
    <path d="M12.5 46.875H15.625V50H12.5V46.875Z" fill="#D9D9D9"/>
    <path d="M15.625 46.875H18.75V50H15.625V46.875Z" fill="#D9D9D9"/>
    <path d="M18.75 46.875H21.875V50H18.75V46.875Z" fill="#D9D9D9"/>
    <path d="M21.875 46.875H25V50H21.875V46.875Z" fill="white"/>
    <path d="M25 46.875H28.125V50H25V46.875Z" fill="white"/>
    <path d="M28.125 46.875H31.25V50H28.125V46.875Z" fill="white"/>
    <path d="M31.25 46.875H34.375V50H31.25V46.875Z" fill="white"/>
    <path d="M34.375 46.875H37.5V50H34.375V46.875Z" fill="white"/>
    <path d="M37.5 46.875H40.625V50H37.5V46.875Z" fill="white"/>
    <path d="M40.625 46.875H43.75V50H40.625V46.875Z" fill="white"/>
    <path d="M43.75 46.875H46.875V50H43.75V46.875Z" fill="white"/>
    <path d="M46.875 46.875H50V50H46.875V46.875Z" fill="white"/>
    <path d="M50 46.875H53.125V50H50V46.875Z" fill="white"/>
    <path d="M53.125 46.875H56.25V50H53.125V46.875Z" fill="white"/>
    <path d="M56.25 46.875H59.375V50H56.25V46.875Z" fill="white"/>
    <path d="M59.375 46.875H62.5V50H59.375V46.875Z" fill="white"/>
    <path d="M62.5 46.875H65.625V50H62.5V46.875Z" fill="white"/>
    <path d="M65.625 46.875H68.75V50H65.625V46.875Z" fill="white"/>
    <path d="M68.75 46.875H71.875V50H68.75V46.875Z" fill="white"/>
    <path d="M71.875 46.875H75V50H71.875V46.875Z" fill="white"/>
    <path d="M75 46.875H78.125V50H75V46.875Z" fill="white"/>
    <path d="M78.125 46.875H81.25V50H78.125V46.875Z" fill="#D9D9D9"/>
    <path d="M81.25 46.875H84.375V50H81.25V46.875Z" fill="#D9D9D9"/>
    <path d="M84.375 46.875H87.5V50H84.375V46.875Z" fill="#D9D9D9"/>
    <path d="M87.5 46.875H90.625V50H87.5V46.875Z" fill="#D9D9D9"/>
    <path d="M90.625 46.875H93.75V50H90.625V46.875Z" fill="#D9D9D9"/>
    <path d="M93.75 46.875H96.875V50H93.75V46.875Z" fill="#A6A6A6"/>
    <path d="M96.875 46.875H100V50H96.875V46.875Z" fill="#A6A6A6"/>
    <path d="M0 50H3.125V53.125H0V50Z" fill="#A6A6A6"/>
    <path d="M3.125 50H6.25V53.125H3.125V50Z" fill="#A6A6A6"/>
    <path d="M6.25 50H9.375V53.125H6.25V50Z" fill="#D9D9D9"/>
    <path d="M9.375 50H12.5V53.125H9.375V50Z" fill="#D9D9D9"/>
    <path d="M12.5 50H15.625V53.125H12.5V50Z" fill="#D9D9D9"/>
    <path d="M15.625 50H18.75V53.125H15.625V50Z" fill="#D9D9D9"/>
    <path d="M18.75 50H21.875V53.125H18.75V50Z" fill="#D9D9D9"/>
    <path d="M21.875 50H25V53.125H21.875V50Z" fill="white"/>
    <path d="M25 50H28.125V53.125H25V50Z" fill="white"/>
    <path d="M28.125 50H31.25V53.125H28.125V50Z" fill="white"/>
    <path d="M31.25 50H34.375V53.125H31.25V50Z" fill="white"/>
    <path d="M34.375 50H37.5V53.125H34.375V50Z" fill="white"/>
    <path d="M37.5 50H40.625V53.125H37.5V50Z" fill="white"/>
    <path d="M40.625 50H43.75V53.125H40.625V50Z" fill="white"/>
    <path d="M43.75 50H46.875V53.125H43.75V50Z" fill="white"/>
    <path d="M46.875 50H50V53.125H46.875V50Z" fill="white"/>
    <path d="M50 50H53.125V53.125H50V50Z" fill="white"/>
    <path d="M53.125 50H56.25V53.125H53.125V50Z" fill="white"/>
    <path d="M56.25 50H59.375V53.125H56.25V50Z" fill="white"/>
    <path d="M59.375 50H62.5V53.125H59.375V50Z" fill="white"/>
    <path d="M62.5 50H65.625V53.125H62.5V50Z" fill="white"/>
    <path d="M65.625 50H68.75V53.125H65.625V50Z" fill="white"/>
    <path d="M68.75 50H71.875V53.125H68.75V50Z" fill="white"/>
    <path d="M71.875 50H75V53.125H71.875V50Z" fill="white"/>
    <path d="M75 50H78.125V53.125H75V50Z" fill="white"/>
    <path d="M78.125 50H81.25V53.125H78.125V50Z" fill="#D9D9D9"/>
    <path d="M81.25 50H84.375V53.125H81.25V50Z" fill="#D9D9D9"/>
    <path d="M84.375 50H87.5V53.125H84.375V50Z" fill="#D9D9D9"/>
    <path d="M87.5 50H90.625V53.125H87.5V50Z" fill="#D9D9D9"/>
    <path d="M90.625 50H93.75V53.125H90.625V50Z" fill="#D9D9D9"/>
    <path d="M93.75 50H96.875V53.125H93.75V50Z" fill="#A6A6A6"/>
    <path d="M96.875 50H100V53.125H96.875V50Z" fill="#A6A6A6"/>
    <path d="M0 53.125H3.125V56.25H0V53.125Z" fill="#A6A6A6"/>
    <path d="M3.125 53.125H6.25V56.25H3.125V53.125Z" fill="#A6A6A6"/>
    <path d="M6.25 53.125H9.375V56.25H6.25V53.125Z" fill="#D9D9D9"/>
    <path d="M9.375 53.125H12.5V56.25H9.375V53.125Z" fill="#D9D9D9"/>
    <path d="M12.5 53.125H15.625V56.25H12.5V53.125Z" fill="#D9D9D9"/>
    <path d="M15.625 53.125H18.75V56.25H15.625V53.125Z" fill="#D9D9D9"/>
    <path d="M18.75 53.125H21.875V56.25H18.75V53.125Z" fill="#D9D9D9"/>
    <path d="M21.875 53.125H25V56.25H21.875V53.125Z" fill="#D9D9D9"/>
    <path d="M25 53.125H28.125V56.25H25V53.125Z" fill="white"/>
    <path d="M28.125 53.125H31.25V56.25H28.125V53.125Z" fill="white"/>
    <path d="M31.25 53.125H34.375V56.25H31.25V53.125Z" fill="white"/>
    <path d="M34.375 53.125H37.5V56.25H34.375V53.125Z" fill="white"/>
    <path d="M37.5 53.125H40.625V56.25H37.5V53.125Z" fill="white"/>
    <path d="M40.625 53.125H43.75V56.25H40.625V53.125Z" fill="white"/>
    <path d="M43.75 53.125H46.875V56.25H43.75V53.125Z" fill="white"/>
    <path d="M46.875 53.125H50V56.25H46.875V53.125Z" fill="white"/>
    <path d="M50 53.125H53.125V56.25H50V53.125Z" fill="white"/>
    <path d="M53.125 53.125H56.25V56.25H53.125V53.125Z" fill="white"/>
    <path d="M56.25 53.125H59.375V56.25H56.25V53.125Z" fill="white"/>
    <path d="M59.375 53.125H62.5V56.25H59.375V53.125Z" fill="white"/>
    <path d="M62.5 53.125H65.625V56.25H62.5V53.125Z" fill="white"/>
    <path d="M65.625 53.125H68.75V56.25H65.625V53.125Z" fill="white"/>
    <path d="M68.75 53.125H71.875V56.25H68.75V53.125Z" fill="white"/>
    <path d="M71.875 53.125H75V56.25H71.875V53.125Z" fill="white"/>
    <path d="M75 53.125H78.125V56.25H75V53.125Z" fill="#D9D9D9"/>
    <path d="M78.125 53.125H81.25V56.25H78.125V53.125Z" fill="#D9D9D9"/>
    <path d="M81.25 53.125H84.375V56.25H81.25V53.125Z" fill="#D9D9D9"/>
    <path d="M84.375 53.125H87.5V56.25H84.375V53.125Z" fill="#D9D9D9"/>
    <path d="M87.5 53.125H90.625V56.25H87.5V53.125Z" fill="#D9D9D9"/>
    <path d="M90.625 53.125H93.75V56.25H90.625V53.125Z" fill="#D9D9D9"/>
    <path d="M93.75 53.125H96.875V56.25H93.75V53.125Z" fill="#A6A6A6"/>
    <path d="M96.875 53.125H100V56.25H96.875V53.125Z" fill="#A6A6A6"/>
    <path d="M0 56.25H3.125V59.375H0V56.25Z" fill="#A6A6A6"/>
    <path d="M3.125 56.25H6.25V59.375H3.125V56.25Z" fill="#A6A6A6"/>
    <path d="M6.25 56.25H9.375V59.375H6.25V56.25Z" fill="#D9D9D9"/>
    <path d="M9.375 56.25H12.5V59.375H9.375V56.25Z" fill="#D9D9D9"/>
    <path d="M12.5 56.25H15.625V59.375H12.5V56.25Z" fill="#D9D9D9"/>
    <path d="M15.625 56.25H18.75V59.375H15.625V56.25Z" fill="#D9D9D9"/>
    <path d="M18.75 56.25H21.875V59.375H18.75V56.25Z" fill="#D9D9D9"/>
    <path d="M21.875 56.25H25V59.375H21.875V56.25Z" fill="#D9D9D9"/>
    <path d="M25 56.25H28.125V59.375H25V56.25Z" fill="#D9D9D9"/>
    <path d="M28.125 56.25H31.25V59.375H28.125V56.25Z" fill="#D9D9D9"/>
    <path d="M31.25 56.25H34.375V59.375H31.25V56.25Z" fill="#D9D9D9"/>
    <path d="M34.375 56.25H37.5V59.375H34.375V56.25Z" fill="#D9D9D9"/>
    <path d="M37.5 56.25H40.625V59.375H37.5V56.25Z" fill="#D9D9D9"/>
    <path d="M40.625 56.25H43.75V59.375H40.625V56.25Z" fill="#D9D9D9"/>
    <path d="M43.75 56.25H46.875V59.375H43.75V56.25Z" fill="white"/>
    <path d="M46.875 56.25H50V59.375H46.875V56.25Z" fill="white"/>
    <path d="M50 56.25H53.125V59.375H50V56.25Z" fill="white"/>
    <path d="M53.125 56.25H56.25V59.375H53.125V56.25Z" fill="white"/>
    <path d="M56.25 56.25H59.375V59.375H56.25V56.25Z" fill="#D9D9D9"/>
    <path d="M59.375 56.25H62.5V59.375H59.375V56.25Z" fill="#D9D9D9"/>
    <path d="M62.5 56.25H65.625V59.375H62.5V56.25Z" fill="#D9D9D9"/>
    <path d="M65.625 56.25H68.75V59.375H65.625V56.25Z" fill="#D9D9D9"/>
    <path d="M68.75 56.25H71.875V59.375H68.75V56.25Z" fill="#D9D9D9"/>
    <path d="M71.875 56.25H75V59.375H71.875V56.25Z" fill="#D9D9D9"/>
    <path d="M75 56.25H78.125V59.375H75V56.25Z" fill="#D9D9D9"/>
    <path d="M78.125 56.25H81.25V59.375H78.125V56.25Z" fill="#D9D9D9"/>
    <path d="M81.25 56.25H84.375V59.375H81.25V56.25Z" fill="#D9D9D9"/>
    <path d="M84.375 56.25H87.5V59.375H84.375V56.25Z" fill="#D9D9D9"/>
    <path d="M87.5 56.25H90.625V59.375H87.5V56.25Z" fill="#D9D9D9"/>
    <path d="M90.625 56.25H93.75V59.375H90.625V56.25Z" fill="#D9D9D9"/>
    <path d="M93.75 56.25H96.875V59.375H93.75V56.25Z" fill="#A6A6A6"/>
    <path d="M96.875 56.25H100V59.375H96.875V56.25Z" fill="#A6A6A6"/>
    <path d="M0 59.375H3.125V62.5H0V59.375Z" fill="#A6A6A6"/>
    <path d="M3.125 59.375H6.25V62.5H3.125V59.375Z" fill="#A6A6A6"/>
    <path d="M6.25 59.375H9.375V62.5H6.25V59.375Z" fill="#D9D9D9"/>
    <path d="M9.375 59.375H12.5V62.5H9.375V59.375Z" fill="#D9D9D9"/>
    <path d="M12.5 59.375H15.625V62.5H12.5V59.375Z" fill="#D9D9D9"/>
    <path d="M15.625 59.375H18.75V62.5H15.625V59.375Z" fill="#D9D9D9"/>
    <path d="M18.75 59.375H21.875V62.5H18.75V59.375Z" fill="#D9D9D9"/>
    <path d="M21.875 59.375H25V62.5H21.875V59.375Z" fill="#D9D9D9"/>
    <path d="M25 59.375H28.125V62.5H25V59.375Z" fill="#D9D9D9"/>
    <path d="M28.125 59.375H31.25V62.5H28.125V59.375Z" fill="#D9D9D9"/>
    <path d="M31.25 59.375H34.375V62.5H31.25V59.375Z" fill="#D9D9D9"/>
    <path d="M34.375 59.375H37.5V62.5H34.375V59.375Z" fill="#D9D9D9"/>
    <path d="M37.5 59.375H40.625V62.5H37.5V59.375Z" fill="#D9D9D9"/>
    <path d="M40.625 59.375H43.75V62.5H40.625V59.375Z" fill="#D9D9D9"/>
    <path d="M43.75 59.375H46.875V62.5H43.75V59.375Z" fill="white"/>
    <path d="M46.875 59.375H50V62.5H46.875V59.375Z" fill="white"/>
    <path d="M50 59.375H53.125V62.5H50V59.375Z" fill="white"/>
    <path d="M53.125 59.375H56.25V62.5H53.125V59.375Z" fill="white"/>
    <path d="M56.25 59.375H59.375V62.5H56.25V59.375Z" fill="#D9D9D9"/>
    <path d="M59.375 59.375H62.5V62.5H59.375V59.375Z" fill="#D9D9D9"/>
    <path d="M62.5 59.375H65.625V62.5H62.5V59.375Z" fill="#D9D9D9"/>
    <path d="M65.625 59.375H68.75V62.5H65.625V59.375Z" fill="#D9D9D9"/>
    <path d="M68.75 59.375H71.875V62.5H68.75V59.375Z" fill="#D9D9D9"/>
    <path d="M71.875 59.375H75V62.5H71.875V59.375Z" fill="#D9D9D9"/>
    <path d="M75 59.375H78.125V62.5H75V59.375Z" fill="#D9D9D9"/>
    <path d="M78.125 59.375H81.25V62.5H78.125V59.375Z" fill="#D9D9D9"/>
    <path d="M81.25 59.375H84.375V62.5H81.25V59.375Z" fill="#D9D9D9"/>
    <path d="M84.375 59.375H87.5V62.5H84.375V59.375Z" fill="#D9D9D9"/>
    <path d="M87.5 59.375H90.625V62.5H87.5V59.375Z" fill="#D9D9D9"/>
    <path d="M90.625 59.375H93.75V62.5H90.625V59.375Z" fill="#D9D9D9"/>
    <path d="M93.75 59.375H96.875V62.5H93.75V59.375Z" fill="#A6A6A6"/>
    <path d="M96.875 59.375H100V62.5H96.875V59.375Z" fill="#A6A6A6"/>
    <path d="M0 62.5H3.125V65.625H0V62.5Z" fill="#A6A6A6"/>
    <path d="M3.125 62.5H6.25V65.625H3.125V62.5Z" fill="#A6A6A6"/>
    <path d="M6.25 62.5H9.375V65.625H6.25V62.5Z" fill="#D9D9D9"/>
    <path d="M9.375 62.5H12.5V65.625H9.375V62.5Z" fill="#D9D9D9"/>
    <path d="M12.5 62.5H15.625V65.625H12.5V62.5Z" fill="#D9D9D9"/>
    <path d="M15.625 62.5H18.75V65.625H15.625V62.5Z" fill="#D9D9D9"/>
    <path d="M18.75 62.5H21.875V65.625H18.75V62.5Z" fill="#D9D9D9"/>
    <path d="M21.875 62.5H25V65.625H21.875V62.5Z" fill="#D9D9D9"/>
    <path d="M25 62.5H28.125V65.625H25V62.5Z" fill="#D9D9D9"/>
    <path d="M28.125 62.5H31.25V65.625H28.125V62.5Z" fill="#D9D9D9"/>
    <path d="M31.25 62.5H34.375V65.625H31.25V62.5Z" fill="#D9D9D9"/>
    <path d="M34.375 62.5H37.5V65.625H34.375V62.5Z" fill="#D9D9D9"/>
    <path d="M37.5 62.5H40.625V65.625H37.5V62.5Z" fill="#D9D9D9"/>
    <path d="M40.625 62.5H43.75V65.625H40.625V62.5Z" fill="#D9D9D9"/>
    <path d="M43.75 62.5H46.875V65.625H43.75V62.5Z" fill="white"/>
    <path d="M46.875 62.5H50V65.625H46.875V62.5Z" fill="white"/>
    <path d="M50 62.5H53.125V65.625H50V62.5Z" fill="white"/>
    <path d="M53.125 62.5H56.25V65.625H53.125V62.5Z" fill="white"/>
    <path d="M56.25 62.5H59.375V65.625H56.25V62.5Z" fill="#D9D9D9"/>
    <path d="M59.375 62.5H62.5V65.625H59.375V62.5Z" fill="#D9D9D9"/>
    <path d="M62.5 62.5H65.625V65.625H62.5V62.5Z" fill="#D9D9D9"/>
    <path d="M65.625 62.5H68.75V65.625H65.625V62.5Z" fill="#D9D9D9"/>
    <path d="M68.75 62.5H71.875V65.625H68.75V62.5Z" fill="#D9D9D9"/>
    <path d="M71.875 62.5H75V65.625H71.875V62.5Z" fill="#D9D9D9"/>
    <path d="M75 62.5H78.125V65.625H75V62.5Z" fill="#D9D9D9"/>
    <path d="M78.125 62.5H81.25V65.625H78.125V62.5Z" fill="#D9D9D9"/>
    <path d="M81.25 62.5H84.375V65.625H81.25V62.5Z" fill="#D9D9D9"/>
    <path d="M84.375 62.5H87.5V65.625H84.375V62.5Z" fill="#D9D9D9"/>
    <path d="M87.5 62.5H90.625V65.625H87.5V62.5Z" fill="#D9D9D9"/>
    <path d="M90.625 62.5H93.75V65.625H90.625V62.5Z" fill="#D9D9D9"/>
    <path d="M93.75 62.5H96.875V65.625H93.75V62.5Z" fill="#A6A6A6"/>
    <path d="M96.875 62.5H100V65.625H96.875V62.5Z" fill="#A6A6A6"/>
    <path d="M0 65.625H3.125V68.75H0V65.625Z" fill="#A6A6A6"/>
    <path d="M3.125 65.625H6.25V68.75H3.125V65.625Z" fill="#A6A6A6"/>
    <path d="M6.25 65.625H9.375V68.75H6.25V65.625Z" fill="#D9D9D9"/>
    <path d="M9.375 65.625H12.5V68.75H9.375V65.625Z" fill="#D9D9D9"/>
    <path d="M12.5 65.625H15.625V68.75H12.5V65.625Z" fill="#D9D9D9"/>
    <path d="M15.625 65.625H18.75V68.75H15.625V65.625Z" fill="#D9D9D9"/>
    <path d="M18.75 65.625H21.875V68.75H18.75V65.625Z" fill="#D9D9D9"/>
    <path d="M21.875 65.625H25V68.75H21.875V65.625Z" fill="#D9D9D9"/>
    <path d="M25 65.625H28.125V68.75H25V65.625Z" fill="#D9D9D9"/>
    <path d="M28.125 65.625H31.25V68.75H28.125V65.625Z" fill="#D9D9D9"/>
    <path d="M31.25 65.625H34.375V68.75H31.25V65.625Z" fill="#D9D9D9"/>
    <path d="M34.375 65.625H37.5V68.75H34.375V65.625Z" fill="#D9D9D9"/>
    <path d="M37.5 65.625H40.625V68.75H37.5V65.625Z" fill="#D9D9D9"/>
    <path d="M40.625 65.625H43.75V68.75H40.625V65.625Z" fill="#D9D9D9"/>
    <path d="M43.75 65.625H46.875V68.75H43.75V65.625Z" fill="white"/>
    <path d="M46.875 65.625H50V68.75H46.875V65.625Z" fill="white"/>
    <path d="M50 65.625H53.125V68.75H50V65.625Z" fill="white"/>
    <path d="M53.125 65.625H56.25V68.75H53.125V65.625Z" fill="white"/>
    <path d="M56.25 65.625H59.375V68.75H56.25V65.625Z" fill="#D9D9D9"/>
    <path d="M59.375 65.625H62.5V68.75H59.375V65.625Z" fill="#D9D9D9"/>
    <path d="M62.5 65.625H65.625V68.75H62.5V65.625Z" fill="#D9D9D9"/>
    <path d="M65.625 65.625H68.75V68.75H65.625V65.625Z" fill="#D9D9D9"/>
    <path d="M68.75 65.625H71.875V68.75H68.75V65.625Z" fill="#D9D9D9"/>
    <path d="M71.875 65.625H75V68.75H71.875V65.625Z" fill="#D9D9D9"/>
    <path d="M75 65.625H78.125V68.75H75V65.625Z" fill="#D9D9D9"/>
    <path d="M78.125 65.625H81.25V68.75H78.125V65.625Z" fill="#D9D9D9"/>
    <path d="M81.25 65.625H84.375V68.75H81.25V65.625Z" fill="#D9D9D9"/>
    <path d="M84.375 65.625H87.5V68.75H84.375V65.625Z" fill="#D9D9D9"/>
    <path d="M87.5 65.625H90.625V68.75H87.5V65.625Z" fill="#D9D9D9"/>
    <path d="M90.625 65.625H93.75V68.75H90.625V65.625Z" fill="#D9D9D9"/>
    <path d="M93.75 65.625H96.875V68.75H93.75V65.625Z" fill="#A6A6A6"/>
    <path d="M96.875 65.625H100V68.75H96.875V65.625Z" fill="#A6A6A6"/>
    <path d="M0 68.75H3.125V71.875H0V68.75Z" fill="#A6A6A6"/>
    <path d="M3.125 68.75H6.25V71.875H3.125V68.75Z" fill="#A6A6A6"/>
    <path d="M6.25 68.75H9.375V71.875H6.25V68.75Z" fill="#D9D9D9"/>
    <path d="M9.375 68.75H12.5V71.875H9.375V68.75Z" fill="#D9D9D9"/>
    <path d="M12.5 68.75H15.625V71.875H12.5V68.75Z" fill="#D9D9D9"/>
    <path d="M15.625 68.75H18.75V71.875H15.625V68.75Z" fill="#D9D9D9"/>
    <path d="M18.75 68.75H21.875V71.875H18.75V68.75Z" fill="#D9D9D9"/>
    <path d="M21.875 68.75H25V71.875H21.875V68.75Z" fill="#D9D9D9"/>
    <path d="M25 68.75H28.125V71.875H25V68.75Z" fill="#D9D9D9"/>
    <path d="M28.125 68.75H31.25V71.875H28.125V68.75Z" fill="#D9D9D9"/>
    <path d="M31.25 68.75H34.375V71.875H31.25V68.75Z" fill="#D9D9D9"/>
    <path d="M34.375 68.75H37.5V71.875H34.375V68.75Z" fill="#D9D9D9"/>
    <path d="M37.5 68.75H40.625V71.875H37.5V68.75Z" fill="#D9D9D9"/>
    <path d="M40.625 68.75H43.75V71.875H40.625V68.75Z" fill="#D9D9D9"/>
    <path d="M43.75 68.75H46.875V71.875H43.75V68.75Z" fill="white"/>
    <path d="M46.875 68.75H50V71.875H46.875V68.75Z" fill="white"/>
    <path d="M50 68.75H53.125V71.875H50V68.75Z" fill="white"/>
    <path d="M53.125 68.75H56.25V71.875H53.125V68.75Z" fill="white"/>
    <path d="M56.25 68.75H59.375V71.875H56.25V68.75Z" fill="#D9D9D9"/>
    <path d="M59.375 68.75H62.5V71.875H59.375V68.75Z" fill="#D9D9D9"/>
    <path d="M62.5 68.75H65.625V71.875H62.5V68.75Z" fill="#D9D9D9"/>
    <path d="M65.625 68.75H68.75V71.875H65.625V68.75Z" fill="#D9D9D9"/>
    <path d="M68.75 68.75H71.875V71.875H68.75V68.75Z" fill="#D9D9D9"/>
    <path d="M71.875 68.75H75V71.875H71.875V68.75Z" fill="#D9D9D9"/>
    <path d="M75 68.75H78.125V71.875H75V68.75Z" fill="#D9D9D9"/>
    <path d="M78.125 68.75H81.25V71.875H78.125V68.75Z" fill="#D9D9D9"/>
    <path d="M81.25 68.75H84.375V71.875H81.25V68.75Z" fill="#D9D9D9"/>
    <path d="M84.375 68.75H87.5V71.875H84.375V68.75Z" fill="#D9D9D9"/>
    <path d="M87.5 68.75H90.625V71.875H87.5V68.75Z" fill="#D9D9D9"/>
    <path d="M90.625 68.75H93.75V71.875H90.625V68.75Z" fill="#D9D9D9"/>
    <path d="M93.75 68.75H96.875V71.875H93.75V68.75Z" fill="#A6A6A6"/>
    <path d="M96.875 68.75H100V71.875H96.875V68.75Z" fill="#A6A6A6"/>
    <path d="M0 71.875H3.125V75H0V71.875Z" fill="#A6A6A6"/>
    <path d="M3.125 71.875H6.25V75H3.125V71.875Z" fill="#A6A6A6"/>
    <path d="M6.25 71.875H9.375V75H6.25V71.875Z" fill="#D9D9D9"/>
    <path d="M9.375 71.875H12.5V75H9.375V71.875Z" fill="#D9D9D9"/>
    <path d="M12.5 71.875H15.625V75H12.5V71.875Z" fill="#D9D9D9"/>
    <path d="M15.625 71.875H18.75V75H15.625V71.875Z" fill="#D9D9D9"/>
    <path d="M18.75 71.875H21.875V75H18.75V71.875Z" fill="#D9D9D9"/>
    <path d="M21.875 71.875H25V75H21.875V71.875Z" fill="#D9D9D9"/>
    <path d="M25 71.875H28.125V75H25V71.875Z" fill="#D9D9D9"/>
    <path d="M28.125 71.875H31.25V75H28.125V71.875Z" fill="#D9D9D9"/>
    <path d="M31.25 71.875H34.375V75H31.25V71.875Z" fill="#D9D9D9"/>
    <path d="M34.375 71.875H37.5V75H34.375V71.875Z" fill="#D9D9D9"/>
    <path d="M37.5 71.875H40.625V75H37.5V71.875Z" fill="#D9D9D9"/>
    <path d="M40.625 71.875H43.75V75H40.625V71.875Z" fill="#D9D9D9"/>
    <path d="M43.75 71.875H46.875V75H43.75V71.875Z" fill="white"/>
    <path d="M46.875 71.875H50V75H46.875V71.875Z" fill="white"/>
    <path d="M50 71.875H53.125V75H50V71.875Z" fill="white"/>
    <path d="M53.125 71.875H56.25V75H53.125V71.875Z" fill="white"/>
    <path d="M56.25 71.875H59.375V75H56.25V71.875Z" fill="#D9D9D9"/>
    <path d="M59.375 71.875H62.5V75H59.375V71.875Z" fill="#D9D9D9"/>
    <path d="M62.5 71.875H65.625V75H62.5V71.875Z" fill="#D9D9D9"/>
    <path d="M65.625 71.875H68.75V75H65.625V71.875Z" fill="#D9D9D9"/>
    <path d="M68.75 71.875H71.875V75H68.75V71.875Z" fill="#D9D9D9"/>
    <path d="M71.875 71.875H75V75H71.875V71.875Z" fill="#D9D9D9"/>
    <path d="M75 71.875H78.125V75H75V71.875Z" fill="#D9D9D9"/>
    <path d="M78.125 71.875H81.25V75H78.125V71.875Z" fill="#D9D9D9"/>
    <path d="M81.25 71.875H84.375V75H81.25V71.875Z" fill="#D9D9D9"/>
    <path d="M84.375 71.875H87.5V75H84.375V71.875Z" fill="#D9D9D9"/>
    <path d="M87.5 71.875H90.625V75H87.5V71.875Z" fill="#D9D9D9"/>
    <path d="M90.625 71.875H93.75V75H90.625V71.875Z" fill="#D9D9D9"/>
    <path d="M93.75 71.875H96.875V75H93.75V71.875Z" fill="#A6A6A6"/>
    <path d="M96.875 71.875H100V75H96.875V71.875Z" fill="#A6A6A6"/>
</svg>
