<svg width="585" height="6" viewBox="0 0 585 6" fill="none" xmlns="http://www.w3.org/2000/svg">
    <rect width="3" height="3" fill="#D9D9D9"/>
    <rect x="3" y="3" width="3" height="3" fill="#D9D9D9"/>
    <rect x="6" width="3" height="3" fill="#D9D9D9"/>
    <rect x="9" y="3" width="3" height="3" fill="#D9D9D9"/>
    <rect x="12" width="3" height="3" fill="#D9D9D9"/>
    <rect x="15" y="3" width="3" height="3" fill="#D9D9D9"/>
    <rect x="18" width="3" height="3" fill="#D9D9D9"/>
    <rect x="21" y="3" width="3" height="3" fill="#D9D9D9"/>
    <rect x="24" width="3" height="3" fill="#D9D9D9"/>
    <rect x="27" y="3" width="3" height="3" fill="#D9D9D9"/>
    <rect x="30" width="3" height="3" fill="#D9D9D9"/>
    <rect x="33" y="3" width="3" height="3" fill="#D9D9D9"/>
    <rect x="36" width="3" height="3" fill="#D9D9D9"/>
    <rect x="39" y="3" width="3" height="3" fill="#D9D9D9"/>
    <rect x="42" width="3" height="3" fill="#D9D9D9"/>
    <rect x="45" y="3" width="3" height="3" fill="#D9D9D9"/>
    <rect x="48" width="3" height="3" fill="#D9D9D9"/>
    <rect x="51" y="3" width="3" height="3" fill="#D9D9D9"/>
    <rect x="54" width="3" height="3" fill="#D9D9D9"/>
    <rect x="57" y="3" width="3" height="3" fill="#D9D9D9"/>
    <rect x="60" width="3" height="3" fill="#D9D9D9"/>
    <rect x="63" y="3" width="3" height="3" fill="#D9D9D9"/>
    <rect x="66" width="3" height="3" fill="#D9D9D9"/>
    <rect x="69" y="3" width="3" height="3" fill="#D9D9D9"/>
    <rect x="72" width="3" height="3" fill="#D9D9D9"/>
    <rect x="75" y="3" width="3" height="3" fill="#D9D9D9"/>
    <rect x="78" width="3" height="3" fill="#D9D9D9"/>
    <rect x="81" y="3" width="3" height="3" fill="#D9D9D9"/>
    <rect x="84" width="3" height="3" fill="#D9D9D9"/>
    <rect x="87" y="3" width="3" height="3" fill="#D9D9D9"/>
    <rect x="90" width="3" height="3" fill="#D9D9D9"/>
    <rect x="93" y="3" width="3" height="3" fill="#D9D9D9"/>
    <rect x="96" width="3" height="3" fill="#D9D9D9"/>
    <rect x="99" y="3" width="3" height="3" fill="#D9D9D9"/>
    <rect x="102" width="3" height="3" fill="#D9D9D9"/>
    <rect x="105" y="3" width="3" height="3" fill="#D9D9D9"/>
    <rect x="108" width="3" height="3" fill="#D9D9D9"/>
    <rect x="111" y="3" width="3" height="3" fill="#D9D9D9"/>
    <rect x="114" width="3" height="3" fill="#D9D9D9"/>
    <rect x="117" y="3" width="3" height="3" fill="#D9D9D9"/>
    <rect x="120" width="3" height="3" fill="#D9D9D9"/>
    <rect x="123" y="3" width="3" height="3" fill="#D9D9D9"/>
    <rect x="126" width="3" height="3" fill="#D9D9D9"/>
    <rect x="129" y="3" width="3" height="3" fill="#D9D9D9"/>
    <rect x="132" width="3" height="3" fill="#D9D9D9"/>
    <rect x="135" y="3" width="3" height="3" fill="#D9D9D9"/>
    <rect x="138" width="3" height="3" fill="#D9D9D9"/>
    <rect x="141" y="3" width="3" height="3" fill="#D9D9D9"/>
    <rect x="144" width="3" height="3" fill="#D9D9D9"/>
    <rect x="147" y="3" width="3" height="3" fill="#D9D9D9"/>
    <rect x="150" width="3" height="3" fill="#D9D9D9"/>
    <rect x="153" y="3" width="3" height="3" fill="#D9D9D9"/>
    <rect x="156" width="3" height="3" fill="#D9D9D9"/>
    <rect x="159" y="3" width="3" height="3" fill="#D9D9D9"/>
    <rect x="162" width="3" height="3" fill="#D9D9D9"/>
    <rect x="165" y="3" width="3" height="3" fill="#D9D9D9"/>
    <rect x="168" width="3" height="3" fill="#D9D9D9"/>
    <rect x="171" y="3" width="3" height="3" fill="#D9D9D9"/>
    <rect x="174" width="3" height="3" fill="#D9D9D9"/>
    <rect x="177" y="3" width="3" height="3" fill="#D9D9D9"/>
    <rect x="180" width="3" height="3" fill="#D9D9D9"/>
    <rect x="183" y="3" width="3" height="3" fill="#D9D9D9"/>
    <rect x="186" width="3" height="3" fill="#D9D9D9"/>
    <rect x="189" y="3" width="3" height="3" fill="#D9D9D9"/>
    <rect x="192" width="3" height="3" fill="#D9D9D9"/>
    <rect x="195" y="3" width="3" height="3" fill="#D9D9D9"/>
    <rect x="198" width="3" height="3" fill="#D9D9D9"/>
    <rect x="201" y="3" width="3" height="3" fill="#D9D9D9"/>
    <rect x="204" width="3" height="3" fill="#D9D9D9"/>
    <rect x="207" y="3" width="3" height="3" fill="#D9D9D9"/>
    <rect x="210" width="3" height="3" fill="#D9D9D9"/>
    <rect x="213" y="3" width="3" height="3" fill="#D9D9D9"/>
    <rect x="216" width="3" height="3" fill="#D9D9D9"/>
    <rect x="219" y="3" width="3" height="3" fill="#D9D9D9"/>
    <rect x="222" width="3" height="3" fill="#D9D9D9"/>
    <rect x="225" y="3" width="3" height="3" fill="#D9D9D9"/>
    <rect x="228" width="3" height="3" fill="#D9D9D9"/>
    <rect x="231" y="3" width="3" height="3" fill="#D9D9D9"/>
    <rect x="234" width="3" height="3" fill="#D9D9D9"/>
    <rect x="237" y="3" width="3" height="3" fill="#D9D9D9"/>
    <rect x="240" width="3" height="3" fill="#D9D9D9"/>
    <rect x="243" y="3" width="3" height="3" fill="#D9D9D9"/>
    <rect x="246" width="3" height="3" fill="#D9D9D9"/>
    <rect x="249" y="3" width="3" height="3" fill="#D9D9D9"/>
    <rect x="252" width="3" height="3" fill="#D9D9D9"/>
    <rect x="255" y="3" width="3" height="3" fill="#D9D9D9"/>
    <rect x="258" width="3" height="3" fill="#D9D9D9"/>
    <rect x="261" y="3" width="3" height="3" fill="#D9D9D9"/>
    <rect x="264" width="3" height="3" fill="#D9D9D9"/>
    <rect x="267" y="3" width="3" height="3" fill="#D9D9D9"/>
    <rect x="270" width="3" height="3" fill="#D9D9D9"/>
    <rect x="273" y="3" width="3" height="3" fill="#D9D9D9"/>
    <rect x="276" width="3" height="3" fill="#D9D9D9"/>
    <rect x="279" y="3" width="3" height="3" fill="#D9D9D9"/>
    <rect x="282" width="3" height="3" fill="#D9D9D9"/>
    <rect x="285" y="3" width="3" height="3" fill="#D9D9D9"/>
    <rect x="288" width="3" height="3" fill="#D9D9D9"/>
    <rect x="291" y="3" width="3" height="3" fill="#D9D9D9"/>
    <rect x="294" width="3" height="3" fill="#D9D9D9"/>
    <rect x="297" y="3" width="3" height="3" fill="#D9D9D9"/>
    <rect x="300" width="3" height="3" fill="#D9D9D9"/>
    <rect x="303" y="3" width="3" height="3" fill="#D9D9D9"/>
    <rect x="306" width="3" height="3" fill="#D9D9D9"/>
    <rect x="309" y="3" width="3" height="3" fill="#D9D9D9"/>
    <rect x="312" width="3" height="3" fill="#D9D9D9"/>
    <rect x="315" y="3" width="3" height="3" fill="#D9D9D9"/>
    <rect x="318" width="3" height="3" fill="#D9D9D9"/>
    <rect x="321" y="3" width="3" height="3" fill="#D9D9D9"/>
    <rect x="324" width="3" height="3" fill="#D9D9D9"/>
    <rect x="327" y="3" width="3" height="3" fill="#D9D9D9"/>
    <rect x="330" width="3" height="3" fill="#D9D9D9"/>
    <rect x="333" y="3" width="3" height="3" fill="#D9D9D9"/>
    <rect x="336" width="3" height="3" fill="#D9D9D9"/>
    <rect x="339" y="3" width="3" height="3" fill="#D9D9D9"/>
    <rect x="342" width="3" height="3" fill="#D9D9D9"/>
    <rect x="345" y="3" width="3" height="3" fill="#D9D9D9"/>
    <rect x="348" width="3" height="3" fill="#D9D9D9"/>
    <rect x="351" y="3" width="3" height="3" fill="#D9D9D9"/>
    <rect x="354" width="3" height="3" fill="#D9D9D9"/>
    <rect x="357" y="3" width="3" height="3" fill="#D9D9D9"/>
    <rect x="360" width="3" height="3" fill="#D9D9D9"/>
    <rect x="363" y="3" width="3" height="3" fill="#D9D9D9"/>
    <rect x="366" width="3" height="3" fill="#D9D9D9"/>
    <rect x="369" y="3" width="3" height="3" fill="#D9D9D9"/>
    <rect x="372" width="3" height="3" fill="#D9D9D9"/>
    <rect x="375" y="3" width="3" height="3" fill="#D9D9D9"/>
    <rect x="378" width="3" height="3" fill="#D9D9D9"/>
    <rect x="381" y="3" width="3" height="3" fill="#D9D9D9"/>
    <rect x="384" width="3" height="3" fill="#D9D9D9"/>
    <rect x="387" y="3" width="3" height="3" fill="#D9D9D9"/>
    <rect x="390" width="3" height="3" fill="#D9D9D9"/>
    <rect x="393" y="3" width="3" height="3" fill="#D9D9D9"/>
    <rect x="396" width="3" height="3" fill="#D9D9D9"/>
    <rect x="399" y="3" width="3" height="3" fill="#D9D9D9"/>
    <rect x="402" width="3" height="3" fill="#D9D9D9"/>
    <rect x="405" y="3" width="3" height="3" fill="#D9D9D9"/>
    <rect x="408" width="3" height="3" fill="#D9D9D9"/>
    <rect x="411" y="3" width="3" height="3" fill="#D9D9D9"/>
    <rect x="414" width="3" height="3" fill="#D9D9D9"/>
    <rect x="417" y="3" width="3" height="3" fill="#D9D9D9"/>
    <rect x="420" width="3" height="3" fill="#D9D9D9"/>
    <rect x="423" y="3" width="3" height="3" fill="#D9D9D9"/>
    <rect x="426" width="3" height="3" fill="#D9D9D9"/>
    <rect x="429" y="3" width="3" height="3" fill="#D9D9D9"/>
    <rect x="432" width="3" height="3" fill="#D9D9D9"/>
    <rect x="435" y="3" width="3" height="3" fill="#D9D9D9"/>
    <rect x="438" width="3" height="3" fill="#D9D9D9"/>
    <rect x="441" y="3" width="3" height="3" fill="#D9D9D9"/>
    <rect x="444" width="3" height="3" fill="#D9D9D9"/>
    <rect x="447" y="3" width="3" height="3" fill="#D9D9D9"/>
    <rect x="450" width="3" height="3" fill="#D9D9D9"/>
    <rect x="453" y="3" width="3" height="3" fill="#D9D9D9"/>
    <rect x="456" width="3" height="3" fill="#D9D9D9"/>
    <rect x="459" y="3" width="3" height="3" fill="#D9D9D9"/>
    <rect x="462" width="3" height="3" fill="#D9D9D9"/>
    <rect x="465" y="3" width="3" height="3" fill="#D9D9D9"/>
    <rect x="468" width="3" height="3" fill="#D9D9D9"/>
    <rect x="471" y="3" width="3" height="3" fill="#D9D9D9"/>
    <rect x="474" width="3" height="3" fill="#D9D9D9"/>
    <rect x="477" y="3" width="3" height="3" fill="#D9D9D9"/>
    <rect x="480" width="3" height="3" fill="#D9D9D9"/>
    <rect x="483" y="3" width="3" height="3" fill="#D9D9D9"/>
    <rect x="486" width="3" height="3" fill="#D9D9D9"/>
    <rect x="489" y="3" width="3" height="3" fill="#D9D9D9"/>
    <rect x="492" width="3" height="3" fill="#D9D9D9"/>
    <rect x="495" y="3" width="3" height="3" fill="#D9D9D9"/>
    <rect x="498" width="3" height="3" fill="#D9D9D9"/>
    <rect x="501" y="3" width="3" height="3" fill="#D9D9D9"/>
    <rect x="504" width="3" height="3" fill="#D9D9D9"/>
    <rect x="507" y="3" width="3" height="3" fill="#D9D9D9"/>
    <rect x="510" width="3" height="3" fill="#D9D9D9"/>
    <rect x="513" y="3" width="3" height="3" fill="#D9D9D9"/>
    <rect x="516" width="3" height="3" fill="#D9D9D9"/>
    <rect x="519" y="3" width="3" height="3" fill="#D9D9D9"/>
    <rect x="522" width="3" height="3" fill="#D9D9D9"/>
    <rect x="525" y="3" width="3" height="3" fill="#D9D9D9"/>
    <rect x="528" width="3" height="3" fill="#D9D9D9"/>
    <rect x="531" y="3" width="3" height="3" fill="#D9D9D9"/>
    <rect x="534" width="3" height="3" fill="#D9D9D9"/>
    <rect x="537" y="3" width="3" height="3" fill="#D9D9D9"/>
    <rect x="540" width="3" height="3" fill="#D9D9D9"/>
    <rect x="543" y="3" width="3" height="3" fill="#D9D9D9"/>
    <rect x="546" width="3" height="3" fill="#D9D9D9"/>
    <rect x="549" y="3" width="3" height="3" fill="#D9D9D9"/>
    <rect x="552" width="3" height="3" fill="#D9D9D9"/>
    <rect x="555" y="3" width="3" height="3" fill="#D9D9D9"/>
    <rect x="558" width="3" height="3" fill="#D9D9D9"/>
    <rect x="561" y="3" width="3" height="3" fill="#D9D9D9"/>
    <rect x="564" width="3" height="3" fill="#D9D9D9"/>
    <rect x="567" y="3" width="3" height="3" fill="#D9D9D9"/>
    <rect x="570" width="3" height="3" fill="#D9D9D9"/>
    <rect x="573" y="3" width="3" height="3" fill="#D9D9D9"/>
    <rect x="576" width="3" height="3" fill="#D9D9D9"/>
    <rect x="579" y="3" width="3" height="3" fill="#D9D9D9"/>
    <rect x="582" width="3" height="3" fill="#D9D9D9"/>
</svg>
