<svg width="130" height="135" viewBox="0 0 130 135" fill="none" xmlns="http://www.w3.org/2000/svg">
    <path d="M11.25 129.375H16.875V135H11.25V129.375Z" fill="#838383"/>
    <path d="M16.875 129.375H22.5V135H16.875V129.375Z" fill="#838383"/>
    <path d="M22.5 129.375H28.125V135H22.5V129.375Z" fill="#838383"/>
    <path d="M28.125 129.375H33.75V135H28.125V129.375Z" fill="#838383"/>
    <path d="M33.75 129.375H39.375V135H33.75V129.375Z" fill="#838383"/>
    <path d="M39.375 129.375H45V135H39.375V129.375Z" fill="#838383"/>
    <path d="M45 129.375H50.625V135H45V129.375Z" fill="#838383"/>
    <path d="M50.625 129.375H56.25V135H50.625V129.375Z" fill="#838383"/>
    <path d="M56.25 129.375H61.875V135H56.25V129.375Z" fill="#838383"/>
    <path d="M61.875 129.375H67.5V135H61.875V129.375Z" fill="#838383"/>
    <path d="M67.5 129.375H73.125V135H67.5V129.375Z" fill="#838383"/>
    <path d="M73.125 129.375H78.75V135H73.125V129.375Z" fill="#838383"/>
    <path d="M78.75 129.375H84.375V135H78.75V129.375Z" fill="#838383"/>
    <path d="M84.375 129.375H90V135H84.375V129.375Z" fill="#838383"/>
    <path d="M90 129.375H95.625V135H90V129.375Z" fill="#838383"/>
    <path d="M5.625 123.75H11.25V129.375H5.625V123.75Z" fill="#838383"/>
    <path d="M11.25 123.75H16.875V129.375H11.25V123.75Z" fill="#CBCBCB"/>
    <path d="M16.875 123.75H22.5V129.375H16.875V123.75Z" fill="#CBCBCB"/>
    <path d="M22.5 123.75H28.125V129.375H22.5V123.75Z" fill="#CBCBCB"/>
    <path d="M28.125 123.75H33.75V129.375H28.125V123.75Z" fill="#CBCBCB"/>
    <path d="M33.75 123.75H39.375V129.375H33.75V123.75Z" fill="#CBCBCB"/>
    <path d="M39.375 123.75H45V129.375H39.375V123.75Z" fill="#CBCBCB"/>
    <path d="M45 123.75H50.625V129.375H45V123.75Z" fill="#CBCBCB"/>
    <path d="M50.625 123.75H56.25V129.375H50.625V123.75Z" fill="#CBCBCB"/>
    <path d="M56.25 123.75H61.875V129.375H56.25V123.75Z" fill="#CBCBCB"/>
    <path d="M61.875 123.75H67.5V129.375H61.875V123.75Z" fill="#CBCBCB"/>
    <path d="M67.5 123.75H73.125V129.375H67.5V123.75Z" fill="#CBCBCB"/>
    <path d="M73.125 123.75H78.75V129.375H73.125V123.75Z" fill="#CBCBCB"/>
    <path d="M78.75 123.75H84.375V129.375H78.75V123.75Z" fill="#979797"/>
    <path d="M84.375 123.75H90V129.375H84.375V123.75Z" fill="#E1E1E1"/>
    <path d="M90 123.75H95.625V129.375H90V123.75Z" fill="#E1E1E1"/>
    <path d="M95.625 123.75H101.25V129.375H95.625V123.75Z" fill="#838383"/>
    <path d="M0 118.125H5.625V123.75H0V118.125Z" fill="#838383"/>
    <path d="M5.625 118.125H11.25V123.75H5.625V118.125Z" fill="#CBCBCB"/>
    <path d="M11.25 118.125H16.875V123.75H11.25V118.125Z" fill="#CBCBCB"/>
    <path d="M16.875 118.125H22.5V123.75H16.875V118.125Z" fill="#CBCBCB"/>
    <path d="M22.5 118.125H28.125V123.75H22.5V118.125Z" fill="#CBCBCB"/>
    <path d="M28.125 118.125H33.75V123.75H28.125V118.125Z" fill="#CBCBCB"/>
    <path d="M33.75 118.125H39.375V123.75H33.75V118.125Z" fill="#CBCBCB"/>
    <path d="M39.375 118.125H45V123.75H39.375V118.125Z" fill="#CBCBCB"/>
    <path d="M45 118.125H50.625V123.75H45V118.125Z" fill="#CBCBCB"/>
    <path d="M50.625 118.125H56.25V123.75H50.625V118.125Z" fill="#CBCBCB"/>
    <path d="M56.25 118.125H61.875V123.75H56.25V118.125Z" fill="#CBCBCB"/>
    <path d="M61.875 118.125H67.5V123.75H61.875V118.125Z" fill="#CBCBCB"/>
    <path d="M67.5 118.125H73.125V123.75H67.5V118.125Z" fill="#CBCBCB"/>
    <path d="M73.125 118.125H78.75V123.75H73.125V118.125Z" fill="#979797"/>
    <path d="M78.75 118.125H84.375V123.75H78.75V118.125Z" fill="#E1E1E1"/>
    <path d="M84.375 118.125H90V123.75H84.375V118.125Z" fill="#E1E1E1"/>
    <path d="M90 118.125H95.625V123.75H90V118.125Z" fill="#E1E1E1"/>
    <path d="M95.625 118.125H101.25V123.75H95.625V118.125Z" fill="#E1E1E1"/>
    <path d="M101.25 118.125H106.875V123.75H101.25V118.125Z" fill="#838383"/>
    <path d="M0 112.5H5.625V118.125H0V112.5Z" fill="#838383"/>
    <path d="M5.625 112.5H11.25V118.125H5.625V112.5Z" fill="#CBCBCB"/>
    <path d="M11.25 112.5H16.875V118.125H11.25V112.5Z" fill="#CBCBCB"/>
    <path d="M16.875 112.5H22.5V118.125H16.875V112.5Z" fill="#CBCBCB"/>
    <path d="M22.5 112.5H28.125V118.125H22.5V112.5Z" fill="#CBCBCB"/>
    <path d="M28.125 112.5H33.75V118.125H28.125V112.5Z" fill="#CBCBCB"/>
    <path d="M33.75 112.5H39.375V118.125H33.75V112.5Z" fill="#CBCBCB"/>
    <path d="M39.375 112.5H45V118.125H39.375V112.5Z" fill="#CBCBCB"/>
    <path d="M45 112.5H50.625V118.125H45V112.5Z" fill="#CBCBCB"/>
    <path d="M50.625 112.5H56.25V118.125H50.625V112.5Z" fill="#CBCBCB"/>
    <path d="M56.25 112.5H61.875V118.125H56.25V112.5Z" fill="#CBCBCB"/>
    <path d="M61.875 112.5H67.5V118.125H61.875V112.5Z" fill="#CBCBCB"/>
    <path d="M67.5 112.5H73.125V118.125H67.5V112.5Z" fill="#CBCBCB"/>
    <path d="M73.125 112.5H78.75V118.125H73.125V112.5Z" fill="#979797"/>
    <path d="M78.75 112.5H84.375V118.125H78.75V112.5Z" fill="#E1E1E1"/>
    <path d="M84.375 112.5H90V118.125H84.375V112.5Z" fill="#E1E1E1"/>
    <path d="M90 112.5H95.625V118.125H90V112.5Z" fill="#E1E1E1"/>
    <path d="M95.625 112.5H101.25V118.125H95.625V112.5Z" fill="#E1E1E1"/>
    <path d="M101.25 112.5H106.875V118.125H101.25V112.5Z" fill="#838383"/>
    <path d="M0 106.875H5.625V112.5H0V106.875Z" fill="#838383"/>
    <path d="M5.625 106.875H11.25V112.5H5.625V106.875Z" fill="#CBCBCB"/>
    <path d="M11.25 106.875H16.875V112.5H11.25V106.875Z" fill="#CBCBCB"/>
    <path d="M16.875 106.875H22.5V112.5H16.875V106.875Z" fill="#CBCBCB"/>
    <path d="M22.5 106.875H28.125V112.5H22.5V106.875Z" fill="#CBCBCB"/>
    <path d="M28.125 106.875H33.75V112.5H28.125V106.875Z" fill="#CBCBCB"/>
    <path d="M33.75 106.875H39.375V112.5H33.75V106.875Z" fill="#CBCBCB"/>
    <path d="M39.375 106.875H45V112.5H39.375V106.875Z" fill="#CBCBCB"/>
    <path d="M45 106.875H50.625V112.5H45V106.875Z" fill="#CBCBCB"/>
    <path d="M50.625 106.875H56.25V112.5H50.625V106.875Z" fill="#CBCBCB"/>
    <path d="M56.25 106.875H61.875V112.5H56.25V106.875Z" fill="#CBCBCB"/>
    <path d="M61.875 106.875H67.5V112.5H61.875V106.875Z" fill="#CBCBCB"/>
    <path d="M67.5 106.875H73.125V112.5H67.5V106.875Z" fill="#CBCBCB"/>
    <path d="M73.125 106.875H78.75V112.5H73.125V106.875Z" fill="#979797"/>
    <path d="M78.75 106.875H84.375V112.5H78.75V106.875Z" fill="#E1E1E1"/>
    <path d="M84.375 106.875H90V112.5H84.375V106.875Z" fill="#E1E1E1"/>
    <path d="M90 106.875H95.625V112.5H90V106.875Z" fill="#E1E1E1"/>
    <path d="M95.625 106.875H101.25V112.5H95.625V106.875Z" fill="#E1E1E1"/>
    <path d="M101.25 106.875H106.875V112.5H101.25V106.875Z" fill="#838383"/>
    <path d="M0 101.25H5.625V106.875H0V101.25Z" fill="#838383"/>
    <path d="M5.625 101.25H11.25V106.875H5.625V101.25Z" fill="#CBCBCB"/>
    <path d="M11.25 101.25H16.875V106.875H11.25V101.25Z" fill="#CBCBCB"/>
    <path d="M16.875 101.25H22.5V106.875H16.875V101.25Z" fill="#CBCBCB"/>
    <path d="M22.5 101.25H28.125V106.875H22.5V101.25Z" fill="#CBCBCB"/>
    <path d="M28.125 101.25H33.75V106.875H28.125V101.25Z" fill="#CBCBCB"/>
    <path d="M33.75 101.25H39.375V106.875H33.75V101.25Z" fill="#CBCBCB"/>
    <path d="M39.375 101.25H45V106.875H39.375V101.25Z" fill="#CBCBCB"/>
    <path d="M45 101.25H50.625V106.875H45V101.25Z" fill="#CBCBCB"/>
    <path d="M50.625 101.25H56.25V106.875H50.625V101.25Z" fill="#CBCBCB"/>
    <path d="M56.25 101.25H61.875V106.875H56.25V101.25Z" fill="#CBCBCB"/>
    <path d="M61.875 101.25H67.5V106.875H61.875V101.25Z" fill="#CBCBCB"/>
    <path d="M67.5 101.25H73.125V106.875H67.5V101.25Z" fill="#CBCBCB"/>
    <path d="M73.125 101.25H78.75V106.875H73.125V101.25Z" fill="#979797"/>
    <path d="M78.75 101.25H84.375V106.875H78.75V101.25Z" fill="#E1E1E1"/>
    <path d="M84.375 101.25H90V106.875H84.375V101.25Z" fill="#E1E1E1"/>
    <path d="M90 101.25H95.625V106.875H90V101.25Z" fill="#E1E1E1"/>
    <path d="M95.625 101.25H101.25V106.875H95.625V101.25Z" fill="#E1E1E1"/>
    <path d="M101.25 101.25H106.875V106.875H101.25V101.25Z" fill="#838383"/>
    <path d="M5.625 95.625H11.25V101.25H5.625V95.625Z" fill="#838383"/>
    <path d="M11.25 95.625H16.875V101.25H11.25V95.625Z" fill="#838383"/>
    <path d="M16.875 95.625H22.5V101.25H16.875V95.625Z" fill="#979797"/>
    <path d="M22.5 95.625H28.125V101.25H22.5V95.625Z" fill="#979797"/>
    <path d="M28.125 95.625H33.75V101.25H28.125V95.625Z" fill="#979797"/>
    <path d="M33.75 95.625H39.375V101.25H33.75V95.625Z" fill="#979797"/>
    <path d="M39.375 95.625H45V101.25H39.375V95.625Z" fill="#979797"/>
    <path d="M45 95.625H50.625V101.25H45V95.625Z" fill="#979797"/>
    <path d="M50.625 95.625H56.25V101.25H50.625V95.625Z" fill="#979797"/>
    <path d="M56.25 95.625H61.875V101.25H56.25V95.625Z" fill="#979797"/>
    <path d="M61.875 95.625H67.5V101.25H61.875V95.625Z" fill="#979797"/>
    <path d="M67.5 95.625H73.125V101.25H67.5V95.625Z" fill="#979797"/>
    <path d="M73.125 95.625H78.75V101.25H73.125V95.625Z" fill="#E1E1E1"/>
    <path d="M78.75 95.625H84.375V101.25H78.75V95.625Z" fill="#E1E1E1"/>
    <path d="M84.375 95.625H90V101.25H84.375V95.625Z" fill="#E1E1E1"/>
    <path d="M90 95.625H95.625V101.25H90V95.625Z" fill="#E1E1E1"/>
    <path d="M95.625 95.625H101.25V101.25H95.625V95.625Z" fill="#E1E1E1"/>
    <path d="M101.25 95.625H106.875V101.25H101.25V95.625Z" fill="#838383"/>
    <path d="M16.875 90H22.5V95.625H16.875L16.875 90Z" fill="#838383"/>
    <path d="M22.5 90H28.125V95.625H22.5V90Z" fill="#F1F1F1"/>
    <path d="M28.125 90H33.75V95.625H28.125V90Z" fill="#F1F1F1"/>
    <path d="M33.75 90H39.375V95.625H33.75V90Z" fill="#F1F1F1"/>
    <path d="M39.375 90H45V95.625H39.375V90Z" fill="#F1F1F1"/>
    <path d="M45 90H50.625V95.625H45V90Z" fill="#F1F1F1"/>
    <path d="M50.625 90H56.25V95.625H50.625V90Z" fill="#F1F1F1"/>
    <path d="M56.25 90H61.875V95.625H56.25V90Z" fill="#F1F1F1"/>
    <path d="M61.875 90H67.5V95.625H61.875V90Z" fill="#E1E1E1"/>
    <path d="M67.5 90H73.125V95.625H67.5V90Z" fill="#E1E1E1"/>
    <path d="M73.125 90H78.75V95.625H73.125V90Z" fill="#E1E1E1"/>
    <path d="M78.75 90H84.375V95.625H78.75V90Z" fill="#E1E1E1"/>
    <path d="M84.375 90H90V95.625H84.375V90Z" fill="#E1E1E1"/>
    <path d="M90 90H95.625V95.625H90V90Z" fill="#E1E1E1"/>
    <path d="M95.625 90H101.25V95.625H95.625V90Z" fill="#E1E1E1"/>
    <path d="M101.25 90H106.875V95.625H101.25V90Z" fill="#838383"/>
    <path d="M16.875 84.375H22.5V90H16.875V84.375Z" fill="#838383"/>
    <path d="M22.5 84.375H28.125V90H22.5V84.375Z" fill="#F1F1F1"/>
    <path d="M28.125 84.375H33.75V90H28.125V84.375Z" fill="#F1F1F1"/>
    <path d="M33.75 84.375H39.375V90H33.75V84.375Z" fill="#F1F1F1"/>
    <path d="M39.375 84.375H45V90H39.375V84.375Z" fill="#F1F1F1"/>
    <path d="M45 84.375H50.625V90H45V84.375Z" fill="#F1F1F1"/>
    <path d="M50.625 84.375H56.25V90H50.625V84.375Z" fill="#F1F1F1"/>
    <path d="M56.25 84.375H61.875V90H56.25V84.375Z" fill="#F1F1F1"/>
    <path d="M61.875 84.375H67.5V90H61.875V84.375Z" fill="#E1E1E1"/>
    <path d="M67.5 84.375H73.125V90H67.5V84.375Z" fill="#E1E1E1"/>
    <path d="M73.125 84.375H78.75V90H73.125V84.375Z" fill="#E1E1E1"/>
    <path d="M78.75 84.375H84.375V90H78.75V84.375Z" fill="#E1E1E1"/>
    <path d="M84.375 84.375H90V90H84.375V84.375Z" fill="#E1E1E1"/>
    <path d="M90 84.375H95.625V90H90V84.375Z" fill="#E1E1E1"/>
    <path d="M95.625 84.375H101.25V90H95.625V84.375Z" fill="#E1E1E1"/>
    <path d="M101.25 84.375H106.875V90H101.25V84.375Z" fill="#838383"/>
    <path d="M16.875 78.75H22.5V84.375H16.875V78.75Z" fill="#838383"/>
    <path d="M22.5 78.75H28.125V84.375H22.5V78.75Z" fill="#F1F1F1"/>
    <path d="M28.125 78.75H33.75V84.375H28.125V78.75Z" fill="#7C7C7C"/>
    <path d="M33.75 78.75H39.375V84.375H33.75V78.75Z" fill="#7C7C7C"/>
    <path d="M39.375 78.75H45V84.375H39.375V78.75Z" fill="#7C7C7C"/>
    <path d="M45 78.75H50.625V84.375H45V78.75Z" fill="#7C7C7C"/>
    <path d="M50.625 78.75H56.25V84.375H50.625V78.75Z" fill="#7C7C7C"/>
    <path d="M56.25 78.75H61.875V84.375H56.25V78.75Z" fill="#7C7C7C"/>
    <path d="M61.875 78.75H67.5V84.375H61.875V78.75Z" fill="#7C7C7C"/>
    <path d="M67.5 78.75H73.125V84.375H67.5V78.75Z" fill="#7C7C7C"/>
    <path d="M73.125 78.75H78.75V84.375H73.125V78.75Z" fill="#7C7C7C"/>
    <path d="M78.75 78.75H84.375V84.375H78.75V78.75Z" fill="#7C7C7C"/>
    <path d="M84.375 78.75H90V84.375H84.375V78.75Z" fill="#E1E1E1"/>
    <path d="M90 78.75H95.625V84.375H90V78.75Z" fill="#E1E1E1"/>
    <path d="M95.625 78.75H101.25V84.375H95.625V78.75Z" fill="#E1E1E1"/>
    <path d="M101.25 78.75H106.875V84.375H101.25V78.75Z" fill="#838383"/>
    <path d="M16.875 73.125H22.5V78.75H16.875V73.125Z" fill="#838383"/>
    <path d="M22.5 73.125H28.125V78.75H22.5V73.125Z" fill="#F1F1F1"/>
    <path d="M28.125 73.125H33.75V78.75H28.125V73.125Z" fill="#F1F1F1"/>
    <path d="M33.75 73.125H39.375V78.75H33.75V73.125Z" fill="#F1F1F1"/>
    <path d="M39.375 73.125H45V78.75H39.375V73.125Z" fill="#F1F1F1"/>
    <path d="M45 73.125H50.625V78.75H45V73.125Z" fill="#F1F1F1"/>
    <path d="M50.625 73.125H56.25V78.75H50.625V73.125Z" fill="#F1F1F1"/>
    <path d="M56.25 73.125H61.875V78.75H56.25V73.125Z" fill="#E1E1E1"/>
    <path d="M61.875 73.125H67.5V78.75H61.875V73.125Z" fill="#E1E1E1"/>
    <path d="M67.5 73.125H73.125V78.75H67.5V73.125Z" fill="#E1E1E1"/>
    <path d="M73.125 73.125H78.75V78.75H73.125V73.125Z" fill="#E1E1E1"/>
    <path d="M78.75 73.125H84.375V78.75H78.75V73.125Z" fill="#E1E1E1"/>
    <path d="M84.375 73.125H90V78.75H84.375V73.125Z" fill="#E1E1E1"/>
    <path d="M90 73.125H95.625V78.75H90V73.125Z" fill="#E1E1E1"/>
    <path d="M95.625 73.125H101.25V78.75H95.625V73.125Z" fill="#E1E1E1"/>
    <path d="M101.25 73.125H106.875V78.75H101.25V73.125Z" fill="#838383"/>
    <path d="M16.875 67.5H22.5V73.125H16.875V67.5Z" fill="#838383"/>
    <path d="M22.5 67.5H28.125V73.125H22.5V67.5Z" fill="#F1F1F1"/>
    <path d="M28.125 67.5H33.75V73.125H28.125V67.5Z" fill="#7C7C7C"/>
    <path d="M33.75 67.5H39.375V73.125H33.75V67.5Z" fill="#7C7C7C"/>
    <path d="M39.375 67.5H45V73.125H39.375V67.5Z" fill="#7C7C7C"/>
    <path d="M45 67.5H50.625V73.125H45V67.5Z" fill="#7C7C7C"/>
    <path d="M50.625 67.5H56.25V73.125H50.625V67.5Z" fill="#7C7C7C"/>
    <path d="M56.25 67.5H61.875V73.125H56.25V67.5Z" fill="#E1E1E1"/>
    <path d="M61.875 67.5H67.5V73.125H61.875V67.5Z" fill="#E1E1E1"/>
    <path d="M67.5 67.5H73.125V73.125H67.5V67.5Z" fill="#E1E1E1"/>
    <path d="M73.125 67.5H78.75V73.125H73.125V67.5Z" fill="#E1E1E1"/>
    <path d="M78.75 67.5H84.375V73.125H78.75V67.5Z" fill="#E1E1E1"/>
    <path d="M84.375 67.5H90V73.125H84.375V67.5Z" fill="#E1E1E1"/>
    <path d="M90 67.5H95.625V73.125H90V67.5Z" fill="#E1E1E1"/>
    <path d="M95.625 67.5H101.25V73.125H95.625V67.5Z" fill="#E1E1E1"/>
    <path d="M101.25 67.5H106.875V73.125H101.25V67.5Z" fill="#838383"/>
    <path d="M16.875 61.875H22.5V67.5H16.875V61.875Z" fill="#838383"/>
    <path d="M22.5 61.875H28.125V67.5H22.5V61.875Z" fill="#F1F1F1"/>
    <path d="M28.125 61.875H33.75V67.5H28.125V61.875Z" fill="#F1F1F1"/>
    <path d="M33.75 61.875H39.375V67.5H33.75V61.875Z" fill="#F1F1F1"/>
    <path d="M39.375 61.875H45V67.5H39.375V61.875Z" fill="#F1F1F1"/>
    <path d="M45 61.875H50.625V67.5H45V61.875Z" fill="#F1F1F1"/>
    <path d="M50.625 61.875H56.25V67.5H50.625V61.875Z" fill="#F1F1F1"/>
    <path d="M56.25 61.875H61.875V67.5H56.25V61.875Z" fill="#E1E1E1"/>
    <path d="M61.875 61.875H67.5V67.5H61.875V61.875Z" fill="#E1E1E1"/>
    <path d="M67.5 61.875H73.125V67.5H67.5V61.875Z" fill="#E1E1E1"/>
    <path d="M73.125 61.875H78.75V67.5H73.125V61.875Z" fill="#E1E1E1"/>
    <path d="M78.75 61.875H84.375V67.5H78.75V61.875Z" fill="#E1E1E1"/>
    <path d="M84.375 61.875H90V67.5H84.375V61.875Z" fill="#E1E1E1"/>
    <path d="M90 61.875H95.625V67.5H90V61.875Z" fill="#E1E1E1"/>
    <path d="M95.625 61.875H101.25V67.5H95.625V61.875Z" fill="#E1E1E1"/>
    <path d="M101.25 61.875H106.875V67.5H101.25V61.875Z" fill="#838383"/>
    <path d="M16.875 56.25H22.5V61.875H16.875V56.25Z" fill="#838383"/>
    <path d="M22.5 56.25H28.125V61.875H22.5V56.25Z" fill="#F1F1F1"/>
    <path d="M28.125 56.25H33.75V61.875H28.125V56.25Z" fill="#7C7C7C"/>
    <path d="M33.75 56.25H39.375V61.875H33.75V56.25Z" fill="#7C7C7C"/>
    <path d="M39.375 56.25H45V61.875H39.375V56.25Z" fill="#7C7C7C"/>
    <path d="M45 56.25H50.625V61.875H45V56.25Z" fill="#7C7C7C"/>
    <path d="M50.625 56.25H56.25V61.875H50.625V56.25Z" fill="#7C7C7C"/>
    <path d="M56.25 56.25H61.875V61.875H56.25V56.25Z" fill="#7C7C7C"/>
    <path d="M61.875 56.25H67.5V61.875H61.875V56.25Z" fill="#7C7C7C"/>
    <path d="M67.5 56.25H73.125V61.875H67.5V56.25Z" fill="#7C7C7C"/>
    <path d="M73.125 56.25H78.75V61.875H73.125V56.25Z" fill="#E1E1E1"/>
    <path d="M78.75 56.25H84.375V61.875H78.75V56.25Z" fill="#E1E1E1"/>
    <path d="M84.375 56.25H90V61.875H84.375V56.25Z" fill="#E1E1E1"/>
    <path d="M90 56.25H95.625V61.875H90V56.25Z" fill="#E1E1E1"/>
    <path d="M95.625 56.25H101.25V61.875H95.625V56.25Z" fill="#E1E1E1"/>
    <path d="M101.25 56.25H106.875V61.875H101.25V56.25Z" fill="#838383"/>
    <path d="M16.875 50.625H22.5V56.25H16.875V50.625Z" fill="#838383"/>
    <path d="M22.5 50.625H28.125V56.25H22.5V50.625Z" fill="#F1F1F1"/>
    <path d="M28.125 50.625H33.75V56.25H28.125V50.625Z" fill="#F1F1F1"/>
    <path d="M33.75 50.625H39.375V56.25H33.75V50.625Z" fill="#F1F1F1"/>
    <path d="M39.375 50.625H45V56.25H39.375V50.625Z" fill="#F1F1F1"/>
    <path d="M45 50.625H50.625V56.25H45V50.625Z" fill="#F1F1F1"/>
    <path d="M50.625 50.625H56.25V56.25H50.625V50.625Z" fill="#F1F1F1"/>
    <path d="M56.25 50.625H61.875V56.25H56.25V50.625Z" fill="#E1E1E1"/>
    <path d="M61.875 50.625H67.5V56.25H61.875V50.625Z" fill="#E1E1E1"/>
    <path d="M67.5 50.625H73.125V56.25H67.5V50.625Z" fill="#E1E1E1"/>
    <path d="M73.125 50.625H78.75V56.25H73.125V50.625Z" fill="#E1E1E1"/>
    <path d="M78.75 50.625H84.375V56.25H78.75V50.625Z" fill="#E1E1E1"/>
    <path d="M84.375 50.625H90V56.25H84.375V50.625Z" fill="#E1E1E1"/>
    <path d="M90 50.625H95.625V56.25H90V50.625Z" fill="#E1E1E1"/>
    <path d="M95.625 50.625H101.25V56.25H95.625V50.625Z" fill="#E1E1E1"/>
    <path d="M101.25 50.625H106.875V56.25H101.25V50.625Z" fill="#838383"/>
    <path d="M16.875 45H22.5V50.625H16.875V45Z" fill="#838383"/>
    <path d="M22.5 45H28.125V50.625H22.5V45Z" fill="#F1F1F1"/>
    <path d="M28.125 45H33.75V50.625H28.125V45Z" fill="#7C7C7C"/>
    <path d="M33.75 45H39.375V50.625H33.75V45Z" fill="#7C7C7C"/>
    <path d="M39.375 45H45V50.625H39.375V45Z" fill="#7C7C7C"/>
    <path d="M45 45H50.625V50.625H45V45Z" fill="#7C7C7C"/>
    <path d="M50.625 45H56.25V50.625H50.625V45Z" fill="#F1F1F1"/>
    <path d="M56.25 45H61.875V50.625H56.25V45Z" fill="#F1F1F1"/>
    <path d="M61.875 45H67.5V50.625H61.875V45Z" fill="#E1E1E1"/>
    <path d="M67.5 45H73.125V50.625H67.5V45Z" fill="#E1E1E1"/>
    <path d="M73.125 45H78.75V50.625H73.125V45Z" fill="#E1E1E1"/>
    <path d="M78.75 45H84.375V50.625H78.75V45Z" fill="#E1E1E1"/>
    <path d="M84.375 45H90V50.625H84.375V45Z" fill="#E1E1E1"/>
    <path d="M90 45H95.625V50.625H90V45Z" fill="#E1E1E1"/>
    <path d="M95.625 45H101.25V50.625H95.625V45Z" fill="#E1E1E1"/>
    <path d="M101.25 45H106.875V50.625H101.25V45Z" fill="#838383"/>
    <path d="M16.875 39.375H22.5V45H16.875V39.375Z" fill="#838383"/>
    <path d="M22.5 39.375H28.125V45H22.5V39.375Z" fill="#F1F1F1"/>
    <path d="M28.125 39.375H33.75V45H28.125V39.375Z" fill="#F1F1F1"/>
    <path d="M33.75 39.375H39.375V45H33.75V39.375Z" fill="#F1F1F1"/>
    <path d="M39.375 39.375H45V45H39.375V39.375Z" fill="#F1F1F1"/>
    <path d="M45 39.375H50.625V45H45V39.375Z" fill="#F1F1F1"/>
    <path d="M50.625 39.375H56.25V45H50.625V39.375Z" fill="#F1F1F1"/>
    <path d="M56.25 39.375H61.875V45H56.25V39.375Z" fill="#F1F1F1"/>
    <path d="M61.875 39.375H67.5V45H61.875V39.375Z" fill="#E1E1E1"/>
    <path d="M67.5 39.375H73.125V45H67.5V39.375Z" fill="#E1E1E1"/>
    <path d="M73.125 39.375H78.75V45H73.125V39.375Z" fill="#E1E1E1"/>
    <path d="M78.75 39.375H84.375V45H78.75V39.375Z" fill="#E1E1E1"/>
    <path d="M84.375 39.375H90V45H84.375V39.375Z" fill="#E1E1E1"/>
    <path d="M90 39.375H95.625V45H90V39.375Z" fill="#E1E1E1"/>
    <path d="M95.625 39.375H101.25V45H95.625V39.375Z" fill="#E1E1E1"/>
    <path d="M101.25 39.375H106.875V45H101.25V39.375Z" fill="#979797"/>
    <path d="M106.875 39.375H112.5V45L106.875 45V39.375Z" fill="#838383"/>
    <path d="M112.5 39.375H118.125V45H112.5V39.375Z" fill="#838383"/>
    <path d="M118.125 39.375H123.75V45H118.125V39.375Z" fill="#838383"/>
    <path d="M16.875 33.75H22.5V39.375H16.875V33.75Z" fill="#838383"/>
    <path d="M22.5 33.75H28.125V39.375H22.5V33.75Z" fill="#F1F1F1"/>
    <path d="M28.125 33.75H33.75V39.375H28.125V33.75Z" fill="#7C7C7C"/>
    <path d="M33.75 33.75H39.375V39.375H33.75V33.75Z" fill="#7C7C7C"/>
    <path d="M39.375 33.75H45V39.375H39.375V33.75Z" fill="#7C7C7C"/>
    <path d="M45 33.75H50.625V39.375H45V33.75Z" fill="#7C7C7C"/>
    <path d="M50.625 33.75H56.25V39.375H50.625V33.75Z" fill="#7C7C7C"/>
    <path d="M56.25 33.75H61.875V39.375H56.25V33.75Z" fill="#7C7C7C"/>
    <path d="M61.875 33.75H67.5V39.375H61.875V33.75Z" fill="#7C7C7C"/>
    <path d="M67.5 33.75H73.125V39.375H67.5V33.75Z" fill="#7C7C7C"/>
    <path d="M73.125 33.75H78.75V39.375H73.125V33.75Z" fill="#7C7C7C"/>
    <path d="M78.75 33.75H84.375V39.375H78.75V33.75Z" fill="#7C7C7C"/>
    <path d="M84.375 33.75H90V39.375H84.375V33.75Z" fill="#E1E1E1"/>
    <path d="M90 33.75H95.625V39.375H90V33.75Z" fill="#E1E1E1"/>
    <path d="M95.625 33.75H101.25V39.375H95.625V33.75Z" fill="#E1E1E1"/>
    <path d="M101.25 33.75H106.875V39.375H101.25V33.75Z" fill="#979797"/>
    <path d="M106.875 33.75H112.5V39.375H106.875V33.75Z" fill="#E1E1E1"/>
    <path d="M112.5 33.75H118.125V39.375H112.5V33.75Z" fill="#E1E1E1"/>
    <path d="M118.125 33.75H123.75V39.375H118.125V33.75Z" fill="#E1E1E1"/>
    <path d="M16.875 28.125H22.5V33.75H16.875V28.125Z" fill="#838383"/>
    <path d="M22.5 28.125H28.125V33.75H22.5V28.125Z" fill="#F1F1F1"/>
    <path d="M28.125 28.125H33.75V33.75H28.125V28.125Z" fill="#F1F1F1"/>
    <path d="M33.75 28.125H39.375V33.75H33.75V28.125Z" fill="#F1F1F1"/>
    <path d="M39.375 28.125H45V33.75H39.375V28.125Z" fill="#F1F1F1"/>
    <path d="M45 28.125H50.625V33.75H45V28.125Z" fill="#F1F1F1"/>
    <path d="M50.625 28.125H56.25V33.75H50.625V28.125Z" fill="#F1F1F1"/>
    <path d="M56.25 28.125H61.875V33.75H56.25V28.125Z" fill="#F1F1F1"/>
    <path d="M61.875 28.125H67.5V33.75H61.875V28.125Z" fill="#E1E1E1"/>
    <path d="M67.5 28.125H73.125V33.75H67.5V28.125Z" fill="#E1E1E1"/>
    <path d="M73.125 28.125H78.75V33.75H73.125V28.125Z" fill="#E1E1E1"/>
    <path d="M78.75 28.125H84.375V33.75H78.75V28.125Z" fill="#E1E1E1"/>
    <path d="M84.375 28.125H90V33.75H84.375V28.125Z" fill="#E1E1E1"/>
    <path d="M90 28.125H95.625V33.75H90V28.125Z" fill="#E1E1E1"/>
    <path d="M95.625 28.125H101.25V33.75H95.625V28.125Z" fill="#E1E1E1"/>
    <path d="M101.25 28.125H106.875V33.75H101.25V28.125Z" fill="#979797"/>
    <path d="M106.875 28.125H112.5V33.75H106.875V28.125Z" fill="#E1E1E1"/>
    <path d="M112.5 28.125H118.125V33.75H112.5V28.125Z" fill="#E1E1E1"/>
    <path d="M118.125 28.125H123.75V33.75H118.125V28.125Z" fill="#E1E1E1"/>
    <path d="M16.875 22.5H22.5V28.125H16.875V22.5Z" fill="#838383"/>
    <path d="M22.5 22.5H28.125V28.125H22.5V22.5Z" fill="#F1F1F1"/>
    <path d="M28.125 22.5H33.75V28.125H28.125V22.5Z" fill="#F1F1F1"/>
    <path d="M33.75 22.5H39.375V28.125H33.75V22.5Z" fill="#F1F1F1"/>
    <path d="M39.375 22.5H45V28.125H39.375V22.5Z" fill="#F1F1F1"/>
    <path d="M45 22.5H50.625V28.125H45V22.5Z" fill="#F1F1F1"/>
    <path d="M50.625 22.5H56.25V28.125H50.625V22.5Z" fill="#F1F1F1"/>
    <path d="M56.25 22.5H61.875V28.125H56.25V22.5Z" fill="#F1F1F1"/>
    <path d="M61.875 22.5H67.5V28.125H61.875V22.5Z" fill="#E1E1E1"/>
    <path d="M67.5 22.5H73.125V28.125H67.5V22.5Z" fill="#E1E1E1"/>
    <path d="M73.125 22.5H78.75V28.125H73.125V22.5Z" fill="#E1E1E1"/>
    <path d="M78.75 22.5H84.375V28.125H78.75V22.5Z" fill="#E1E1E1"/>
    <path d="M84.375 22.5H90V28.125H84.375V22.5Z" fill="#E1E1E1"/>
    <path d="M90 22.5H95.625V28.125H90V22.5Z" fill="#E1E1E1"/>
    <path d="M95.625 22.5H101.25V28.125H95.625V22.5Z" fill="#E1E1E1"/>
    <path d="M101.25 22.5H106.875V28.125H101.25V22.5Z" fill="#979797"/>
    <path d="M106.875 22.5H112.5V28.125H106.875V22.5Z" fill="#E1E1E1"/>
    <path d="M112.5 22.5H118.125V28.125H112.5V22.5Z" fill="#E1E1E1"/>
    <path d="M118.125 22.5H123.75V28.125H118.125V22.5Z" fill="#E1E1E1"/>
    <path d="M16.875 16.875H22.5V22.5H16.875V16.875Z" fill="#838383"/>
    <path d="M22.5 16.875H28.125V22.5H22.5V16.875Z" fill="#F1F1F1"/>
    <path d="M28.125 16.875H33.75V22.5H28.125V16.875Z" fill="#F1F1F1"/>
    <path d="M33.75 16.875H39.375V22.5H33.75V16.875Z" fill="#F1F1F1"/>
    <path d="M39.375 16.875H45V22.5H39.375V16.875Z" fill="#F1F1F1"/>
    <path d="M45 16.875H50.625V22.5H45V16.875Z" fill="#F1F1F1"/>
    <path d="M50.625 16.875H56.25V22.5H50.625V16.875Z" fill="#F1F1F1"/>
    <path d="M56.25 16.875H61.875V22.5H56.25V16.875Z" fill="#F1F1F1"/>
    <path d="M61.875 16.875H67.5V22.5H61.875V16.875Z" fill="#F1F1F1"/>
    <path d="M67.5 16.875H73.125V22.5H67.5V16.875Z" fill="#E1E1E1"/>
    <path d="M73.125 16.875H78.75V22.5H73.125V16.875Z" fill="#E1E1E1"/>
    <path d="M78.75 16.875H84.375V22.5H78.75V16.875Z" fill="#E1E1E1"/>
    <path d="M84.375 16.875H90V22.5H84.375V16.875Z" fill="#E1E1E1"/>
    <path d="M90 16.875H95.625V22.5H90V16.875Z" fill="#E1E1E1"/>
    <path d="M95.625 16.875H101.25V22.5H95.625V16.875Z" fill="#E1E1E1"/>
    <path d="M101.25 16.875H106.875V22.5H101.25V16.875Z" fill="#979797"/>
    <path d="M106.875 16.875H112.5V22.5H106.875V16.875Z" fill="#E1E1E1"/>
    <path d="M112.5 16.875H118.125V22.5H112.5V16.875Z" fill="#E1E1E1"/>
    <path d="M118.125 16.875H123.75V22.5H118.125V16.875Z" fill="#E1E1E1"/>
    <path d="M16.875 11.25H22.5V16.875H16.875V11.25Z" fill="#838383"/>
    <path d="M22.5 11.25H28.125V16.875H22.5V11.25Z" fill="#F1F1F1"/>
    <path d="M28.125 11.25H33.75V16.875H28.125V11.25Z" fill="#F1F1F1"/>
    <path d="M33.75 11.25H39.375V16.875H33.75V11.25Z" fill="#F1F1F1"/>
    <path d="M39.375 11.25H45V16.875H39.375V11.25Z" fill="#F1F1F1"/>
    <path d="M45 11.25H50.625V16.875H45V11.25Z" fill="#F1F1F1"/>
    <path d="M50.625 11.25H56.25V16.875H50.625V11.25Z" fill="#F1F1F1"/>
    <path d="M56.25 11.25H61.875V16.875H56.25V11.25Z" fill="#F1F1F1"/>
    <path d="M61.875 11.25H67.5V16.875H61.875V11.25Z" fill="#F1F1F1"/>
    <path d="M67.5 11.25H73.125V16.875H67.5V11.25Z" fill="#E1E1E1"/>
    <path d="M73.125 11.25H78.75V16.875H73.125V11.25Z" fill="#E1E1E1"/>
    <path d="M78.75 11.25H84.375V16.875H78.75V11.25Z" fill="#E1E1E1"/>
    <path d="M84.375 11.25H90V16.875H84.375V11.25Z" fill="#E1E1E1"/>
    <path d="M90 11.25H95.625V16.875H90V11.25Z" fill="#E1E1E1"/>
    <path d="M95.625 11.25H101.25V16.875H95.625V11.25Z" fill="#E1E1E1"/>
    <path d="M101.25 11.25H106.875V16.875H101.25V11.25Z" fill="#E1E1E1"/>
    <path d="M106.875 11.25H112.5V16.875H106.875V11.25Z" fill="#979797"/>
    <path d="M112.5 11.25H118.125V16.875H112.5V11.25Z" fill="#E1E1E1"/>
    <path d="M118.125 11.25H123.75V16.875H118.125V11.25Z" fill="#E1E1E1"/>
    <path d="M22.5 5.625H28.125V11.25H22.5V5.625Z" fill="#838383"/>
    <path d="M28.125 5.625H33.75V11.25H28.125V5.625Z" fill="#F1F1F1"/>
    <path d="M33.75 5.625H39.375V11.25H33.75V5.625Z" fill="#F1F1F1"/>
    <path d="M39.375 5.625H45V11.25H39.375V5.625Z" fill="#F1F1F1"/>
    <path d="M45 5.625H50.625V11.25H45V5.625Z" fill="#F1F1F1"/>
    <path d="M50.625 5.625H56.25V11.25H50.625V5.625Z" fill="#F1F1F1"/>
    <path d="M56.25 5.625H61.875V11.25H56.25V5.625Z" fill="#F1F1F1"/>
    <path d="M61.875 5.625H67.5V11.25H61.875V5.625Z" fill="#E1E1E1"/>
    <path d="M67.5 5.625H73.125V11.25H67.5V5.625Z" fill="#E1E1E1"/>
    <path d="M73.125 5.625H78.75V11.25H73.125V5.625Z" fill="#E1E1E1"/>
    <path d="M78.75 5.625H84.375V11.25H78.75V5.625Z" fill="#E1E1E1"/>
    <path d="M84.375 5.625H90V11.25H84.375V5.625Z" fill="#E1E1E1"/>
    <path d="M90 5.625H95.625V11.25H90V5.625Z" fill="#E1E1E1"/>
    <path d="M95.625 5.625H101.25V11.25H95.625V5.625Z" fill="#E1E1E1"/>
    <path d="M101.25 5.625H106.875V11.25H101.25V5.625Z" fill="#E1E1E1"/>
    <path d="M106.875 5.625H112.5V11.25H106.875V5.625Z" fill="#E1E1E1"/>
    <path d="M112.5 5.625H118.125V11.25H112.5V5.625Z" fill="#838383"/>
    <path d="M118.125 5.625H123.75V11.25H118.125V5.625Z" fill="#838383"/>
    <path d="M28.125 0H33.75V5.625H28.125L28.125 0Z" fill="#838383"/>
    <path d="M33.75 0H39.375V5.625H33.75V0Z" fill="#838383"/>
    <path d="M39.375 0H45V5.625H39.375V0Z" fill="#838383"/>
    <path d="M45 0H50.625V5.625H45V0Z" fill="#838383"/>
    <path d="M50.625 0H56.25V5.625H50.625V0Z" fill="#838383"/>
    <path d="M56.25 0H61.875V5.625H56.25V0Z" fill="#838383"/>
    <path d="M61.875 0H67.5V5.625H61.875V0Z" fill="#838383"/>
    <path d="M67.5 0H73.125V5.625H67.5V0Z" fill="#838383"/>
    <path d="M73.125 0H78.75V5.625H73.125V0Z" fill="#838383"/>
    <path d="M78.75 0H84.375V5.625H78.75V0Z" fill="#838383"/>
    <path d="M84.375 0H90V5.625H84.375V0Z" fill="#838383"/>
    <path d="M90 0H95.625V5.625H90V0Z" fill="#838383"/>
    <path d="M95.625 0H101.25V5.625H95.625V0Z" fill="#838383"/>
    <path d="M101.25 0H106.875V5.625H101.25V0Z" fill="#838383"/>
    <path d="M106.875 0H112.5V5.625H106.875V0Z" fill="#838383"/>
    <path d="M123.75 33.75H129.375V39.375H123.75V33.75Z" fill="#838383"/>
    <path d="M123.75 28.125H129.375V33.75H123.75V28.125Z" fill="#838383"/>
    <path d="M123.75 22.5H129.375V28.125H123.75V22.5Z" fill="#838383"/>
    <path d="M123.75 16.875H129.375V22.5H123.75V16.875Z" fill="#838383"/>
    <path d="M123.75 11.25H129.375V16.875H123.75V11.25Z" fill="#838383"/>
</svg>
